<svg width="153" height="95" viewBox="0 0 153 95" fill="none" xmlns="http://www.w3.org/2000/svg">
<path fill-rule="evenodd" clip-rule="evenodd" d="M110.585 84.7453C110.687 84.7453 110.792 84.751 110.896 84.7644C111.465 84.8461 111.988 85.1543 112.333 85.6184C116.652 91.3987 123.245 94.7158 130.415 94.7158C142.87 94.7158 153 84.5837 153 72.1291C153 59.6727 142.87 49.5462 130.415 49.5462C129.202 49.5462 128.23 48.5667 128.23 47.3589C128.23 21.2477 106.986 0 80.869 0C63.9922 0 48.2604 9.12979 39.8154 23.8192C39.3988 24.5534 38.6171 24.9738 37.7517 24.911C36.833 24.8368 35.9143 24.7645 34.9747 24.7645C15.6918 24.7645 0 40.4564 0 59.743C0 79.0278 15.6918 94.7196 34.9747 94.7196C42.1302 94.7196 49.027 92.5513 54.9062 88.46C55.6042 87.9788 56.5153 87.937 57.2476 88.3611C64.4525 92.5209 72.6179 94.7215 80.8709 94.7215C91.1666 94.7215 100.987 91.4234 109.282 85.1942C109.654 84.8994 110.115 84.7453 110.585 84.7453Z" fill="#F4F7FF"/>
</svg>
