<svg width="218" height="218" viewBox="0 0 218 218" fill="none" xmlns="http://www.w3.org/2000/svg">
    <g clip-path="url(#clip0)">
        <rect width="218" height="218" fill="#3C78FB"/>
        <path d="M30.5 171.5C29.5 172.5 26 181.5 25 184.5C25.5 185.5 26.6 187.9 27 189.5C27.5 191.5 69.5 220 70 221.5C70.4 222.7 122.833 220.333 149 219L192 186L188.5 175L181 166.5L163.5 158.5L137.5 148V140.5L123 135.5L104 134L80 137.5V146.5L68.5 151L39.5 163.5C36.8333 165.833 31.3 170.7 30.5 171.5Z" fill="#F2F2F2" stroke="black"/>
        <path d="M80.4996 102.5L87.4996 135L110.5 134L132.5 138.5L128 121L139.5 118.5L146.5 113.5L149 102.5L146.5 91L141.5 77.5L139.5 63L135 51H130.5L118.5 47.5L112.5 51L93.9995 54.5C91.8329 54.6667 87.4996 55.2 87.4996 56V76C87.4996 77.6 84.1662 85.6667 82.4995 89.5H74.9995C73.9994 89.5 70.9996 93 68.9996 94.5C66.9996 96 70.4996 97.5 70.9996 99.5C71.3996 101.1 74.4996 102.167 75.9996 102.5H80.4996Z" fill="#F2F2F2"/>
        <path d="M81.2294 146.92V138.601C81.3037 138.58 81.3819 138.557 81.4639 138.534C82.3035 138.296 83.5418 137.966 85.1187 137.609C88.2738 136.894 92.7772 136.068 98.1486 135.629C108.674 134.77 122.453 135.406 135.945 141.207V147.894C135.945 148.69 136.566 149.342 137.35 149.391L173.99 164.356C177.406 165.747 180.487 167.849 183.031 170.522C185.575 173.195 187.523 176.378 188.746 179.862L188.747 179.864L199.705 211.368C199.977 212.151 200.832 212.564 201.615 212.292C202.397 212.02 202.811 211.165 202.539 210.383L191.579 178.874L191.577 178.87C190.213 174.985 188.041 171.435 185.204 168.454C182.368 165.473 178.932 163.129 175.123 161.578L138.945 146.802V140.227C138.945 139.635 138.598 139.099 138.058 138.857C123.67 132.422 108.966 131.736 97.9045 132.639C92.3672 133.091 87.722 133.943 84.4557 134.683C82.8219 135.053 81.5313 135.396 80.6447 135.648C80.2013 135.774 79.8587 135.877 79.6245 135.949C79.5075 135.986 79.4175 136.014 79.3555 136.034L79.2837 136.058L79.2638 136.064L79.2579 136.066L79.2559 136.067C79.2559 136.067 79.2546 136.067 79.7294 137.49L79.2546 136.067C78.6423 136.271 78.2294 136.844 78.2294 137.49V145.912L42.3222 160.578C38.5136 162.13 35.0775 164.473 32.2411 167.454C29.4044 170.435 27.2323 173.985 25.8683 177.87L25.8668 177.874L14.9069 209.383C14.6347 210.165 15.0484 211.02 15.8309 211.292C16.6133 211.564 17.4682 211.151 17.7404 210.368L28.6988 178.864L28.6995 178.862C29.923 175.378 31.871 172.195 34.4144 169.522C36.9583 166.849 40.0399 164.747 43.4552 163.356L80.2966 148.309C80.8607 148.078 81.2294 147.529 81.2294 146.92Z" fill="black"/>
        <path d="M86.8824 135.645L81.7657 104.895C81.6025 103.93 81.0845 103.061 80.3136 102.459C79.5426 101.858 78.5748 101.567 77.6008 101.645L75.8099 101.789C75.0285 101.854 74.2421 101.756 73.5004 101.501C72.7587 101.247 72.0778 100.841 71.5008 100.309C70.9237 99.7771 70.4631 99.1313 70.148 98.4121C69.8328 97.693 69.67 96.9161 69.6699 96.1308V96.1308C69.6693 94.8272 70.118 93.5634 70.9403 92.553C71.7626 91.5426 72.908 90.8476 74.1828 90.5855L79.4735 89.4785" stroke="black" stroke-width="3" stroke-linecap="round" stroke-linejoin="round"/>
        <path d="M132.666 138.248L128.041 121.018" stroke="black" stroke-width="3" stroke-linecap="round" stroke-linejoin="round"/>
        <path d="M100.073 121.018C100.073 121.018 126.291 124.093 141.007 117.318C143.538 116.11 145.636 114.151 147.015 111.706C148.394 109.261 148.987 106.449 148.712 103.654C148.109 97.0636 146.563 86.8444 142.634 78.5316C141.829 76.8215 141.267 75.0066 140.966 73.1401C140.188 68.4149 138.192 59.1079 133.802 52.5684" stroke="black" stroke-width="3" stroke-linecap="round" stroke-linejoin="round"/>
        <path d="M137.803 60.7585C137.803 60.7585 130.251 55.5823 124.95 60.6253C124.004 61.5515 123.273 62.6737 122.806 63.9131C122.339 65.1526 122.149 66.4793 122.248 67.8003C122.555 73.0483 123.589 84.4155 126.935 90.422L122.115 92.2773" stroke="black" stroke-width="3" stroke-linecap="round" stroke-linejoin="round"/>
        <path d="M96.1836 68.517C96.1836 68.517 102.723 59.9787 112.485 63.884" stroke="black" stroke-width="3" stroke-linecap="round" stroke-linejoin="round"/>
        <path d="M103.01 99.3086C103.01 99.3086 109.303 107.099 122.074 106.545" stroke="black" stroke-width="3" stroke-linecap="round" stroke-linejoin="round"/>
        <path d="M103.01 79.4646C103.01 79.4646 109.15 73.7143 114.676 77.6093" stroke="black" stroke-width="3" stroke-linecap="round" stroke-linejoin="round"/>
        <path d="M128.338 75.344C130.61 73.9911 134.304 72.6483 137.794 75.0878" stroke="black" stroke-width="3" stroke-linecap="round" stroke-linejoin="round"/>
        <path d="M74.214 90.5859C73.9838 88.863 73.1097 87.2916 71.7682 86.1887C69.5169 84.3437 69.8955 77.5582 74.214 72.8637C74.214 72.8637 65.004 67.7387 67.0507 62.8802C69.0973 58.0217 71.6761 56.5662 71.6761 56.5662C71.6761 56.5662 66.4264 51.1849 68.8927 47.9254C71.3589 44.6659 75.0327 47.6077 76.5984 45.0247C78.1641 42.4417 76.2811 34.7747 85.8084 34.6209C85.8084 34.6209 93.6471 20.9679 100.074 22.0339C106.5 23.0999 106.961 27.4972 106.961 27.4972C106.961 27.4972 118.371 18.3849 124.357 23.7047C124.357 23.7047 136.003 21.4292 136.637 28.7067C137.272 35.9842 134.212 37.5217 134.212 37.5217C134.212 37.5217 145.397 39.4487 144.814 44.6967C144.323 49.1452 141.181 50.1599 141.181 50.1599C141.181 50.1599 151.946 52.7429 149.664 57.6014C149.664 57.6014 147.914 61.8347 144.19 62.8597C144.19 62.8597 148.283 69.9424 140.413 70.4139C140.413 70.4139 138.05 57.5912 133.035 51.5539C133.035 51.5539 125.974 53.1837 116.498 49.7192C112.922 52.671 108.737 54.7922 104.244 55.93C99.7515 57.0679 95.0629 57.1941 90.5157 56.2997C90.5157 56.2997 87.0568 57.5194 89.1547 61.4247C91.2525 65.3299 92.6135 70.3012 88.2132 77.1482C88.2132 77.1482 93.3299 91.3854 89.8301 93.9582C86.3303 96.5309 81.6434 95.7109 80.6201 89.0997L74.214 90.5859Z" fill="black" stroke="black" stroke-width="3" stroke-linecap="round" stroke-linejoin="round"/>
        <path fill-rule="evenodd" clip-rule="evenodd" d="M127 198.263C126.375 198.877 125.717 199.453 125.031 199.99C122.117 202.268 118.681 203.84 115.003 204.558C110.457 205.446 105.746 204.99 101.465 203.249C97.1831 201.508 93.5236 198.56 90.9489 194.778C88.3742 190.996 87 186.549 87 182C87 177.451 88.3742 173.004 90.9489 169.222C93.5236 165.44 97.1831 162.492 101.465 160.751C105.746 159.01 110.457 158.554 115.003 159.442C118.681 160.16 122.117 161.732 125.031 164.01C125.717 164.547 126.375 165.123 127 165.737L118.716 173.868C117.077 172.26 114.99 171.165 112.717 170.721C110.444 170.277 108.089 170.505 105.948 171.375C103.807 172.246 101.978 173.72 100.69 175.611C99.4028 177.502 98.7157 179.726 98.7157 182C98.7157 184.274 99.4028 186.498 100.69 188.389C101.978 190.28 103.807 191.754 105.948 192.625C108.089 193.495 110.444 193.723 112.717 193.279C114.99 192.835 117.077 191.74 118.716 190.132L127 198.263ZM118.543 193.622C116.949 194.693 115.144 195.443 113.231 195.817C110.447 196.36 107.562 196.081 104.939 195.015C102.317 193.949 100.075 192.143 98.4984 189.827C96.9214 187.51 96.0797 184.786 96.0797 182C96.0797 179.214 96.9214 176.49 98.4984 174.173C100.075 171.857 102.317 170.051 104.939 168.985C107.562 167.919 110.447 167.64 113.231 168.183C115.144 168.557 116.949 169.307 118.543 170.378L123.153 165.853C120.619 163.929 117.655 162.598 114.488 161.98C110.455 161.192 106.273 161.596 102.473 163.141C98.6735 164.686 95.4257 167.303 93.1407 170.659C90.8557 174.016 89.636 177.963 89.636 182C89.636 186.037 90.8557 189.984 93.1407 193.341C95.4257 196.697 98.6735 199.314 102.473 200.859C106.273 202.404 110.455 202.808 114.488 202.02C117.655 201.402 120.619 200.071 123.153 198.147L118.543 193.622Z" fill="black"/>
        <path d="M132 198.263C128.723 201.48 124.548 203.671 120.003 204.558C115.457 205.446 110.746 204.99 106.465 203.249C102.183 201.508 98.5236 198.56 95.9489 194.778C93.3742 190.996 92 186.549 92 182C92 177.451 93.3742 173.004 95.9489 169.222C98.5236 165.44 102.183 162.492 106.465 160.751C110.746 159.01 115.457 158.554 120.003 159.442C124.548 160.329 128.723 162.52 132 165.737L123.716 173.868C122.077 172.26 119.99 171.165 117.717 170.721C115.444 170.277 113.089 170.505 110.948 171.375C108.807 172.246 106.978 173.72 105.69 175.611C104.403 177.502 103.716 179.726 103.716 182C103.716 184.274 104.403 186.498 105.69 188.389C106.978 190.28 108.807 191.754 110.948 192.625C113.089 193.495 115.444 193.723 117.717 193.279C119.99 192.835 122.077 191.74 123.716 190.132L132 198.263Z" fill="#F2F2F2"/>
        <path fill-rule="evenodd" clip-rule="evenodd" d="M115.256 159H109.515V159.46H110.769C109.302 159.752 107.861 160.183 106.465 160.75C102.183 162.491 98.5236 165.439 95.9489 169.222C93.3742 173.004 92 177.451 92 182C92 186.549 93.3742 190.995 95.9489 194.778C98.5236 198.56 102.183 201.508 106.465 203.249C107.86 203.816 109.302 204.247 110.769 204.54H109.515V205H115.256C116.841 205.011 118.432 204.864 120.003 204.558C123.681 203.84 127.117 202.268 130.031 199.99C130.717 199.453 131.375 198.877 132 198.263L123.716 190.131L123.691 190.156V190.107L118.5 190.156L117.892 192.58H120.023C119.285 192.888 118.512 193.123 117.717 193.279C115.444 193.722 113.089 193.495 110.948 192.624C108.807 191.754 106.978 190.28 105.69 188.389C104.403 186.498 103.716 184.274 103.716 182C103.716 179.725 104.403 177.502 105.69 175.611C106.978 173.719 108.807 172.245 110.948 171.375C113.089 170.505 115.444 170.277 117.717 170.721C118.512 170.876 119.285 171.111 120.023 171.42H117.892L118.5 174L123.691 173.892V173.844L123.716 173.868L132 165.736C131.375 165.123 130.717 164.547 130.031 164.01C127.117 161.732 123.681 160.16 120.003 159.442C118.432 159.135 116.841 158.988 115.256 159ZM123.543 193.621C121.949 194.693 120.144 195.443 118.231 195.816C115.447 196.36 112.562 196.081 109.939 195.015C107.317 193.949 105.075 192.143 103.498 189.826C101.921 187.51 101.08 184.786 101.08 182C101.08 179.213 101.921 176.49 103.498 174.173C105.075 171.856 107.317 170.051 109.939 168.985C112.562 167.918 115.447 167.639 118.231 168.183C120.144 168.556 121.949 169.306 123.543 170.378L128.153 165.853C125.619 163.928 122.655 162.598 119.488 161.979C115.455 161.192 111.273 161.596 107.473 163.141C103.674 164.686 100.426 167.302 98.1407 170.659C95.8557 174.016 94.636 177.962 94.636 182C94.636 186.037 95.8557 189.983 98.1407 193.34C100.426 196.697 103.674 199.313 107.473 200.858C111.273 202.403 115.455 202.808 119.488 202.02C122.655 201.402 125.619 200.071 128.153 198.147L123.543 193.621Z" fill="black"/>
        <g filter="url(#filter0_d)">
            <path fill-rule="evenodd" clip-rule="evenodd" d="M259 -41H-41V259H259V-41ZM109 218C169.199 218 218 169.199 218 109C218 48.801 169.199 0 109 0C48.801 0 0 48.801 0 109C0 169.199 48.801 218 109 218Z" fill="#FAFAFA"/>
        </g>
        <path fill-rule="evenodd" clip-rule="evenodd" d="M331 -63H-113V280H331V-63ZM109 224C172.513 224 224 172.513 224 109C224 45.4873 172.513 -6 109 -6C45.4873 -6 -6 45.4873 -6 109C-6 172.513 45.4873 224 109 224Z" fill="#FAFAFA"/>
    </g>
    <defs>
        <filter id="filter0_d" x="-61" y="-61" width="348" height="348" filterUnits="userSpaceOnUse" color-interpolation-filters="sRGB">
            <feFlood flood-opacity="0" result="BackgroundImageFix"/>
            <feColorMatrix in="SourceAlpha" type="matrix" values="0 0 0 0 0 0 0 0 0 0 0 0 0 0 0 0 0 0 127 0"/>
            <feOffset dx="4" dy="4"/>
            <feGaussianBlur stdDeviation="12"/>
            <feColorMatrix type="matrix" values="0 0 0 0 0 0 0 0 0 0 0 0 0 0 0 0 0 0 0.3 0"/>
            <feBlend mode="normal" in2="BackgroundImageFix" result="effect1_dropShadow"/>
            <feBlend mode="normal" in="SourceGraphic" in2="effect1_dropShadow" result="shape"/>
        </filter>
        <clipPath id="clip0">
            <rect width="218" height="218" fill="white"/>
        </clipPath>
    </defs>
</svg>
