<svg width="48" height="48" viewBox="0 0 48 48" fill="none" xmlns="http://www.w3.org/2000/svg">
<path d="M12.375 45V16.9688H3.65625V45H12.375ZM7.96875 13.2188C10.7812 13.2188 13.0312 10.875 13.0312 8.0625C13.0312 5.34375 10.7812 3.09375 7.96875 3.09375C5.25 3.09375 3 5.34375 3 8.0625C3 10.875 5.25 13.2188 7.96875 13.2188ZM44.9062 45H45V29.625C45 22.125 43.3125 16.3125 34.5 16.3125C30.2812 16.3125 27.4688 18.6562 26.25 20.8125H26.1562V16.9688H17.8125V45H26.5312V31.125C26.5312 27.4688 27.1875 24 31.6875 24C36.1875 24 36.2812 28.125 36.2812 31.4062V45H44.9062Z" fill="white"/>
</svg>
