<svg width="176" height="48" viewBox="0 0 176 48" fill="none" xmlns="http://www.w3.org/2000/svg">
<path d="M64.168 24.104C63.992 23.848 63.744 23.64 63.424 23.48C63.104 23.304 62.76 23.216 62.392 23.216C61.48 23.216 60.768 23.488 60.256 24.032C59.76 24.576 59.512 25.288 59.512 26.168C59.512 27.048 59.76 27.76 60.256 28.304C60.768 28.848 61.48 29.12 62.392 29.12C62.792 29.12 63.136 29.032 63.424 28.856C63.712 28.68 63.96 28.472 64.168 28.232L66.544 30.728C65.984 31.304 65.32 31.712 64.552 31.952C63.8 32.176 63.08 32.288 62.392 32.288C61.496 32.288 60.648 32.144 59.848 31.856C59.064 31.568 58.376 31.16 57.784 30.632C57.208 30.088 56.752 29.44 56.416 28.688C56.08 27.936 55.912 27.096 55.912 26.168C55.912 25.24 56.08 24.4 56.416 23.648C56.752 22.896 57.208 22.256 57.784 21.728C58.376 21.184 59.064 20.768 59.848 20.48C60.648 20.192 61.496 20.048 62.392 20.048C63.08 20.048 63.8 20.168 64.552 20.408C65.32 20.632 65.984 21.032 66.544 21.608L64.168 24.104ZM67.6681 26.168C67.6681 25.24 67.8361 24.4 68.1721 23.648C68.5081 22.896 68.9641 22.256 69.5401 21.728C70.1321 21.184 70.8201 20.768 71.6041 20.48C72.4041 20.192 73.2521 20.048 74.1481 20.048C75.0441 20.048 75.8841 20.192 76.6681 20.48C77.4681 20.768 78.1561 21.184 78.7321 21.728C79.3241 22.256 79.7881 22.896 80.1241 23.648C80.4601 24.4 80.6281 25.24 80.6281 26.168C80.6281 27.096 80.4601 27.936 80.1241 28.688C79.7881 29.44 79.3241 30.088 78.7321 30.632C78.1561 31.16 77.4681 31.568 76.6681 31.856C75.8841 32.144 75.0441 32.288 74.1481 32.288C73.2521 32.288 72.4041 32.144 71.6041 31.856C70.8201 31.568 70.1321 31.16 69.5401 30.632C68.9641 30.088 68.5081 29.44 68.1721 28.688C67.8361 27.936 67.6681 27.096 67.6681 26.168ZM71.2681 26.168C71.2681 27.048 71.5161 27.76 72.0121 28.304C72.5241 28.848 73.2361 29.12 74.1481 29.12C75.0601 29.12 75.7641 28.848 76.2601 28.304C76.7721 27.76 77.0281 27.048 77.0281 26.168C77.0281 25.288 76.7721 24.576 76.2601 24.032C75.7641 23.488 75.0601 23.216 74.1481 23.216C73.2361 23.216 72.5241 23.488 72.0121 24.032C71.5161 24.576 71.2681 25.288 71.2681 26.168ZM82.9986 20.336H86.4546V21.92H86.5026C86.6146 21.696 86.7746 21.472 86.9826 21.248C87.1906 21.024 87.4386 20.824 87.7266 20.648C88.0146 20.472 88.3426 20.328 88.7106 20.216C89.0786 20.104 89.4786 20.048 89.9106 20.048C90.8226 20.048 91.5586 20.192 92.1186 20.48C92.6786 20.752 93.1106 21.136 93.4146 21.632C93.7346 22.128 93.9506 22.712 94.0626 23.384C94.1746 24.056 94.2306 24.784 94.2306 25.568V32H90.6306V26.288C90.6306 25.952 90.6146 25.608 90.5826 25.256C90.5666 24.888 90.4946 24.552 90.3666 24.248C90.2546 23.944 90.0706 23.696 89.8146 23.504C89.5746 23.312 89.2226 23.216 88.7586 23.216C88.2946 23.216 87.9186 23.304 87.6306 23.48C87.3426 23.64 87.1186 23.864 86.9586 24.152C86.8146 24.424 86.7186 24.736 86.6706 25.088C86.6226 25.44 86.5986 25.808 86.5986 26.192V32H82.9986V20.336ZM104.974 23.216H101.806V27.104C101.806 27.424 101.822 27.72 101.854 27.992C101.886 28.248 101.958 28.472 102.07 28.664C102.182 28.856 102.35 29.008 102.574 29.12C102.814 29.216 103.126 29.264 103.51 29.264C103.702 29.264 103.95 29.248 104.254 29.216C104.574 29.168 104.814 29.072 104.974 28.928V31.928C104.574 32.072 104.158 32.168 103.726 32.216C103.294 32.264 102.87 32.288 102.454 32.288C101.846 32.288 101.286 32.224 100.774 32.096C100.262 31.968 99.8138 31.768 99.4298 31.496C99.0458 31.208 98.7418 30.84 98.5178 30.392C98.3098 29.944 98.2058 29.4 98.2058 28.76V23.216H95.9018V20.336H98.2058V16.88H101.806V20.336H104.974V23.216ZM107.101 20.336H110.701V32H107.101V20.336ZM106.813 16.664C106.813 16.088 107.013 15.6 107.413 15.2C107.829 14.784 108.325 14.576 108.901 14.576C109.477 14.576 109.965 14.784 110.365 15.2C110.781 15.6 110.989 16.088 110.989 16.664C110.989 17.24 110.781 17.736 110.365 18.152C109.965 18.552 109.477 18.752 108.901 18.752C108.325 18.752 107.829 18.552 107.413 18.152C107.013 17.736 106.813 17.24 106.813 16.664ZM113.538 20.336H116.994V21.92H117.042C117.154 21.696 117.314 21.472 117.522 21.248C117.73 21.024 117.978 20.824 118.266 20.648C118.554 20.472 118.882 20.328 119.25 20.216C119.618 20.104 120.018 20.048 120.45 20.048C121.362 20.048 122.098 20.192 122.658 20.48C123.218 20.752 123.65 21.136 123.954 21.632C124.274 22.128 124.49 22.712 124.602 23.384C124.714 24.056 124.77 24.784 124.77 25.568V32H121.17V26.288C121.17 25.952 121.154 25.608 121.122 25.256C121.106 24.888 121.034 24.552 120.906 24.248C120.794 23.944 120.61 23.696 120.354 23.504C120.114 23.312 119.762 23.216 119.298 23.216C118.834 23.216 118.458 23.304 118.17 23.48C117.882 23.64 117.658 23.864 117.498 24.152C117.354 24.424 117.258 24.736 117.21 25.088C117.162 25.44 117.138 25.808 117.138 26.192V32H113.538V20.336ZM138.801 32H135.345V30.416H135.297C135.169 30.64 135.001 30.864 134.793 31.088C134.601 31.312 134.361 31.512 134.073 31.688C133.785 31.864 133.457 32.008 133.089 32.12C132.721 32.232 132.321 32.288 131.889 32.288C130.977 32.288 130.233 32.152 129.657 31.88C129.097 31.592 128.657 31.2 128.337 30.704C128.033 30.208 127.825 29.624 127.713 28.952C127.617 28.28 127.569 27.552 127.569 26.768V20.336H131.169V26.048C131.169 26.384 131.177 26.736 131.193 27.104C131.225 27.456 131.297 27.784 131.409 28.088C131.537 28.392 131.721 28.64 131.961 28.832C132.217 29.024 132.577 29.12 133.041 29.12C133.505 29.12 133.881 29.04 134.169 28.88C134.457 28.704 134.673 28.48 134.817 28.208C134.977 27.92 135.081 27.6 135.129 27.248C135.177 26.896 135.201 26.528 135.201 26.144V20.336H138.801V32ZM152.832 32H149.376V30.416H149.328C149.2 30.64 149.032 30.864 148.824 31.088C148.632 31.312 148.392 31.512 148.104 31.688C147.816 31.864 147.488 32.008 147.12 32.12C146.752 32.232 146.352 32.288 145.92 32.288C145.008 32.288 144.264 32.152 143.688 31.88C143.128 31.592 142.688 31.2 142.368 30.704C142.064 30.208 141.856 29.624 141.744 28.952C141.648 28.28 141.6 27.552 141.6 26.768V20.336H145.2V26.048C145.2 26.384 145.208 26.736 145.224 27.104C145.256 27.456 145.328 27.784 145.44 28.088C145.568 28.392 145.752 28.64 145.992 28.832C146.248 29.024 146.608 29.12 147.072 29.12C147.536 29.12 147.912 29.04 148.2 28.88C148.488 28.704 148.704 28.48 148.848 28.208C149.008 27.92 149.112 27.6 149.16 27.248C149.208 26.896 149.232 26.528 149.232 26.144V20.336H152.832V32ZM155.631 20.336H159.087V21.92H159.135C159.247 21.696 159.407 21.472 159.615 21.248C159.823 21.024 160.071 20.824 160.359 20.648C160.647 20.472 160.975 20.328 161.343 20.216C161.711 20.104 162.111 20.048 162.543 20.048C163.359 20.048 164.079 20.216 164.703 20.552C165.343 20.888 165.823 21.416 166.143 22.136C166.559 21.384 167.063 20.848 167.655 20.528C168.247 20.208 168.975 20.048 169.839 20.048C170.623 20.048 171.279 20.184 171.807 20.456C172.351 20.712 172.775 21.072 173.079 21.536C173.399 21.984 173.623 22.52 173.751 23.144C173.895 23.752 173.967 24.408 173.967 25.112V32H170.367V25.208C170.367 24.664 170.247 24.2 170.007 23.816C169.783 23.416 169.375 23.216 168.783 23.216C168.367 23.216 168.015 23.288 167.727 23.432C167.455 23.56 167.231 23.744 167.055 23.984C166.895 24.224 166.775 24.504 166.695 24.824C166.631 25.144 166.599 25.48 166.599 25.832V32H162.999V25.832C162.999 25.624 162.991 25.368 162.975 25.064C162.959 24.76 162.903 24.472 162.807 24.2C162.711 23.928 162.551 23.696 162.327 23.504C162.119 23.312 161.807 23.216 161.391 23.216C160.927 23.216 160.551 23.304 160.263 23.48C159.975 23.64 159.751 23.864 159.591 24.152C159.447 24.424 159.351 24.736 159.303 25.088C159.255 25.44 159.231 25.808 159.231 26.192V32H155.631V20.336Z" fill="black"/>
<path fill-rule="evenodd" clip-rule="evenodd" d="M40.9705 40.9706C40.3304 41.6107 39.6569 42.2118 38.9536 42.772C35.9692 45.1494 32.4499 46.7894 28.6822 47.5388C24.0266 48.4649 19.201 47.9896 14.8156 46.1731C10.4302 44.3566 6.68188 41.2805 4.04473 37.3337C1.40758 33.3869 2.92347e-07 28.7467 0 24C-2.92347e-07 19.2533 1.40757 14.6131 4.04473 10.6663C6.68188 6.71954 10.4302 3.6434 14.8156 1.8269C19.201 0.0103994 24.0266 -0.464881 28.6822 0.461163C32.4499 1.21061 35.9692 2.85061 38.9536 5.22798C39.6569 5.78819 40.3304 6.38935 40.9705 7.02944L32.4853 15.5147C30.807 13.8365 28.6688 12.6936 26.3411 12.2306C24.0133 11.7676 21.6005 12.0052 19.4078 12.9135C17.2151 13.8217 15.3409 15.3598 14.0224 17.3332C12.7038 19.3065 12 21.6266 12 24C12 26.3734 12.7038 28.6935 14.0224 30.6668C15.3409 32.6402 17.2151 34.1783 19.4078 35.0865C21.6005 35.9948 24.0133 36.2324 26.3411 35.7694C28.6688 35.3064 30.807 34.1635 32.4853 32.4853L40.9705 40.9706ZM32.3084 36.1268C30.6761 37.2452 28.8268 38.0279 26.8678 38.4175C24.0163 38.9847 21.0606 38.6936 18.3745 37.581C15.6885 36.4684 13.3926 34.5843 11.7774 32.1669C10.1621 29.7495 9.3 26.9074 9.3 24C9.3 21.0926 10.1621 18.2505 11.7774 15.8331C13.3926 13.4157 15.6885 11.5316 18.3745 10.419C21.0606 9.30637 24.0163 9.01526 26.8678 9.58246C28.8267 9.97212 30.6761 10.7548 32.3084 11.8732L37.0307 7.15093C34.4343 5.14294 31.3985 3.75437 28.1554 3.10928C24.0236 2.28742 19.7409 2.70923 15.8488 4.32138C11.9568 5.93352 8.63017 8.66359 6.28969 12.1664C3.94922 15.6691 2.7 19.7873 2.7 24C2.7 28.2127 3.94922 32.3309 6.28969 35.8336C8.63017 39.3364 11.9568 42.0665 15.8488 43.6786C19.7409 45.2908 24.0236 45.7126 28.1554 44.8907C31.3985 44.2456 34.4343 42.8571 37.0307 40.8491L32.3084 36.1268Z" fill="black"/>
<path d="M46.9105 40.9706C43.554 44.327 39.2776 46.6128 34.6221 47.5388C29.9666 48.4649 25.141 47.9896 20.7555 46.1731C16.3701 44.3566 12.6218 41.2805 9.98467 37.3337C7.34752 33.3869 5.93994 28.7468 5.93994 24C5.93994 19.2533 7.34752 14.6131 9.98467 10.6663C12.6218 6.71954 16.3701 3.6434 20.7555 1.8269C25.141 0.0103994 29.9666 -0.464881 34.6221 0.461163C39.2776 1.38721 43.554 3.67298 46.9105 7.02944L38.4252 15.5147C36.747 13.8365 34.6088 12.6936 32.281 12.2306C29.9532 11.7676 27.5404 12.0052 25.3477 12.9135C23.155 13.8217 21.2809 15.3598 19.9623 17.3332C18.6437 19.3065 17.9399 21.6266 17.9399 24C17.9399 26.3734 18.6437 28.6935 19.9623 30.6668C21.2809 32.6402 23.155 34.1783 25.3477 35.0865C27.5404 35.9948 29.9532 36.2324 32.281 35.7694C34.6088 35.3064 36.747 34.1635 38.4252 32.4853L46.9105 40.9706Z" fill="white"/>
<path d="M46.91 40.9706C43.5535 44.327 39.2771 46.6128 34.6216 47.5388C29.9661 48.4649 25.1405 47.9896 20.755 46.1731C16.3696 44.3566 12.6213 41.2805 9.98418 37.3337C7.34703 33.3869 5.93945 28.7468 5.93945 24C5.93945 19.2533 7.34703 14.6131 9.98418 10.6663C12.6213 6.71954 16.3696 3.6434 20.755 1.8269C25.1405 0.0103994 29.9661 -0.464881 34.6216 0.461163C39.2771 1.38721 43.5535 3.67298 46.91 7.02944L38.4247 15.5147C36.7465 13.8365 34.6083 12.6936 32.2805 12.2306C29.9528 11.7676 27.54 12.0052 25.3472 12.9135C23.1545 13.8217 21.2804 15.3598 19.9618 17.3332C18.6432 19.3065 17.9394 21.6266 17.9394 24C17.9394 26.3734 18.6432 28.6935 19.9618 30.6668C21.2804 32.6402 23.1545 34.1783 25.3472 35.0865C27.54 35.9948 29.9528 36.2324 32.2805 35.7694C34.6083 35.3064 36.7465 34.1635 38.4247 32.4853L46.91 40.9706Z" fill="#FAFAFA"/>
<path fill-rule="evenodd" clip-rule="evenodd" d="M29.8199 0H23.9399V0.48H25.224C23.7219 0.785019 22.2453 1.23468 20.8156 1.8269C16.4302 3.64341 12.6819 6.71954 10.0447 10.6663C7.40757 14.6131 6 19.2533 6 24C6 28.7468 7.40758 33.3869 10.0447 37.3337C12.6819 41.2805 16.4302 44.3566 20.8156 46.1731C22.2453 46.7653 23.7218 47.215 25.224 47.52H23.9399V48H29.8199V47.9993C31.4442 48.0115 33.0733 47.8589 34.6822 47.5388C38.4499 46.7894 41.9692 45.1494 44.9536 42.772C45.6569 42.2118 46.3304 41.6106 46.9705 40.9706L38.4853 32.4853L38.46 32.5105V32.46H32.52V35.04H34.703C33.9466 35.3622 33.1555 35.6074 32.3411 35.7694C30.0133 36.2324 27.6005 35.9948 25.4078 35.0865C23.2151 34.1783 21.3409 32.6402 20.0224 30.6668C18.7038 28.6935 18 26.3734 18 24C18 21.6266 18.7038 19.3066 20.0224 17.3332C21.3409 15.3598 23.2151 13.8217 25.4078 12.9135C27.6005 12.0052 30.0133 11.7676 32.3411 12.2306C33.1554 12.3926 33.9466 12.6378 34.703 12.96H32.52V15.54H38.46V15.4895L38.4853 15.5147L46.9705 7.02944C46.3304 6.38935 45.6569 5.78819 44.9536 5.22798C41.9692 2.85061 38.4499 1.21061 34.6821 0.461163C33.0733 0.141145 31.4442 -0.0115238 29.8199 0.000677122V0ZM38.3084 36.1268C36.6761 37.2452 34.8267 38.0279 32.8678 38.4175C30.0163 38.9847 27.0606 38.6936 24.3745 37.581C21.6885 36.4684 19.3926 34.5843 17.7774 32.1669C16.1621 29.7495 15.3 26.9074 15.3 24C15.3 21.0926 16.1621 18.2505 17.7774 15.8331C19.3926 13.4157 21.6885 11.5316 24.3745 10.419C27.0606 9.30637 30.0163 9.01526 32.8678 9.58246C34.8267 9.97212 36.6761 10.7548 38.3084 11.8732L43.0307 7.15093C40.4343 5.14294 37.3985 3.75437 34.1554 3.10928C30.0236 2.28742 25.7409 2.70923 21.8488 4.32138C17.9568 5.93352 14.6302 8.6636 12.2897 12.1664C9.94922 15.6691 8.7 19.7873 8.7 24C8.7 28.2127 9.94922 32.3309 12.2897 35.8336C14.6302 39.3364 17.9568 42.0665 21.8488 43.6786C25.7409 45.2908 30.0236 45.7126 34.1554 44.8907C37.3985 44.2456 40.4343 42.8571 43.0307 40.8491L38.3084 36.1268Z" fill="black"/>
</svg>
