<svg width="242" height="241" viewBox="0 0 242 241" fill="none" xmlns="http://www.w3.org/2000/svg">
<circle opacity="0.1" cx="121" cy="120.5" r="120.5" fill="#FAFAFA"/>
<path opacity="0.3" d="M104.24 60.43C104.24 60.43 113.36 71.86 146.34 60.23C147.248 59.9088 148.213 59.7786 149.175 59.8476C150.136 59.9167 151.072 60.1834 151.926 60.6312C152.779 61.079 153.531 61.6982 154.134 62.4499C154.737 63.2017 155.178 64.0698 155.43 65C156.031 67.7671 156.119 70.621 155.69 73.42C153.96 87.74 145.69 94.88 152.27 98.83C158.85 102.78 160.38 101.11 160.38 101.11C160.38 101.11 163.32 102.02 164.95 87.77L166.58 73.52C166.58 73.52 169.21 45.84 143.09 41.58C143.09 41.54 113.9 36.73 104.24 60.43Z" fill="black" stroke="black" stroke-width="3" stroke-linecap="round" stroke-linejoin="round"/>
<path d="M113.49 151.64L82.4901 160.7C77.1313 162.265 72.2508 165.149 68.2954 169.089C64.3401 173.028 61.4363 177.897 59.8501 183.25L52.5901 207.79" stroke="black" stroke-width="3" stroke-linecap="round" stroke-linejoin="round"/>
<path d="M160 153C160 153 156.74 138.22 159.46 116.51C159.527 116.002 159.693 115.512 159.949 115.068C160.205 114.625 160.547 114.236 160.954 113.925C161.361 113.614 161.825 113.386 162.321 113.255C162.816 113.123 163.332 113.091 163.84 113.16V113.16C165.12 113.314 166.411 112.966 167.441 112.191C168.471 111.416 169.163 110.273 169.37 109C169.569 107.72 169.264 106.412 168.518 105.352C167.771 104.292 166.643 103.564 165.37 103.32L160.63 102.46" stroke="black" stroke-width="3" stroke-linecap="round" stroke-linejoin="round"/>
<path d="M145.76 132.35C145.76 132.35 123.31 142.1 109.27 136.88C95.2301 131.66 98.0001 95.2 98.0001 92.38C98.0001 89.56 98.0001 43.44 130.12 41C162.24 38.56 172 60.31 163.89 92.38L161.66 102.67" stroke="black" stroke-width="3" stroke-linecap="round" stroke-linejoin="round"/>
<path d="M114.56 138.42C114.56 138.42 119.02 145.32 127.56 145.32C136.1 145.32 145.74 132.32 145.74 132.32C136.053 137.027 125.307 139.129 114.56 138.42Z" fill="black" stroke="black" stroke-width="3" stroke-linecap="round" stroke-linejoin="round"/>
<path d="M114.56 138.42C115.244 141.838 115.243 145.358 114.556 148.776C113.87 152.194 112.511 155.441 110.56 158.33L106.44 166.91C103.16 173.73 106.13 177.67 109.36 179.81C111.68 181.332 114.395 182.142 117.17 182.14C151.53 182.43 160 153 160 153L186.33 160.69C191.687 162.257 196.565 165.142 200.518 169.082C204.471 173.021 207.374 177.889 208.96 183.24L216.23 207.78" stroke="black" stroke-width="3" stroke-linecap="round" stroke-linejoin="round"/>
<path d="M99.06 79.4301C99.06 79.4301 106.78 75.1801 115.06 77.2501C116.502 77.6264 117.753 78.5261 118.568 79.7739C119.383 81.0217 119.705 82.5282 119.47 84.0001L116.78 100.82C116.705 101.314 116.738 101.819 116.876 102.3C117.014 102.78 117.254 103.226 117.579 103.605C117.905 103.985 118.308 104.29 118.762 104.5C119.216 104.709 119.71 104.818 120.21 104.82H122.54" stroke="black" stroke-width="3" stroke-linecap="round" stroke-linejoin="round"/>
<path d="M127.2 79.7999C127.2 79.7999 136.81 73.6799 147.3 79.7999" stroke="black" stroke-width="3" stroke-linecap="round" stroke-linejoin="round"/>
<path d="M130.16 88.32C130.16 88.32 134.09 85.66 139.81 88.32" stroke="black" stroke-width="3" stroke-linecap="round" stroke-linejoin="round"/>
<path d="M106 88.32C106 88.32 109.92 85.66 115.64 88.32" stroke="black" stroke-width="3" stroke-linecap="round" stroke-linejoin="round"/>
<path d="M124.74 112.17C124.74 112.17 133.64 110.3 140.47 105.17C141.301 104.518 142.357 104.222 143.406 104.345C144.455 104.469 145.413 105.003 146.07 105.83C146.503 106.368 146.79 107.009 146.902 107.691C147.015 108.372 146.948 109.071 146.71 109.72C145.71 112.44 143.17 116.79 136.6 118.64" stroke="black" stroke-width="3" stroke-linecap="round" stroke-linejoin="round"/>
<path d="M97.8101 100.46H96.3101C95.3156 100.46 94.3618 100.855 93.6585 101.558C92.9552 102.262 92.5601 103.215 92.5601 104.21C92.5549 104.706 92.648 105.198 92.834 105.657C93.0201 106.117 93.2955 106.535 93.6443 106.888C93.993 107.24 94.4082 107.52 94.8658 107.711C95.3234 107.902 95.8143 108 96.3101 108H97.8101" stroke="black" stroke-width="3" stroke-linecap="round" stroke-linejoin="round"/>
<path d="M193 178.52C186.535 190.265 183.748 203.682 185 217.03" stroke="black" stroke-width="3" stroke-linecap="round" stroke-linejoin="round"/>
<path d="M74.4899 175.56L69.6499 213.23" stroke="black" stroke-width="3" stroke-linecap="round" stroke-linejoin="round"/>
<path d="M70.8975 105.675C73.8321 103.986 72.1658 95.5859 67.1757 86.9114C62.1857 78.2369 55.7615 72.5733 52.8269 74.2614C49.8923 75.9496 51.5586 84.3502 56.5487 93.0247C61.5387 101.699 67.9629 107.363 70.8975 105.675Z" stroke="black" stroke-width="3" stroke-linecap="round" stroke-linejoin="round"/>
<path d="M53.6401 86.85C56.5701 85.16 60.4601 86.43 62.3401 89.69C64.2201 92.95 63.3401 96.95 60.4201 98.69" stroke="black" stroke-width="3" stroke-linecap="round" stroke-linejoin="round"/>
<path d="M52.8199 74.2602L37.7399 93.1202C36.0783 95.1849 34.0428 96.9184 31.7399 98.2302L28.8999 99.8902C27.6231 100.629 26.6906 101.843 26.3065 103.267C25.9223 104.691 26.1177 106.21 26.8499 107.49L29.0999 111.41C29.845 112.681 31.0628 113.604 32.4871 113.979C33.9113 114.354 35.4261 114.149 36.6999 113.41L43.0499 109.76L70.8899 105.62" stroke="black" stroke-width="3" stroke-linecap="round" stroke-linejoin="round"/>
<path d="M29.6899 99.4399L37.4899 113L43.7999 124C44.0193 124.374 44.3774 124.647 44.7967 124.76C45.216 124.872 45.6626 124.815 46.0399 124.6L47.0399 124.04C47.3767 123.845 47.6343 123.538 47.7677 123.172C47.9012 122.807 47.9019 122.406 47.7699 122.04L46.3199 118C46.0564 117.271 45.9541 116.493 46.0199 115.72L46.5299 109.3" stroke="black" stroke-width="3" stroke-linecap="round" stroke-linejoin="round"/>
<path d="M38.6797 115.07L41.8797 113.23C42.8605 112.668 43.9802 112.394 45.1097 112.44L46.2697 112.5L46.5297 109.29L43.0497 109.81L37.4897 113L38.6797 115.07Z" fill="black" stroke="black" stroke-width="3" stroke-linecap="round" stroke-linejoin="round"/>
<path d="M65.95 78.1999L75.83 66.8099" stroke="black" stroke-width="3" stroke-linecap="round" stroke-linejoin="round"/>
<path d="M75.3101 95.2802L85.1901 95.8202" stroke="black" stroke-width="3" stroke-linecap="round" stroke-linejoin="round"/>
<path d="M73.52 84.7899L91.95 76.6799" stroke="black" stroke-width="3" stroke-linecap="round" stroke-linejoin="round"/>
<path d="M190.58 146.26L196.6 148.82" stroke="black" stroke-width="3" stroke-linecap="round" stroke-linejoin="round"/>
<path d="M218.91 127.46C219.893 125.151 220.278 122.631 220.03 120.134C219.782 117.636 218.909 115.241 217.492 113.17C216.074 111.1 214.157 109.419 211.919 108.284C209.68 107.149 207.192 106.597 204.684 106.677C202.175 106.758 199.728 107.469 197.567 108.745C195.406 110.021 193.601 111.821 192.319 113.979C191.037 116.137 190.319 118.582 190.232 121.091C190.145 123.599 190.691 126.089 191.82 128.33C192.543 129.809 192.936 131.427 192.972 133.072C193.008 134.717 192.687 136.351 192.03 137.86L191.76 138.49C191.671 138.71 191.626 138.945 191.628 139.183C191.629 139.42 191.678 139.655 191.771 139.873C191.864 140.091 191.999 140.289 192.169 140.455C192.339 140.621 192.54 140.752 192.76 140.84L199.24 143.59C199.455 143.682 199.687 143.731 199.921 143.734C200.155 143.737 200.388 143.693 200.605 143.606C200.823 143.518 201.021 143.389 201.188 143.225C201.355 143.061 201.489 142.866 201.58 142.65V142.65C202.272 141.039 203.318 139.604 204.641 138.453C205.964 137.302 207.529 136.463 209.22 136C211.373 135.396 213.362 134.315 215.04 132.836C216.718 131.358 218.04 129.52 218.91 127.46V127.46Z" stroke="black" stroke-width="3" stroke-linecap="round" stroke-linejoin="round"/>
<path d="M191.35 142.09L199.1 145.38" stroke="black" stroke-width="3" stroke-linecap="round" stroke-linejoin="round"/>
<path d="M190.54 144.01L198.28 147.3" stroke="black" stroke-width="3" stroke-linecap="round" stroke-linejoin="round"/>
<path d="M195 141.07C195.66 139.07 197.12 137.48 198.4 135.84C199.749 134.197 200.768 132.309 201.4 130.28C202.078 128.156 202.201 125.895 201.76 123.71C201.15 121.38 198.51 121.3 197.5 123.4C197.157 124.29 197.086 125.263 197.296 126.194C197.506 127.125 197.988 127.973 198.68 128.63C199.395 129.357 200.258 129.922 201.211 130.287C202.163 130.652 203.182 130.809 204.2 130.746C205.218 130.684 206.211 130.404 207.112 129.925C208.012 129.446 208.799 128.779 209.42 127.97C210.42 126.65 211.5 124.31 210.12 122.84C208.12 120.76 205.85 123.62 205.21 125.38C204.814 126.487 204.68 127.671 204.818 128.839C204.957 130.007 205.365 131.126 206.01 132.11C206.81 133.31 208.76 132.18 207.95 130.97C207.205 129.874 206.885 128.545 207.05 127.23C207.128 126.632 207.31 126.053 207.59 125.52C207.724 125.246 207.892 124.991 208.09 124.76C208.193 124.633 208.323 124.53 208.47 124.46C208.67 124.46 208.47 124.33 208.47 124.46C208.85 125.46 207.47 126.91 206.82 127.46C206.334 127.86 205.774 128.161 205.172 128.344C204.569 128.528 203.937 128.591 203.31 128.53C202.654 128.477 202.017 128.288 201.438 127.974C200.86 127.661 200.353 127.23 199.95 126.71C199.616 126.265 199.415 125.734 199.37 125.18C199.364 124.931 199.405 124.684 199.49 124.45C199.49 124.39 199.71 124.01 199.57 124.12C199.48 124.05 199.46 124.06 199.51 124.12C199.551 124.216 199.578 124.317 199.59 124.42C200.049 127.34 199.407 130.326 197.79 132.8C196.13 135.41 193.79 137.46 192.79 140.47C192.33 141.85 194.51 142.47 194.96 141.07H195Z" fill="black"/>
<path d="M95.9299 155.81C93.9204 152.305 91.0603 149.363 87.6138 147.255C84.1672 145.148 80.2453 143.942 76.2099 143.75C69.0399 143.26 59.0799 144.97 57.3299 153.25C56.5399 157.02 57.3299 160.89 56.7599 164.67C56.7384 165.124 56.6181 165.567 56.4074 165.97C56.1967 166.372 55.9006 166.724 55.5399 167C54.6698 167.549 53.7569 168.027 52.8099 168.43C50.9499 169.35 49.0999 170.28 47.2899 171.31C40.4999 175.18 33.7699 181.45 33.7899 189.89C33.7899 194.45 36.1399 198.39 40.6899 199.57C45.2399 200.75 50.6899 199.92 55.3099 198.77C57.1799 198.29 56.3899 195.4 54.5199 195.87C50.7121 196.944 46.7366 197.293 42.7999 196.9C41.0985 196.774 39.5019 196.03 38.3099 194.81C37.2312 193.374 36.6931 191.603 36.7899 189.81C36.7899 182.3 43.1999 176.96 49.1799 173.61C50.7999 172.7 52.4699 171.86 54.1799 171.04C55.8899 170.22 57.4499 169.61 58.5499 168.22C60.5499 165.63 59.9599 161.37 59.9599 158.29C59.9599 155.21 60.1799 151.66 62.8599 149.55C65.5399 147.44 69.5499 146.85 72.8599 146.68C81.2199 146.26 89.2099 149.83 93.3699 157.28C93.5701 157.625 93.8991 157.876 94.2845 157.978C94.6699 158.08 95.0801 158.025 95.4249 157.825C95.7697 157.625 96.0208 157.296 96.123 156.91C96.2252 156.525 96.1701 156.115 95.9699 155.77L95.9299 155.81Z" fill="black"/>
<path d="M166.16 88.5601C166.25 84.4701 171.16 82.0401 174.16 80.2501C178.16 77.9201 182.36 76.1301 187.06 76.7001C189.129 76.9536 191.127 77.6143 192.94 78.6441C194.752 79.6739 196.343 81.0524 197.62 82.7001C200.171 86.1669 201.301 90.4774 200.78 94.75C200.572 96.9856 201.141 99.2245 202.39 101.09C203.29 102.56 204.81 104.27 204.15 106.09C203.49 107.91 206.4 108.69 207.05 106.88C207.77 104.88 207 102.88 205.96 101.15C204.77 99.1501 203.57 97.6001 203.74 95.1501C204.01 92.6918 203.879 90.2059 203.35 87.7901C202.747 85.3915 201.684 83.1329 200.22 81.1401C197.318 77.2422 193.015 74.6246 188.22 73.8401C182.81 72.9701 177.86 74.6401 173.22 77.3001C168.93 79.7601 163.28 82.9301 163.16 88.5401C163.16 90.4701 166.16 90.4701 166.16 88.5401V88.5601Z" fill="black"/>
<path d="M192.05 128.3C189.39 129.17 186.05 131.92 183.18 130.63C180.95 129.63 179.6 127.15 177.84 125.55C176.895 124.637 175.767 123.934 174.53 123.49C172.763 123.086 170.952 122.911 169.14 122.97C165.97 122.78 161.97 121.86 160.64 118.55C159.92 116.78 157.02 117.55 157.74 119.35C159.17 122.88 162.41 124.93 166.08 125.61C168.16 126 170.24 125.89 172.33 126.1C173.814 126.265 175.184 126.979 176.17 128.1C178.17 130.1 179.78 132.62 182.56 133.6C186.29 134.91 189.48 132.3 192.85 131.2C194.68 130.6 193.9 127.7 192.05 128.3Z" fill="black"/>
</svg>
