<svg width="242" height="241" viewBox="0 0 242 241" fill="none" xmlns="http://www.w3.org/2000/svg">
<circle opacity="0.1" cx="121" cy="120.5" r="120.5" fill="#FAFAFA"/>
<path d="M108.743 135.411C108.743 135.411 109.876 148.096 104.945 154.3C104.945 154.3 113.892 164.38 124.38 169.52C124.38 169.52 142.583 162.322 152.146 147.51" stroke="black" stroke-width="2.25938" stroke-linecap="round" stroke-linejoin="round"/>
<path d="M90.5495 73.4676C90.5495 73.4676 89.6548 80.9534 89.2174 87.6239C88.9261 92.1798 88.2847 96.7065 87.2987 101.164C85.2111 110.648 83.9187 128.453 101.753 133.92C105.74 135.098 109.927 135.437 114.051 134.914C118.902 134.348 125.98 132.847 131.04 128.85" stroke="black" stroke-width="2.25938" stroke-linecap="round" stroke-linejoin="round"/>
<path d="M90.0524 77.9811C90.0524 77.9811 95.4008 76.1917 99.9936 78.4682C100.893 78.9143 101.649 79.6034 102.176 80.4574C102.703 81.3114 102.98 82.2961 102.976 83.2997V91.9386C102.976 95.0415 102.082 98.0786 100.401 100.687L98.751 103.202" stroke="black" stroke-width="2.25938" stroke-linecap="round" stroke-linejoin="round"/>
<path d="M108.583 79.8998C113.561 78.7281 118.784 79.1702 123.495 81.1623" stroke="black" stroke-width="2.25938" stroke-linecap="round" stroke-linejoin="round"/>
<path d="M98.3338 113.69C98.3338 113.69 106.515 113.272 115.125 106.731L106.694 107.019C106.456 107.025 106.223 107.088 106.014 107.202C105.805 107.316 105.626 107.478 105.492 107.675L104.497 109.077C104.291 109.396 103.97 109.625 103.601 109.718C103.232 109.81 102.842 109.759 102.509 109.574L102.111 109.365C101.924 109.268 101.718 109.212 101.508 109.2C101.297 109.187 101.086 109.219 100.889 109.293C100.691 109.367 100.511 109.481 100.36 109.629C100.21 109.777 100.092 109.955 100.014 110.151L99.4472 111.602" stroke="black" stroke-width="1.50625" stroke-linecap="round" stroke-linejoin="round"/>
<path d="M100.62 115.39C100.62 115.39 111.008 115.887 115.124 106.771" stroke="black" stroke-width="1.50625" stroke-linecap="round" stroke-linejoin="round"/>
<path d="M94.8145 93.3201C95.7478 93.3201 96.5045 91.6287 96.5045 89.5424C96.5045 87.456 95.7478 85.7647 94.8145 85.7647C93.8811 85.7647 93.1245 87.456 93.1245 89.5424C93.1245 91.6287 93.8811 93.3201 94.8145 93.3201Z" fill="black"/>
<path d="M111.416 93.3201C112.35 93.3201 113.106 91.6287 113.106 89.5424C113.106 87.456 112.35 85.7647 111.416 85.7647C110.483 85.7647 109.726 87.456 109.726 89.5424C109.726 91.6287 110.483 93.3201 111.416 93.3201Z" fill="black"/>
<path d="M144.491 98.7781H150.455C151.05 98.7768 151.64 98.8929 152.189 99.1196C152.739 99.3463 153.239 99.6793 153.66 100.099C154.081 100.52 154.415 101.019 154.643 101.568C154.871 102.118 154.989 102.707 154.989 103.301V103.301C154.989 103.897 154.871 104.486 154.644 105.036C154.416 105.586 154.082 106.086 153.661 106.507C153.24 106.928 152.74 107.262 152.19 107.49C151.64 107.717 151.051 107.835 150.455 107.835H148.129C147.092 107.845 146.092 108.225 145.311 108.907C144.529 109.588 144.016 110.527 143.864 111.553C142.87 117.517 141.379 129.556 142.87 138.782" stroke="black" stroke-width="2.25938" stroke-linecap="round" stroke-linejoin="round"/>
<path d="M148.626 98.778C148.626 98.778 148 54.7184 108.583 48.9226C102.496 50.9107 97.1318 54.6528 93.1642 59.679C93.1642 59.679 139.828 55.3347 143.288 98.778H148.626Z" stroke="black" stroke-width="1.50625" stroke-linecap="round" stroke-linejoin="round"/>
<path d="M143.238 98.778C136.279 100.766 136.369 91.4314 136.369 91.4314C126.07 91.0536 129.967 77.3148 129.967 77.3148C121.805 78.7662 119.916 69.4513 119.916 69.4513C111.635 73.0997 106.237 66.0017 106.237 66.0017C103.344 73.4675 94.8143 70.9723 94.8143 70.9723C88.6607 74.5014 83.0737 71.9068 82.8848 64.8485C82.6959 57.7902 93.164 59.679 93.164 59.679C93.164 59.679 139.262 54.8873 143.238 98.778Z" fill="black" stroke="black" stroke-width="0.753125" stroke-linecap="round" stroke-linejoin="round"/>
<path d="M88.3923 95.2588C88.3923 95.2588 79.2961 91.1531 77.0692 98.778C75.8266 103.013 77.0692 105.737 78.3516 107.318C78.7936 107.837 79.0237 108.504 78.9961 109.186C78.9684 109.867 78.6851 110.514 78.2025 110.996C76.5747 112.475 75.3623 114.354 74.6856 116.447C74.0089 118.54 73.8916 120.773 74.3453 122.925C75.4488 127.896 77.954 129.318 79.9621 129.616C80.1783 129.644 80.3829 129.73 80.5548 129.864C80.7267 129.998 80.8596 130.176 80.9397 130.379C81.0198 130.582 81.0442 130.802 81.0104 131.018C80.9766 131.233 80.8858 131.436 80.7475 131.604C79.3656 133.493 78.2125 136.276 80.7475 138.712C83.7895 141.615 87.5274 140.074 89.4958 138.881C89.6522 138.788 89.8272 138.731 90.0083 138.714C90.1893 138.697 90.3719 138.72 90.5429 138.782C90.7139 138.844 90.8692 138.943 90.9975 139.072C91.1258 139.2 91.2241 139.356 91.2852 139.527C92.0805 141.893 94.2676 146.009 99.8148 145.929C107.589 145.81 108.563 140.511 108.563 140.511V135.143C108.563 135.143 91.494 135.143 86.9608 118.73C86.9608 118.73 84.7041 113.143 87.2789 101.144L88.3923 95.2588Z" fill="black" stroke="black" stroke-width="0.753125" stroke-linecap="round" stroke-linejoin="round"/>
<path d="M104.696 50.3043C103.702 48.1172 102.708 45.6419 103.433 43.3454C104.159 41.049 107.569 39.6672 109.1 41.5361C109.895 40.077 111.044 38.8405 112.441 37.9399C113.837 37.0392 115.437 36.5031 117.095 36.3804C118.752 36.2578 120.414 36.5526 121.928 37.238C123.442 37.9233 124.76 38.9772 125.761 40.3034C126.08 40.708 126.542 40.9734 127.052 41.0439C127.562 41.1143 128.079 40.9843 128.495 40.6812C131.567 38.2456 135.822 37.4105 139.808 37.4801C141.635 37.4199 143.451 37.7912 145.107 38.5637C147.871 40.035 149.352 43.2062 149.879 46.298C150.265 48.3027 150.152 50.3715 149.551 52.3224C149.439 52.6466 149.403 52.992 149.445 53.3323C149.487 53.6726 149.606 53.9989 149.793 54.2864C149.979 54.5739 150.229 54.815 150.523 54.9915C150.817 55.1679 151.148 55.2751 151.489 55.3047C153.687 55.486 155.854 55.9367 157.941 56.6468C161.204 57.6975 163.933 59.9705 165.556 62.9893C166.143 64.1888 166.448 65.5064 166.448 66.8416C166.448 68.1768 166.143 69.4944 165.556 70.6938C165.457 70.8844 165.401 71.0951 165.394 71.31C165.387 71.525 165.428 71.7389 165.515 71.9356C165.602 72.1324 165.732 72.307 165.896 72.4466C166.06 72.5861 166.253 72.687 166.461 72.7417C168.801 73.5062 170.848 74.9763 172.32 76.9502C173.792 78.9241 174.617 81.3051 174.682 83.7665C174.732 88.8863 171.461 93.7078 166.968 96.1931C166.774 96.3025 166.604 96.4491 166.468 96.6246C166.332 96.8001 166.231 97.001 166.173 97.2155C166.115 97.43 166.1 97.654 166.129 97.8744C166.158 98.0948 166.23 98.3072 166.342 98.4995C167.778 100.782 168.739 103.332 169.165 105.995C169.553 109.256 168.35 112.954 165.477 114.525C166.937 115.134 168.183 116.165 169.054 117.486C169.926 118.807 170.383 120.358 170.368 121.941C170.229 126.067 166.888 129.208 163.011 130.958C162.324 131.26 161.751 131.772 161.372 132.42C160.994 133.068 160.83 133.819 160.904 134.566C161.391 138.931 159.83 144.03 153.06 145.333C148.249 146.257 142.015 142.251 142.125 137.38C142.125 137.38 142.214 112.318 145.107 109.097C145.107 109.097 145.823 107.854 148.149 107.854C148.149 107.854 154.362 109.176 155.009 103.321C155.009 103.321 155.923 99.8813 150.475 98.7977H148.626C148.626 98.7977 147.841 54.5393 108.583 48.9225L106.734 49.5587L104.696 50.3043Z" fill="black"/>
<path d="M105.989 49.5491C105.183 47.8591 103.951 45.2743 104.994 43.4352C105.561 42.4411 107.122 41.616 107.977 42.5902C108.14 42.7484 108.337 42.8676 108.553 42.9389C108.769 43.0103 108.999 43.032 109.224 43.0024C109.45 42.9727 109.666 42.8926 109.856 42.7678C110.046 42.6431 110.206 42.477 110.323 42.282C111.373 40.3841 113.106 38.957 115.171 38.2905C117.235 37.624 119.475 37.768 121.437 38.6932C122.383 39.1421 123.244 39.7509 123.982 40.4926C124.728 41.268 125.285 42.1329 126.388 42.4808C128.635 43.1071 130.235 41.1189 132.134 40.3137C134.319 39.4383 136.65 38.9863 139.003 38.9815C141.26 38.9815 143.736 39.1108 145.505 40.6616C147.014 42.1515 148.006 44.0848 148.338 46.179C148.593 47.3706 148.67 48.5934 148.567 49.8075C148.468 50.9806 147.871 52.104 147.941 53.287C148.08 55.5337 149.929 56.5974 151.917 56.836C154.462 57.0551 156.947 57.7285 159.254 58.8243C163.23 60.9119 166.282 65.2065 164.314 69.7596C163.399 71.8672 164.224 73.5274 166.362 74.273C168.205 74.9253 169.82 76.0955 171.014 77.643C172.269 79.2914 173.015 81.2704 173.16 83.3369C173.304 85.4034 172.842 87.4671 171.83 89.2743C170.73 91.3226 169.138 93.0649 167.197 94.3443C166.203 95.0204 165.129 95.5373 164.771 96.8297C164.413 98.122 165.02 99.1161 165.596 100.2C167.674 104.057 169.493 110.449 164.751 113.243C164.506 113.396 164.311 113.617 164.187 113.879C164.064 114.141 164.019 114.433 164.056 114.719C164.094 115.006 164.213 115.276 164.4 115.497C164.587 115.718 164.833 115.881 165.109 115.967C166.256 116.481 167.226 117.32 167.901 118.38C168.576 119.44 168.926 120.675 168.907 121.931C168.793 123.11 168.421 124.249 167.818 125.267C167.215 126.286 166.396 127.16 165.417 127.826C163.429 129.357 160.685 129.894 159.741 132.479C159.065 134.308 159.741 136.356 159.274 138.265C158.28 142.51 153.528 144.826 149.412 143.633C146.3 142.728 143.636 140.283 143.656 136.903C143.656 130.938 143.895 124.973 144.441 119.078C144.55 116.198 145.045 113.346 145.913 110.598C145.952 110.491 146.002 110.388 146.062 110.29C146.062 110.211 146.42 109.714 146.151 110.121C145.883 110.529 146.36 109.833 146.4 109.783C146.44 109.733 146.072 110.061 146.4 109.783C146.693 109.559 147.033 109.403 147.394 109.326C148.282 109.273 149.173 109.29 150.058 109.376C151.789 109.339 153.437 108.627 154.65 107.392C155.863 106.157 156.545 104.496 156.55 102.765C156.544 101.941 156.334 101.133 155.938 100.411C155.543 99.6891 154.974 99.0768 154.283 98.629C152.595 97.5721 150.613 97.081 148.627 97.2273L150.118 98.7185C149.887 92.6232 148.765 86.5946 146.788 80.8242C143.03 69.4415 135.991 58.9634 125.344 52.8993C121.7 50.8478 117.789 49.3121 113.723 48.3362C112.639 48.0678 111.546 47.8491 110.442 47.6503C109.552 47.3925 108.609 47.3719 107.708 47.5906C106.565 47.9883 105.432 48.4158 104.299 48.8532C102.529 49.5491 103.304 52.432 105.094 51.7361C105.969 51.3882 106.834 51.0403 107.718 50.742C108.06 50.6635 108.394 50.5503 108.712 50.404C108.793 50.3702 108.876 50.3435 108.961 50.3245C108.245 50.5333 108.623 50.3245 109.021 50.4338C110.015 50.6625 111.009 50.7818 112.003 51.0104C115.523 51.7678 118.934 52.967 122.153 54.5793C127.584 57.3586 132.313 61.3359 135.981 66.2106C141.807 73.9449 145.107 83.3891 146.549 92.9029C146.708 93.897 146.738 94.1157 146.857 95.2092C146.917 95.8256 146.976 96.4519 147.026 97.0682C147.076 97.6846 147.116 98.2016 147.126 98.7781C147.131 99.172 147.289 99.5483 147.568 99.8269C147.847 100.105 148.223 100.264 148.617 100.269C150.177 100.269 152.066 100.269 153.16 101.641C153.239 101.751 153.458 102.138 153.428 102.069C153.478 102.188 153.577 102.834 153.557 102.496C153.567 102.692 153.567 102.887 153.557 103.083C153.557 102.486 153.557 103.083 153.557 103.301C153.501 104.046 153.199 104.75 152.699 105.305C152.199 105.859 151.529 106.231 150.794 106.363C150.26 106.465 149.715 106.495 149.173 106.453L148.587 106.403C149.074 106.453 148.696 106.403 148.587 106.403C147.426 106.279 146.255 106.508 145.227 107.059C144.858 107.265 144.522 107.527 144.233 107.835C144.123 107.954 144.034 108.093 143.934 108.212C143.636 108.59 144.421 107.427 143.795 108.401C143.252 109.295 142.863 110.272 142.642 111.294C141.902 114.713 141.453 118.188 141.3 121.683C141.032 125.341 140.892 129.009 140.803 132.618C140.694 134.386 140.674 136.157 140.743 137.927C141.111 142.977 146.251 146.506 150.963 146.874C153.291 147.041 155.611 146.455 157.58 145.202C159.55 143.948 161.064 142.095 161.898 139.915C162.263 138.841 162.468 137.719 162.505 136.585C162.564 135.501 162.137 134.109 162.703 133.155C163.37 132.022 165.268 131.535 166.352 130.809C167.59 129.987 168.696 128.981 169.632 127.826C170.581 126.685 171.246 125.335 171.574 123.888C171.902 122.441 171.883 120.937 171.52 119.498C171.157 118.059 170.459 116.726 169.483 115.608C168.507 114.49 167.281 113.618 165.905 113.064L166.262 115.788C170.358 113.382 171.422 108.262 170.338 103.918C170.022 102.699 169.589 101.514 169.046 100.379C168.807 99.8617 168.549 99.3846 168.29 98.8477C168.032 98.3109 167.465 97.8536 167.923 97.3665C168.363 97.033 168.828 96.7339 169.314 96.4718C169.712 96.1835 170.11 95.8753 170.487 95.5572C171.429 94.7652 172.276 93.8679 173.013 92.883C174.443 91.1106 175.425 89.02 175.877 86.7879C176.328 84.5557 176.236 82.2477 175.607 80.0588C174.932 77.9536 173.767 76.0388 172.207 74.4718C171.459 73.7104 170.621 73.0427 169.712 72.4835C169.206 72.1791 168.677 71.9132 168.131 71.6882C167.873 71.5789 166.948 71.4198 166.829 71.221C167.037 70.8696 167.214 70.5003 167.356 70.1175C167.561 69.5575 167.708 68.9779 167.793 68.3877C167.991 67.0645 167.941 65.7159 167.644 64.4112C167.08 62.0958 165.812 60.012 164.016 58.4465C162.244 56.8842 160.17 55.7032 157.922 54.977C156.666 54.565 155.38 54.2558 154.074 54.0525C153.259 53.9232 151.201 54.1121 150.923 53.108C150.824 52.7104 151.132 52.2034 151.221 51.8256C151.385 51.1327 151.495 50.4281 151.549 49.7181C151.637 48.3573 151.55 46.9908 151.291 45.6521C150.911 43.4124 149.982 41.3017 148.587 39.5084C145.276 35.4226 139.332 35.4424 134.59 36.367C133.281 36.6219 132.005 37.0186 130.782 37.55C130.121 37.8375 129.48 38.1696 128.863 38.5441C128.525 38.7628 127.869 39.4885 127.422 39.5382C126.975 39.5879 126.617 38.9318 126.328 38.6137C125.9 38.1425 125.431 37.71 124.927 37.3213C123.87 36.4915 122.684 35.84 121.417 35.3927C118.882 34.5831 116.146 34.6719 113.669 35.6443C111.191 36.6167 109.125 38.4132 107.818 40.7312L110.164 40.4329C108.176 38.2757 104.776 39.0511 103.016 41.099C100.541 43.982 102.022 48.0579 103.414 51.0403C104.239 52.7899 106.804 51.2789 105.989 49.5491Z" fill="black"/>
<path d="M106.495 150.065L82.1492 162.989C75.905 166.293 70.3815 170.807 65.9011 176.269C61.4206 181.731 58.0729 188.031 56.0534 194.801L51.4805 209.971" stroke="black" stroke-width="2.25938" stroke-linecap="round" stroke-linejoin="round"/>
<path d="M204.089 213.351L201.743 197.048C200.688 189.718 197.946 182.734 193.731 176.646C189.517 170.558 183.945 165.532 177.456 161.965L152.146 147.5C158.955 151.904 159.602 157.243 158.269 161.756C157.098 165.695 154.679 169.147 151.377 171.592C148.074 174.038 144.067 175.344 139.958 175.316C131.1 175.207 124.38 169.51 124.38 169.51C124.38 169.51 108.016 182.663 95.1027 169.51C95.1027 169.51 87.2591 159.569 103.573 151.616" stroke="black" stroke-width="2.25938" stroke-linecap="round" stroke-linejoin="round"/>
<path d="M124.38 169.52V195.844" stroke="black" stroke-width="2.25938" stroke-linecap="round" stroke-linejoin="round"/>
<path d="M170.557 190.983V213.351" stroke="black" stroke-width="2.25938" stroke-linecap="round" stroke-linejoin="round"/>
<path d="M78.9879 190.983V213.351" stroke="black" stroke-width="2.25938" stroke-linecap="round" stroke-linejoin="round"/>
<path d="M64.5927 125.534L42.1127 128.104L44.6819 150.584L67.1619 148.014L64.5927 125.534Z" stroke="black" stroke-width="2.25938" stroke-linecap="round" stroke-linejoin="round"/>
<path d="M54.1549 149.498L55.2982 159.549L32.821 162.113L30.2562 139.636L43.2593 138.145" stroke="black" stroke-width="2.25938" stroke-linecap="round" stroke-linejoin="round"/>
<path d="M48.9453 141.704C48.5775 140.004 49.9991 138.454 51.0429 137.3C51.2069 137.146 51.3629 136.984 51.5102 136.813L51.033 136.913L51.1423 136.972C51.1423 137.121 51.6195 137.4 51.7289 137.489L52.2359 137.957C53.0709 138.702 53.8861 139.448 54.7212 140.183C55.0617 140.583 55.5303 140.852 56.047 140.944C56.5637 141.037 57.0965 140.947 57.5544 140.69C57.9649 140.394 58.3044 140.01 58.5486 139.567C58.6857 139.268 58.8594 138.988 59.0655 138.732C59.2842 138.543 59.4035 138.623 59.7614 138.623C60.221 138.645 60.6812 138.591 61.1234 138.464C61.6116 138.313 62.0424 138.017 62.3585 137.616C62.6746 137.215 62.861 136.727 62.8929 136.217C62.8929 135.821 62.7358 135.442 62.4561 135.162C62.1765 134.883 61.7972 134.726 61.4017 134.726C61.0094 134.736 60.6359 134.896 60.3584 135.174C60.0809 135.451 59.9206 135.824 59.9105 136.217C59.8509 136.783 60.0298 135.451 60.2386 135.64C60.169 135.571 59.662 135.64 59.5228 135.64C58.8571 135.607 58.1955 135.762 57.6141 136.088C57.1192 136.397 56.6983 136.811 56.3814 137.3L56.0235 137.897C55.6656 138.503 55.8545 137.966 56.2919 138.016L57.0474 138.225C56.4957 137.873 55.994 137.449 55.5563 136.962L53.6972 135.292C53.1734 134.727 52.5225 134.294 51.7985 134.03C51.3707 133.929 50.9244 133.937 50.5006 134.053C50.0768 134.17 49.689 134.391 49.3728 134.696C47.2255 136.684 45.3963 139.527 46.0425 142.5C46.1516 142.877 46.4037 143.198 46.7453 143.393C47.0868 143.588 47.4909 143.642 47.8717 143.544C48.2502 143.432 48.5707 143.178 48.7655 142.835C48.9603 142.492 49.014 142.086 48.9155 141.704H48.9453Z" fill="black"/>
<path d="M207.44 64.1115L185.266 59.5862L180.741 81.76L202.915 86.2853L207.44 64.1115Z" stroke="black" stroke-width="2.25983" stroke-linecap="round" stroke-linejoin="round"/>
<path d="M83.8628 31.502L61.3829 34.0712L63.9521 56.5511L86.432 53.9819L83.8628 31.502Z" stroke="black" stroke-width="2.25938" stroke-linecap="round" stroke-linejoin="round"/>
<path d="M55.1154 81.6318L32.6354 84.201L35.2047 106.681L57.6846 104.112L55.1154 81.6318Z" stroke="black" stroke-width="2.25938" stroke-linecap="round" stroke-linejoin="round"/>
<path d="M187.169 75.1479C187.348 73.5275 189.157 72.5035 190.38 71.7877C190.38 71.7877 191.086 71.41 191.076 71.4C190.917 71.2807 190.787 71.2608 190.678 71.3404C190.569 71.4199 190.678 71.3404 190.678 71.3404C190.678 71.3404 191.255 72.3345 191.324 72.4439L193.014 75.4262C193.541 76.3607 194.227 77.1958 195.43 77.0168C196.424 76.8677 196.832 76.0724 197.627 75.635C198.084 75.3865 198.979 75.9531 199.615 75.973C200.098 76.0182 200.583 75.9208 201.011 75.6928C201.438 75.4649 201.79 75.1164 202.021 74.6906C202.193 74.3513 202.233 73.9606 202.134 73.5936C202.034 73.2266 201.803 72.9091 201.484 72.7023C201.142 72.5062 200.736 72.4525 200.355 72.553C199.974 72.6534 199.647 72.8999 199.446 73.2392C199.267 73.607 199.735 72.9807 199.735 73.0503L199.059 72.8216C198.514 72.6273 197.93 72.5693 197.359 72.6526C196.831 72.7456 196.333 72.9638 195.907 73.2889C195.688 73.4479 195.48 73.6269 195.281 73.7959C195.082 73.9649 194.754 74.104 195.052 74.104L195.798 74.3128C195.917 74.3128 196.007 74.6409 195.798 74.3128C195.589 73.9848 195.599 73.9649 195.5 73.7959L194.843 72.6427C194.426 71.917 194.018 71.1913 193.601 70.4755C192.766 69.034 191.523 67.9703 189.803 68.7457C187.089 69.9585 184.505 72.0661 184.167 75.1777C184.169 75.5724 184.327 75.9502 184.606 76.2293C184.885 76.5083 185.263 76.6663 185.658 76.6689C186.05 76.6588 186.423 76.4985 186.701 76.221C186.978 75.9435 187.139 75.57 187.149 75.1777L187.169 75.1479Z" fill="black"/>
<path d="M38.8052 154.032C38.8052 153.883 38.8052 153.734 38.8549 153.594C38.9046 153.455 38.8549 153.336 38.8549 153.495C38.8549 153.654 38.8549 153.405 38.8549 153.405C38.9046 153.087 38.9643 152.769 39.0239 152.411C39.16 151.784 39.3359 151.167 39.5508 150.562C39.5916 150.42 39.6414 150.281 39.6999 150.145C39.7204 150.076 39.747 150.01 39.7794 149.946V149.847C39.7198 149.976 39.7794 149.757 39.7794 149.747L39.8689 149.548C39.9385 149.389 40.018 149.24 40.0876 149.081L40.2964 148.683C40.3287 148.641 40.3554 148.594 40.3759 148.544V148.495L39.8192 148.922H39.4514C39.3807 148.95 39.3034 148.956 39.2292 148.94C39.155 148.924 39.087 148.887 39.0339 148.833C39.0339 148.833 38.9643 148.763 39.0339 148.833C39.1034 148.902 39.173 149.011 39.0836 148.833C38.9941 148.654 39.0836 148.932 39.1432 148.952C39.2923 149.21 39.4315 149.479 39.5707 149.747C39.7099 150.016 39.6999 150.016 39.7596 150.155C39.8192 150.294 39.9584 150.612 39.8789 150.423C40.1274 151.02 40.2865 151.636 40.5052 152.242C41.0519 153.753 42.3045 155.086 44.0542 154.728C44.4832 154.657 44.8915 154.492 45.2504 154.247C45.6093 154.001 45.9102 153.68 46.1319 153.306C46.3088 152.959 46.4616 152.6 46.5892 152.232C46.5892 152.143 46.788 151.785 46.6687 152.004C46.7531 151.841 46.8494 151.685 46.957 151.537C47.1537 151.193 47.2076 150.786 47.1072 150.403C47.0068 150.02 46.7601 149.692 46.4202 149.489C46.0764 149.3 45.6733 149.251 45.2942 149.351C44.915 149.45 44.5886 149.692 44.3822 150.025C44.1674 150.333 43.9936 150.667 43.8653 151.02L43.7162 151.407C43.7162 151.467 43.6665 151.537 43.6367 151.606C43.6068 151.676 43.5671 151.745 43.6367 151.606L43.4577 151.924C43.4577 151.924 43.6466 151.676 43.4577 151.924C43.4577 151.924 43.2887 152.083 43.4577 151.924C43.6267 151.765 43.4577 151.924 43.4577 151.924C43.5324 151.907 43.6055 151.884 43.6764 151.855C43.8057 151.795 43.7361 151.855 43.6764 151.855C43.7261 151.855 43.9548 151.855 43.9747 151.934C43.9945 152.014 43.6367 151.666 43.8752 151.934C43.6864 151.765 43.8752 151.934 43.8752 151.934L43.7659 151.745C43.7269 151.686 43.6936 151.622 43.6665 151.556C43.6665 151.556 43.7261 151.745 43.6665 151.556L43.5074 151.079C43.2887 150.383 43.0402 149.707 42.7519 149.031C42.1852 147.739 41.3999 145.989 39.7695 145.979C39.3253 146.019 38.9017 146.185 38.5491 146.458C38.1966 146.731 37.9301 147.1 37.7813 147.52C37.4543 148.166 37.1655 148.829 36.9164 149.509C36.3917 150.957 36.0575 152.467 35.9222 154.002C35.9248 154.397 36.0828 154.774 36.3619 155.054C36.641 155.333 37.0187 155.491 37.4134 155.493C37.8057 155.483 38.1792 155.323 38.4567 155.045C38.7342 154.768 38.8946 154.394 38.9046 154.002L38.8052 154.032Z" fill="black"/>
<path d="M44.6811 150.582L38.4081 138.702L43.2595 138.145L44.6811 150.582Z" fill="black" stroke="black" stroke-width="2.25938" stroke-linecap="round" stroke-linejoin="round"/>
<path d="M178.204 141.718L200.684 144.287L203.253 121.807L180.773 119.238L178.204 141.718Z" stroke="black" stroke-width="2.25938" stroke-linecap="round" stroke-linejoin="round"/>
<path d="M191.224 143.196L190.081 153.236L212.558 155.811L215.123 133.334L202.11 131.843" stroke="black" stroke-width="2.25938" stroke-linecap="round" stroke-linejoin="round"/>
<path d="M199.307 136.197C199.943 133.215 198.124 130.322 195.976 128.393C195.674 128.1 195.306 127.885 194.902 127.765C194.499 127.646 194.073 127.626 193.66 127.707C192.932 127.93 192.275 128.338 191.751 128.89L189.892 130.56C189.426 131.081 188.891 131.536 188.302 131.912L189.057 131.713C189.495 131.713 189.683 132.191 189.316 131.584C189.216 131.415 189.127 131.246 189.017 131.077C188.714 130.555 188.291 130.113 187.785 129.785C187.238 129.47 186.616 129.312 185.985 129.327C185.711 129.293 185.434 129.293 185.16 129.327C185.369 129.139 185.548 130.481 185.488 129.904C185.476 129.513 185.315 129.14 185.038 128.863C184.761 128.586 184.389 128.425 183.997 128.413C183.602 128.413 183.222 128.57 182.943 128.85C182.663 129.129 182.506 129.509 182.506 129.904C182.536 130.414 182.722 130.903 183.039 131.305C183.355 131.706 183.786 132.002 184.275 132.151C184.717 132.282 185.177 132.339 185.637 132.32C185.965 132.32 186.124 132.25 186.333 132.419C186.54 132.678 186.714 132.962 186.85 133.264C187.063 133.643 187.343 133.979 187.675 134.258C188.669 135.054 189.793 134.636 190.658 133.871L193.034 131.743C193.477 131.436 193.881 131.075 194.237 130.67H194.326C194.485 130.57 194.326 130.53 193.869 130.55C194.008 130.724 194.161 130.887 194.326 131.037C195.38 132.2 196.801 133.741 196.434 135.451C196.341 135.828 196.399 136.226 196.595 136.56C196.791 136.895 197.11 137.14 197.484 137.244C197.858 137.347 198.257 137.301 198.597 137.115C198.938 136.929 199.192 136.617 199.307 136.247V136.197Z" fill="black"/>
<path d="M209.556 147.729C209.443 146.377 209.176 145.043 208.761 143.752C208.527 143.076 208.258 142.412 207.956 141.764C207.721 141.066 207.277 140.459 206.683 140.024C206.255 139.806 205.768 139.734 205.295 139.82C204.822 139.906 204.391 140.146 204.069 140.501C203.606 141.027 203.233 141.624 202.965 142.271C202.635 142.951 202.35 143.652 202.11 144.368C202.021 144.647 201.941 144.925 201.852 145.204C201.852 145.273 201.802 145.343 201.772 145.402C201.742 145.462 201.872 145.243 201.772 145.402L201.663 145.591C201.534 145.84 201.722 145.591 201.663 145.591C201.603 145.591 201.663 145.591 201.732 145.591C201.802 145.591 201.524 145.691 201.524 145.72C201.524 145.75 201.703 145.661 201.732 145.651C201.762 145.641 201.842 145.651 201.732 145.651C201.623 145.651 201.653 145.651 201.732 145.651L201.951 145.72C201.792 145.661 201.891 145.651 201.951 145.72L201.792 145.542C201.872 145.651 201.881 145.681 201.792 145.542C201.774 145.485 201.747 145.431 201.712 145.382C201.593 145.213 201.782 145.591 201.712 145.382C201.643 145.174 201.603 145.074 201.543 144.925C201.401 144.496 201.2 144.088 200.947 143.712C200.852 143.536 200.723 143.38 200.567 143.254C200.411 143.129 200.231 143.036 200.038 142.981C199.846 142.927 199.644 142.912 199.445 142.937C199.246 142.962 199.054 143.027 198.881 143.128C198.708 143.229 198.557 143.364 198.437 143.524C198.318 143.685 198.231 143.868 198.184 144.063C198.136 144.257 198.128 144.459 198.161 144.657C198.193 144.855 198.265 145.044 198.372 145.213C198.452 145.323 198.521 145.442 198.591 145.561C198.661 145.681 198.591 145.462 198.67 145.711C198.75 145.959 198.929 146.426 199.088 146.774C199.374 147.411 199.859 147.938 200.47 148.275C200.826 148.438 201.212 148.527 201.604 148.537C201.996 148.547 202.385 148.477 202.749 148.332C203.114 148.187 203.445 147.97 203.723 147.694C204.001 147.418 204.22 147.088 204.367 146.725C204.655 146.088 204.834 145.422 205.063 144.736C205.122 144.567 205.182 144.408 205.252 144.239C205.321 144.07 205.252 144.239 205.252 144.239L205.341 144.03C205.48 143.742 205.619 143.444 205.778 143.156L205.987 142.758C206.047 142.669 206.226 142.44 206.047 142.629L206.176 142.49C206.295 142.36 206.176 142.49 206.116 142.49H205.759C205.65 142.552 205.522 142.569 205.401 142.537C205.28 142.505 205.177 142.428 205.112 142.321C204.635 141.963 204.844 142.082 204.914 142.251C204.983 142.42 205.182 142.768 205.311 143.026L205.49 143.434C205.56 143.593 205.49 143.434 205.49 143.434C205.49 143.434 205.56 143.623 205.6 143.712C205.853 144.38 206.062 145.065 206.226 145.76C206.305 146.098 206.375 146.436 206.425 146.754C206.425 146.834 206.494 147.261 206.474 147.013L206.534 147.609C206.534 148.005 206.691 148.384 206.971 148.664C207.25 148.943 207.63 149.1 208.025 149.1C208.421 149.1 208.8 148.943 209.08 148.664C209.359 148.384 209.516 148.005 209.516 147.609L209.556 147.729Z" fill="black"/>
<path d="M200.688 144.279L206.971 132.4L202.11 131.843L200.688 144.279Z" fill="black" stroke="black" stroke-width="2.25938" stroke-linecap="round" stroke-linejoin="round"/>
<path d="M207.101 64.7691V81.878L203.134 83.8066L207.101 64.7691Z" fill="black" stroke="black" stroke-width="2.25938" stroke-linecap="round" stroke-linejoin="round"/>
<path d="M67.973 46.3279C67.8063 45.3983 67.8464 44.4435 68.0904 43.5311C68.3344 42.6188 68.7763 41.7714 69.3847 41.0491C69.4344 40.9894 69.9613 40.5023 69.9613 40.4924C69.9613 40.4824 69.4542 40.6117 69.6034 40.4327C69.7525 40.2538 70.0905 41.2081 70.1303 41.3274C70.5979 42.5877 70.9864 43.8759 71.2934 45.1846C71.8103 47.322 72.208 50.712 75.2102 50.4734C76.5622 50.364 77.3078 49.3103 78.0037 48.2863C78.3417 47.7793 78.6897 47.2922 79.0575 46.7951C79.2364 46.5565 79.4154 46.3279 79.6043 46.0992L79.9622 45.6618C80.2206 45.4232 80.2107 45.3835 79.9622 45.5525H79.1669L79.3359 45.6022L78.6797 45.2145C79.3464 45.8515 79.9429 46.558 80.4592 47.322C80.7418 47.5995 81.122 47.7549 81.518 47.7549C81.914 47.7549 82.2941 47.5995 82.5767 47.322C82.8466 47.0376 82.9971 46.6604 82.9971 46.2682C82.9971 45.8761 82.8466 45.4989 82.5767 45.2145C81.9007 44.3893 81.1352 42.9976 80.0516 42.6993C78.5604 42.2917 77.6558 43.8128 76.8903 44.8069C76.5026 45.3039 76.1248 45.801 75.7669 46.3179C75.5425 46.7696 75.2472 47.1825 74.8921 47.5407C75.1009 47.3916 75.0114 47.6302 74.8921 47.3518C74.7629 46.8747 74.6038 46.4174 74.5044 45.9302C74.236 44.6677 73.9278 43.4151 73.5699 42.1724C73.318 41.0182 72.8708 39.9155 72.2477 38.9117C71.9318 38.4085 71.468 38.0151 70.9199 37.7856C70.3718 37.556 69.7661 37.5014 69.1858 37.6293C68.0405 38.0754 67.085 38.9044 66.4818 39.9754C65.79 41.0199 65.3117 42.191 65.0745 43.4211C64.8373 44.6513 64.846 45.9163 65.1 47.1431C65.1475 47.3369 65.2334 47.5192 65.3527 47.6792C65.4719 47.8392 65.6221 47.9736 65.7942 48.0745C65.9664 48.1754 66.157 48.2407 66.3549 48.2666C66.5527 48.2925 66.7538 48.2784 66.9461 48.2251C67.1384 48.1719 67.3181 48.0806 67.4745 47.9567C67.6309 47.8327 67.7608 47.6787 67.8565 47.5036C67.9523 47.3285 68.0119 47.136 68.032 46.9375C68.052 46.739 68.0319 46.5384 67.973 46.3478V46.3279Z" fill="black"/>
<path d="M32.6514 84.204L31.6771 101.989L34.7589 102.695L32.6514 84.204Z" fill="black" stroke="black" stroke-width="2.25938" stroke-linecap="round" stroke-linejoin="round"/>
<path d="M38.4177 91.3519L50.8542 90.2982" stroke="black" stroke-width="2.25938" stroke-linecap="round" stroke-linejoin="round"/>
<path d="M38.9546 95.9942L47.2754 95.2883" stroke="black" stroke-width="2.25938" stroke-linecap="round" stroke-linejoin="round"/>
</svg>
