<svg width="242" height="241" viewBox="0 0 242 241" fill="none" xmlns="http://www.w3.org/2000/svg">
<circle opacity="0.1" cx="121" cy="120.5" r="120.5" fill="#FAFAFA"/>
<path d="M51.64 84.4302C65.1323 84.4302 76.07 73.4925 76.07 60.0002C76.07 46.5079 65.1323 35.5702 51.64 35.5702C38.1477 35.5702 27.21 46.5079 27.21 60.0002C27.21 73.4925 38.1477 84.4302 51.64 84.4302Z" stroke="black" stroke-width="3" stroke-linecap="round" stroke-linejoin="round"/>
<path d="M32.4898 44.84C32.4898 44.84 43.6498 42.14 43.4898 48.23C43.3298 54.32 39.9998 60.39 40.8098 60C41.6198 59.61 44.8698 62.09 42.6298 65.22C40.3898 68.35 38.7798 71.22 44.4598 74.63C50.1398 78.04 45.8398 83.73 45.8398 83.73" stroke="black" stroke-width="3" stroke-linecap="round" stroke-linejoin="round"/>
<path d="M67.1599 41.1301C67.1599 41.1301 58.08 42.4301 54.4 47.9201C54.0927 48.3732 53.8977 48.8929 53.831 49.4362C53.7643 49.9796 53.8278 50.531 54.0164 51.0449C54.205 51.5589 54.5131 52.0205 54.9154 52.3918C55.3177 52.7631 55.8026 53.0333 56.33 53.1801C58.7562 53.786 61.2795 53.8982 63.7499 53.5101C71.6699 52.5101 62.3299 60.2101 65.7499 61.2301C69.1699 62.2501 72.2499 60.6201 72.2499 63.0601C72.2499 65.5001 74.1599 69.3901 74.1599 69.3901" stroke="black" stroke-width="3" stroke-linecap="round" stroke-linejoin="round"/>
<path d="M40.0002 38.55C40.0002 38.55 46.5502 42.5 56.9002 36.13" stroke="black" stroke-width="3" stroke-linecap="round" stroke-linejoin="round"/>
<path d="M55.0001 83.7301C55.0001 83.7301 57.4001 79.0701 68.5801 77.5601" stroke="black" stroke-width="3" stroke-linecap="round" stroke-linejoin="round"/>
<path d="M94.3598 134.77C92.3598 135.12 90.3598 135.45 88.4398 135.77" stroke="black" stroke-width="3" stroke-linecap="round" stroke-linejoin="round"/>
<path d="M75.5499 137.42C53.6099 139.69 38.5499 137.95 36.9199 131.87C34.9199 124.41 53.6399 112.47 82.3599 101.57" stroke="black" stroke-width="3" stroke-linecap="round" stroke-linejoin="round" stroke-dasharray="13 13"/>
<path d="M88.4501 99.33C90.3101 98.66 92.2001 98.01 94.1201 97.33" stroke="black" stroke-width="3" stroke-linecap="round" stroke-linejoin="round"/>
<path d="M159.55 81.41C161.55 81.1033 163.53 80.82 165.49 80.56" stroke="black" stroke-width="3" stroke-linecap="round" stroke-linejoin="round"/>
<path d="M176.68 79.35C196.23 77.75 209.41 79.64 210.93 85.35C212.74 92.09 197.64 102.48 173.54 112.46" stroke="black" stroke-width="3" stroke-linecap="round" stroke-linejoin="round" stroke-dasharray="11.26 11.26"/>
<path d="M168.32 114.52C166.493 115.24 164.623 115.95 162.71 116.65" stroke="black" stroke-width="3" stroke-linecap="round" stroke-linejoin="round"/>
<path d="M46.3001 215.46L53.0701 193.46C57.7878 178.215 67.7449 165.131 81.1801 156.52C92.4601 149.26 105.83 138.92 113.93 126.67" stroke="black" stroke-width="3" stroke-linecap="round" stroke-linejoin="round"/>
<path d="M96.77 60.0001C96.77 60.0001 94.5 73.6001 95 83.4001C95.1836 87.0697 95.0732 90.7481 94.67 94.4001C93.72 102.74 93.79 117.82 105.27 123.96C108.095 125.427 111.24 126.17 114.423 126.125C117.606 126.08 120.728 125.247 123.51 123.7L133.62 118.22" stroke="black" stroke-width="3" stroke-linecap="round" stroke-linejoin="round"/>
<path d="M108.41 133.92C108.41 133.92 126.95 130.67 133.58 118.25C133.58 118.25 123.41 125 113.27 127.69L108.41 133.92Z" fill="black" stroke="black" stroke-width="3" stroke-linecap="round" stroke-linejoin="round"/>
<path d="M95.6301 68.59C95.6301 68.59 111.63 67.99 110.32 78.4C109.43 85.328 108.175 92.2043 106.56 99H110.39" stroke="black" stroke-width="3" stroke-linecap="round" stroke-linejoin="round"/>
<path d="M117.122 80.3504C117.122 80.3504 123.982 80.1904 126.892 84.3504" stroke="black" stroke-width="3" stroke-linecap="round" stroke-linejoin="round"/>
<path d="M117.5 83C117.982 82.4327 118.585 81.9815 119.266 81.6802C119.946 81.3789 120.686 81.2353 121.43 81.26" stroke="black" stroke-width="3" stroke-linecap="round" stroke-linejoin="round"/>
<path d="M98.1301 80.64C98.1301 80.64 103.54 80.51 105.85 83.81" stroke="black" stroke-width="3" stroke-linecap="round" stroke-linejoin="round"/>
<path d="M98.5603 82.5099C98.9407 82.0599 99.4182 81.7019 99.9569 81.4629C100.496 81.2239 101.081 81.11 101.67 81.1299" stroke="black" stroke-width="3" stroke-linecap="round" stroke-linejoin="round"/>
<path d="M115.82 105.48C115.82 105.48 123.04 105.87 126.72 97.9001" stroke="black" stroke-width="3" stroke-linecap="round" stroke-linejoin="round"/>
<path d="M115.22 71.9401C115.22 71.9401 120.63 70.5601 125.22 71.9401" stroke="black" stroke-width="3" stroke-linecap="round" stroke-linejoin="round"/>
<path d="M86.1598 73.8401C85.3798 73.0901 84.6798 72.3801 84.0998 71.7701C83.5676 71.216 83.1734 70.5442 82.9493 69.8093C82.7252 69.0744 82.6774 68.297 82.8098 67.5401C88.6298 34.5901 116.38 31.6501 126.72 31.6501C129.767 31.6283 132.776 32.3369 135.494 33.7166C138.211 35.0963 140.559 37.1069 142.34 39.5801H147.85C163.48 42.6601 169.85 81.8601 168.99 97.9001C168.13 113.94 170.09 125.47 180.88 142.9C191.67 160.33 197.18 191.58 197.18 191.58C197.18 191.58 195.42 194 181.32 183C167.22 172 150.49 173.31 140.14 159.87C129.79 146.43 141.46 134.54 143.22 126.12C144.98 117.7 137.94 111.64 141.46 96.6601C143.55 87.7701 139.51 83.3001 135.88 81.1401C132.483 79.1933 129.526 76.5639 127.196 73.4178C124.866 70.2716 123.212 66.6769 122.34 62.8601C121.443 58.5344 120.994 54.1278 121 49.7101C116.629 53.1342 111.375 55.2462 105.85 55.8001C96.3998 56.8001 96.5398 61.4301 96.5398 61.4301L94.9398 78.1701C91.6384 77.6612 88.5733 76.1496 86.1598 73.8401Z" fill="black" stroke="black" stroke-width="3" stroke-linecap="round" stroke-linejoin="round"/>
<path d="M94.6301 94.4301C94.6301 94.4301 89.6901 115.07 87.6901 131C85.6901 146.93 68.6301 151.1 68.1801 167.42C68.1801 167.42 73.7401 160.13 81.1801 156.56C88.6201 152.99 107.91 136.49 113.93 126.71C113.93 126.71 90.3901 126.23 94.6301 94.4301Z" fill="black" stroke="black" stroke-width="3" stroke-linecap="round" stroke-linejoin="round"/>
<path d="M91.0602 148.09C91.0602 148.09 91.4802 175.16 117.5 177.24C143.52 179.32 153.5 164.75 153.5 164.75" stroke="black" stroke-width="3" stroke-linecap="round" stroke-linejoin="round"/>
<path d="M189.36 161.62C189.36 161.62 199.74 191.53 201.31 215.46" stroke="black" stroke-width="3" stroke-linecap="round" stroke-linejoin="round"/>
<path d="M80.1202 183.45C80.1202 183.45 64.9802 200.74 68.1802 215.45" stroke="black" stroke-width="3" stroke-linecap="round" stroke-linejoin="round"/>
<path d="M213.463 110.433C200.62 110.433 190.213 120.839 190.213 133.683C190.213 146.527 200.62 156.933 213.463 156.933C226.307 156.933 236.713 146.527 236.713 133.683C236.713 120.839 226.307 110.433 213.463 110.433ZM213.463 153.933C202.213 153.933 193.213 144.933 193.213 133.683C193.213 122.527 202.213 113.433 213.463 113.433C224.62 113.433 233.713 122.527 233.713 133.683C233.713 144.933 224.62 153.933 213.463 153.933ZM217.213 133.214L210.463 131.339C209.338 131.058 208.495 130.027 208.495 128.808C208.495 127.402 209.713 126.183 211.213 126.183H215.432C216.463 126.183 217.495 126.558 218.245 127.214C218.62 127.402 218.995 127.402 219.276 127.12L220.307 125.995C220.588 125.714 220.588 125.152 220.213 124.87C218.901 123.839 217.213 123.183 215.432 123.183H214.963V119.433C214.963 119.058 214.588 118.683 214.213 118.683H212.713C212.245 118.683 211.963 119.058 211.963 119.433V123.183H211.213C208.026 123.183 205.495 125.714 205.495 128.808C205.495 131.339 207.182 133.495 209.62 134.245L216.37 136.12C217.495 136.402 218.338 137.433 218.338 138.652C218.338 140.058 217.12 141.183 215.62 141.183H211.401C210.37 141.183 209.338 140.902 208.588 140.245C208.213 140.058 207.838 140.058 207.557 140.339L206.526 141.464C206.245 141.745 206.245 142.308 206.62 142.589C207.932 143.62 209.62 144.183 211.401 144.183H211.963V147.933C211.963 148.402 212.245 148.683 212.713 148.683H214.213C214.588 148.683 214.963 148.402 214.963 147.933V144.183H215.62C218.807 144.183 221.338 141.745 221.338 138.652C221.338 136.12 219.651 133.87 217.213 133.214Z" fill="black"/>
</svg>
