<svg width="300" height="242" viewBox="0 0 300 242" fill="none" xmlns="http://www.w3.org/2000/svg">
<circle opacity="0.1" cx="154" cy="121" r="120.5" fill="#FAFAFA"/>
<g clip-path="url(#clip0)">
<path d="M121.54 117.32C121.54 117.32 89.7802 113.12 101.23 173.24H29.7102C29.7102 173.24 25.9102 117.67 49.1802 117.32H121.54Z" stroke="black" stroke-width="3" stroke-linecap="round" stroke-linejoin="round"/>
<path d="M121.541 117.32L158.351 202.57" stroke="black" stroke-width="3" stroke-linecap="round" stroke-linejoin="round"/>
<path d="M62.2702 173.24L75.5103 214" stroke="black" stroke-width="3" stroke-linecap="round" stroke-linejoin="round"/>
<path d="M116.78 127.94L148.22 199.22" stroke="black" stroke-width="3" stroke-linecap="round" stroke-linejoin="round"/>
<path d="M60.88 117.32L72.16 131.32C73.0708 132.438 74.3756 133.165 75.8059 133.351C77.2362 133.537 78.6834 133.168 79.85 132.32L100.71 117.27" stroke="black" stroke-width="3" stroke-linecap="round" stroke-linejoin="round"/>
<path d="M148.22 162.18C148.22 162.18 153.38 151.94 160.08 155.88C166.78 159.82 175.83 175.18 175.83 175.18C175.83 175.18 174.06 183.84 164.21 190.73" stroke="black" stroke-width="3" stroke-linecap="round" stroke-linejoin="round"/>
<path d="M156.31 159.94C156.31 159.94 152.07 167.39 151.73 175.54" stroke="black" stroke-width="3" stroke-linecap="round" stroke-linejoin="round"/>
<path d="M157.87 155L170.74 127C170.839 126.787 170.979 126.597 171.152 126.439C171.325 126.281 171.527 126.159 171.748 126.08C171.968 126.001 172.202 125.966 172.436 125.978C172.67 125.99 172.899 126.049 173.11 126.15C173.519 126.344 173.838 126.688 174 127.11C174.162 127.533 174.155 128.002 173.98 128.42L162 157.28" fill="black"/>
<path d="M157.87 155L170.74 127C170.839 126.787 170.979 126.597 171.152 126.439C171.325 126.281 171.527 126.159 171.748 126.08C171.968 126.001 172.202 125.966 172.436 125.978C172.67 125.99 172.899 126.049 173.11 126.15V126.15C173.519 126.344 173.838 126.688 174 127.11C174.162 127.533 174.155 128.002 173.98 128.42L162 157.28" stroke="black" stroke-width="3" stroke-linecap="round" stroke-linejoin="round"/>
<path d="M175.83 175.18L195.08 195.6" stroke="black" stroke-width="3" stroke-linecap="round" stroke-linejoin="round"/>
<path d="M198.83 140.21L190.49 190.73" stroke="black" stroke-width="3" stroke-linecap="round" stroke-linejoin="round"/>
<path d="M131.089 139.43L168.789 113.21" stroke="black" stroke-width="3" stroke-linecap="round" stroke-linejoin="round"/>
<path d="M250 203.58C250 203.58 239.2 148.89 229.81 117.25C221.99 90.89 201.81 87.08 195.26 86.54C194.626 86.4858 194.019 86.2584 193.506 85.8827C192.993 85.5071 192.593 84.9976 192.35 84.41L184.46 65.67C184.164 64.9551 184.122 64.1606 184.34 63.4184C184.559 62.6763 185.024 62.0311 185.66 61.59L188.28 59.76C189.234 59.0972 189.928 58.1228 190.241 57.0042C190.555 55.8855 190.47 54.6925 190 53.63V53.63C188.77 50.84 185.85 49.55 183.26 51.17L179.07 53.72" stroke="black" stroke-width="3" stroke-linecap="round" stroke-linejoin="round"/>
<path d="M238.49 150.59L219.25 203.58" stroke="black" stroke-width="3" stroke-linecap="round" stroke-linejoin="round"/>
<path d="M198.83 86.9995C198.83 86.9995 191.19 115.19 170.67 117.29" stroke="black" stroke-width="3" stroke-linecap="round" stroke-linejoin="round"/>
<path d="M125.47 70.8904C125.47 70.8904 136.29 53.2904 154.11 48.7204C154.11 48.7204 155.11 56.5504 162.59 48.7204C162.59 48.7204 162.25 49.9604 163.98 54.6104C164.602 56.2972 165.701 57.7669 167.143 58.841C168.585 59.9151 170.308 60.5472 172.102 60.6605C173.896 60.7739 175.685 60.3635 177.25 59.4794C178.816 58.5953 180.091 57.2755 180.92 55.6804L183.26 51.1704C183.26 51.1704 174 27.8204 170.67 25.2504C168.573 23.6997 165.993 22.9448 163.39 23.1204C160.521 21.436 157.142 20.8397 153.87 21.4404C150.104 22.2834 146.532 23.8306 143.34 26.0004C143.34 26.0004 122.25 27.2904 111.72 35.7204C111.411 35.9666 111.178 36.2952 111.047 36.6683C110.916 37.0414 110.893 37.4438 110.981 37.8293C111.069 38.2148 111.263 38.5677 111.543 38.8474C111.822 39.1271 112.175 39.3222 112.56 39.4104L121.28 41.4104C121.28 41.4104 101.45 53.6104 99.8903 71.5304C99.8903 71.5304 100.22 76.3504 104.25 73.7704C108.28 71.1904 114.11 68.9604 114.11 69.6304C114.11 70.3004 108.17 85.8704 112.11 85.3104C116.05 84.7504 122 80.6804 122 80.6804C122 80.6804 124.94 85.5104 130 82.6004L125.47 70.8904Z" fill="black" stroke="black" stroke-width="3" stroke-linecap="round" stroke-linejoin="round"/>
<path d="M186.44 60.9998C188.257 66.5737 189.379 72.3508 189.78 78.1998L183.68 63.5598C184.466 62.5725 185.396 61.7094 186.44 60.9998Z" fill="black" stroke="black" stroke-width="3" stroke-linecap="round" stroke-linejoin="round"/>
<path d="M123.81 67.2298L139.32 101.47C140.974 105.182 143.893 108.187 147.555 109.948C151.218 111.71 155.387 112.114 159.32 111.09C164.369 109.674 168.999 107.052 172.81 103.45C173.624 102.687 174.358 101.843 175 100.93L180.89 92.8798" stroke="black" stroke-width="3" stroke-linecap="round" stroke-linejoin="round"/>
<path d="M166.21 108.67L172.46 116.8" stroke="black" stroke-width="3" stroke-linecap="round" stroke-linejoin="round"/>
<path d="M168 110.94C168 110.94 180.91 103.85 183.23 95.2803C183.346 94.8891 183.334 94.4712 183.198 94.0867C183.061 93.7022 182.806 93.3709 182.47 93.1403C181.7 92.6503 180.53 92.7203 179.11 95.4003C174.85 103.4 166.25 108.67 166.25 108.67L168 110.94Z" fill="black" stroke="black" stroke-width="3" stroke-linecap="round" stroke-linejoin="round"/>
<path d="M128.19 78.2396C128.19 78.2396 130.69 73.5996 135.09 72.2396C136.235 71.8964 137.464 71.968 138.561 72.4417C139.659 72.9154 140.554 73.7609 141.09 74.8296C142.85 78.3596 145.84 84.5796 146.96 88.3596C147.17 89.01 147.314 89.6801 147.39 90.3596C147.78 94.6096 152.33 91.5196 152.33 91.5196" stroke="black" stroke-width="3" stroke-linecap="round" stroke-linejoin="round"/>
<path d="M144.67 70.8898C144.67 70.8898 147.95 63.2098 156.55 62.5798" stroke="black" stroke-width="3" stroke-linecap="round" stroke-linejoin="round"/>
<path d="M165 78.84C165 78.84 169.06 86.27 162.19 93.84" stroke="black" stroke-width="3" stroke-linecap="round" stroke-linejoin="round"/>
<path d="M154.175 80.7336C154.935 80.1549 154.505 78.3106 153.213 76.6144C151.922 74.9181 150.259 74.0122 149.499 74.5909C148.738 75.1696 149.169 77.0139 150.46 78.7101C151.751 80.4064 153.415 81.3123 154.175 80.7336Z" fill="black"/>
<path d="M141.644 89.416C142.404 88.8372 141.974 86.993 140.683 85.2968C139.391 83.6005 137.728 82.6946 136.968 83.2733C136.208 83.852 136.638 85.6962 137.93 87.3925C139.221 89.0888 140.884 89.9947 141.644 89.416Z" fill="black"/>
</g>
<defs>
<clipPath id="clip0">
<rect width="300" height="200" fill="white" transform="translate(0 14)"/>
</clipPath>
</defs>
</svg>
