<svg width="83" height="90" fill="none" xmlns="http://www.w3.org/2000/svg"><mask id="prefix__a" fill="#fff"><path d="M82.323 76.82c-6.69 6.293-15.212 10.579-24.491 12.315-9.279 1.737-18.896.846-27.636-2.56C21.456 83.169 13.986 77.4 8.729 70 3.473 62.6.668 53.9.668 45c0-8.9 2.805-17.6 8.061-25C13.985 12.6 21.455 6.83 30.196 3.424 38.936.02 48.553-.872 57.832.865 67.11 2.6 75.633 6.887 82.322 13.18l-16.91 15.91c-3.345-3.147-7.607-5.29-12.246-6.158a25.318 25.318 0 00-13.818 1.28c-4.37 1.704-8.105 4.588-10.733 8.288s-4.03 8.05-4.03 12.5c0 4.45 1.402 8.8 4.03 12.5 2.628 3.7 6.363 6.584 10.733 8.287a25.318 25.318 0 0013.818 1.28c4.64-.867 8.9-3.01 12.246-6.157l16.91 15.91z"/></mask><path d="M82.323 76.82c-6.69 6.293-15.212 10.579-24.491 12.315-9.279 1.737-18.896.846-27.636-2.56C21.456 83.169 13.986 77.4 8.729 70 3.473 62.6.668 53.9.668 45c0-8.9 2.805-17.6 8.061-25C13.985 12.6 21.455 6.83 30.196 3.424 38.936.02 48.553-.872 57.832.865 67.11 2.6 75.633 6.887 82.322 13.18l-16.91 15.91c-3.345-3.147-7.607-5.29-12.246-6.158a25.318 25.318 0 00-13.818 1.28c-4.37 1.704-8.105 4.588-10.733 8.288s-4.03 8.05-4.03 12.5c0 4.45 1.402 8.8 4.03 12.5 2.628 3.7 6.363 6.584 10.733 8.287a25.318 25.318 0 0013.818 1.28c4.64-.867 8.9-3.01 12.246-6.157l16.91 15.91z" stroke="#F1FAEE" stroke-width="10" mask="url(#prefix__a)"/></svg>