<svg width="22" height="22" viewBox="0 0 22 22" fill="none" xmlns="http://www.w3.org/2000/svg">
<mask id="mask0" mask-type="alpha" maskUnits="userSpaceOnUse" x="5" y="0" width="17" height="14">
<path fill-rule="evenodd" clip-rule="evenodd" d="M5.8667 0H21.9997V13.1997H5.8667V0Z" fill="white"/>
</mask>
<path fill-rule="evenodd" clip-rule="evenodd" d="M8.36003 7.77333C7.77337 7.18667 6.89337 7.18667 6.3067 7.77333C5.72003 8.36 5.72003 9.24 6.3067 9.82667L9.24003 12.76C9.53337 13.0533 9.8267 13.2 10.2667 13.2C10.7067 13.2 11 13.0533 11.2934 12.76L21.56 2.49333C22.1467 1.90667 22.1467 1.02667 21.56 0.44C20.9734 -0.146667 20.0934 -0.146667 19.5067 0.44L10.2667 9.68L8.36003 7.77333Z" fill="#3C78FB"/>
<path fill-rule="evenodd" clip-rule="evenodd" d="M10.2667 20.5333C15.9867 20.5333 20.5333 15.9867 20.5333 10.2667C20.5333 9.38667 19.9467 8.8 19.0667 8.8C18.1867 8.8 17.6 9.38667 17.6 10.2667C17.6 14.3733 14.3733 17.6 10.2667 17.6C6.16 17.6 2.93333 14.3733 2.93333 10.2667C2.93333 6.16 6.16 2.93333 10.2667 2.93333C11.1467 2.93333 11.88 3.08 12.76 3.37333C13.4933 3.66667 14.3733 3.22667 14.6667 2.49333C14.96 1.76 14.52 0.88 13.7867 0.586667C12.6133 0.146667 11.44 0 10.2667 0C4.54667 0 0 4.54667 0 10.2667C0 15.9867 4.54667 20.5333 10.2667 20.5333Z" fill="#3C78FB"/>
</svg>
