<svg width="22" height="21" viewBox="0 0 22 21" fill="none" xmlns="http://www.w3.org/2000/svg">
<mask id="mask0" mask-type="alpha" maskUnits="userSpaceOnUse" x="5" y="0" width="17" height="14">
<path fill-rule="evenodd" clip-rule="evenodd" d="M5.86694 0H22V13.1997H5.86694V0Z" fill="white"/>
</mask>
<g mask="url(#mask0)">
<path fill-rule="evenodd" clip-rule="evenodd" d="M8.36028 7.77309C7.77361 7.18642 6.89361 7.18642 6.30694 7.77309C5.72028 8.35976 5.72028 9.23976 6.30694 9.82642L9.24028 12.7598C9.53361 13.0531 9.82694 13.1998 10.2669 13.1998C10.7069 13.1998 11.0003 13.0531 11.2936 12.7598L21.5603 2.49309C22.1469 1.90642 22.1469 1.02642 21.5603 0.439756C20.9736 -0.146911 20.0936 -0.146911 19.5069 0.439756L10.2669 9.67976L8.36028 7.77309Z" fill="#8093A6"/>
</g>
<path fill-rule="evenodd" clip-rule="evenodd" d="M10.2667 20.5333C15.9867 20.5333 20.5333 15.9867 20.5333 10.2667C20.5333 9.38667 19.9467 8.8 19.0667 8.8C18.1867 8.8 17.6 9.38667 17.6 10.2667C17.6 14.3733 14.3733 17.6 10.2667 17.6C6.16 17.6 2.93333 14.3733 2.93333 10.2667C2.93333 6.16 6.16 2.93333 10.2667 2.93333C11.1467 2.93333 11.88 3.08 12.76 3.37333C13.4933 3.66667 14.3733 3.22667 14.6667 2.49333C14.96 1.76 14.52 0.88 13.7867 0.586667C12.6133 0.146667 11.44 0 10.2667 0C4.54667 0 0 4.54667 0 10.2667C0 15.9867 4.54667 20.5333 10.2667 20.5333Z" fill="#8093A6"/>
</svg>
