<svg width="14" height="19" viewBox="0 0 14 19" fill="none" xmlns="http://www.w3.org/2000/svg">
<path d="M10.4062 14.3125H7.59375C7.41797 14.3125 7.3125 14.4531 7.3125 14.5938V15.1562C7.3125 15.332 7.41797 15.4375 7.59375 15.4375H10.4062C10.5469 15.4375 10.6875 15.332 10.6875 15.1562V14.5938C10.6875 14.4531 10.5469 14.3125 10.4062 14.3125ZM2.8125 8.6875V12.0625C2.8125 12.3789 3.05859 12.625 3.375 12.625H10.125C10.4062 12.625 10.6875 12.3789 10.6875 12.0625V8.6875C10.6875 8.40625 10.4062 8.125 10.125 8.125H3.375C3.05859 8.125 2.8125 8.40625 2.8125 8.6875ZM3.9375 9.25H9.5625V11.5H3.9375V9.25ZM12.9727 3.69531L10.0195 0.777344C9.70312 0.460938 9.28125 0.25 8.85938 0.25H1.65234C0.738281 0.285156 0 1.02344 0 1.97266V16.5977C0 17.5117 0.738281 18.25 1.65234 18.25H11.7773C12.7266 18.25 13.5 17.5117 13.5 16.5977V4.89062C13.5 4.46875 13.2891 4.01172 12.9727 3.69531ZM8.96484 2.07812L11.6719 4.78516H8.96484V2.07812ZM11.8125 16.5977H1.65234V1.97266H7.27734V5.62891C7.27734 6.08594 7.66406 6.47266 8.12109 6.47266H11.8125V16.5977ZM3.09375 4.1875H5.90625C6.04688 4.1875 6.1875 4.08203 6.1875 3.90625V3.34375C6.1875 3.20312 6.04688 3.0625 5.90625 3.0625H3.09375C2.91797 3.0625 2.8125 3.20312 2.8125 3.34375V3.90625C2.8125 4.08203 2.91797 4.1875 3.09375 4.1875ZM3.09375 6.4375H5.90625C6.04688 6.4375 6.1875 6.33203 6.1875 6.15625V5.59375C6.1875 5.45312 6.04688 5.3125 5.90625 5.3125H3.09375C2.91797 5.3125 2.8125 5.45312 2.8125 5.59375V6.15625C2.8125 6.33203 2.91797 6.4375 3.09375 6.4375Z" fill="#8093A6"/>
</svg>
