<svg width="48" height="48" viewBox="0 0 48 48" fill="none" xmlns="http://www.w3.org/2000/svg">
<path d="M9.21875 12.1777C13.306 8.09049 18.2331 6.04688 24 6.04688C29.7669 6.04688 34.666 8.09049 38.6973 12.1777C42.7845 16.209 44.8281 21.1081 44.8281 26.875C44.8281 32.6419 42.7845 37.569 38.6973 41.6562C34.666 45.6875 29.7669 47.7031 24 47.7031C18.2331 47.7031 13.306 45.6875 9.21875 41.6562C5.1875 37.569 3.17188 32.6419 3.17188 26.875C3.17188 21.1081 5.1875 16.209 9.21875 12.1777ZM37.7734 15.6211C37.4375 16.069 36.9896 16.5729 36.4297 17.1328C35.9258 17.6927 34.862 18.5605 33.2383 19.7363C31.6146 20.9121 29.8229 21.8919 27.8633 22.6758C28.3672 23.7956 28.8711 24.9714 29.375 26.2031C33.4622 25.6432 37.6055 25.8112 41.8047 26.707C41.7487 22.5638 40.4049 18.8685 37.7734 15.6211ZM35.7578 13.6055C33.5742 11.6458 31.0827 10.3301 28.2832 9.6582C25.4837 8.93034 22.6562 8.90234 19.8008 9.57422C22.2083 12.7656 24.4199 16.237 26.4355 19.9883C28.3392 19.3164 30.0469 18.4486 31.5586 17.3848C33.1263 16.321 34.1341 15.5371 34.582 15.0332C35.0859 14.4733 35.4779 13.9974 35.7578 13.6055ZM16.4414 10.834C14.7617 11.6178 13.25 12.6257 11.9062 13.8574C10.5625 15.0892 9.41471 16.5169 8.46289 18.1406C7.56706 19.7083 6.95117 21.416 6.61523 23.2637C11.8783 23.3197 17.3372 22.5918 22.9922 21.0801C20.9766 17.4408 18.793 14.0254 16.4414 10.834ZM6.19531 26.875C6.19531 31.4661 7.73503 35.4414 10.8145 38.8008C11.7663 37.1211 12.998 35.4974 14.5098 33.9297C16.0215 32.362 17.7852 30.9342 19.8008 29.6465C21.8164 28.3587 23.86 27.4349 25.9316 26.875C25.5397 25.8672 25.0638 24.8594 24.5039 23.8516C18.457 25.6432 12.3542 26.4831 6.19531 26.3711C6.19531 26.5391 6.19531 26.707 6.19531 26.875ZM13.082 40.9004C15.6576 42.972 18.569 44.2038 21.8164 44.5957C25.0638 44.9876 28.1152 44.5397 30.9707 43.252C30.2428 38.9408 28.9831 34.4616 27.1914 29.8145C23.776 30.9342 20.8086 32.5579 18.2891 34.6855C15.8255 36.7572 14.0898 38.8288 13.082 40.9004ZM33.9102 41.6562C38.2214 38.7448 40.7689 34.7695 41.5527 29.7305C38.0254 28.6107 34.3301 28.3587 30.4668 28.9746C32.0905 33.4538 33.2383 37.681 33.9102 41.6562Z" fill="#8093A6"/>
</svg>
