<svg width="21" height="14" viewBox="0 0 21 14" fill="none" xmlns="http://www.w3.org/2000/svg">
<path d="M20.8594 6.75781C18.9609 3.03125 15.1641 0.5 10.875 0.5C6.55078 0.5 2.75391 3.03125 0.855469 6.75781C0.785156 6.89844 0.75 7.10938 0.75 7.28516C0.75 7.42578 0.785156 7.63672 0.855469 7.77734C2.75391 11.5039 6.55078 14 10.875 14C15.1641 14 18.9609 11.5039 20.8594 7.77734C20.9297 7.63672 20.9648 7.42578 20.9648 7.25C20.9648 7.10938 20.9297 6.89844 20.8594 6.75781ZM10.875 12.3125C8.0625 12.3125 5.8125 10.0625 5.8125 7.25C5.8125 4.47266 8.0625 2.1875 10.875 2.1875C13.6523 2.1875 15.9375 4.47266 15.9375 7.25V7.28516C15.9375 10.0625 13.6523 12.3125 10.875 12.3125ZM10.875 3.875C10.5938 3.91016 10.207 3.94531 9.96094 4.01562C10.1367 4.26172 10.3125 4.71875 10.3125 5.03516C10.3125 5.94922 9.53906 6.6875 8.625 6.6875C8.30859 6.6875 7.85156 6.54688 7.60547 6.37109C7.53516 6.61719 7.5 7.00391 7.5 7.25C7.5 9.11328 9.01172 10.625 10.875 10.625C12.7383 10.625 14.25 9.11328 14.25 7.25C14.25 5.38672 12.7383 3.875 10.875 3.875Z" fill="#BDBDBD"/>
</svg>
