<svg width="155" height="18" viewBox="0 0 155 18" fill="none" xmlns="http://www.w3.org/2000/svg">
<path d="M12.5 7H11.75V4.75C11.75 2.15625 9.59375 0 7 0C4.375 0 2.25 2.15625 2.25 4.75V7H1.5C0.65625 7 0 7.6875 0 8.5V14.5C0 15.3438 0.65625 16 1.5 16H12.5C13.3125 16 14 15.3438 14 14.5V8.5C14 7.6875 13.3125 7 12.5 7ZM8.25 12.25C8.25 12.9688 7.6875 13.5 7 13.5C6.28125 13.5 5.75 12.9688 5.75 12.25V10.75C5.75 10.0625 6.28125 9.5 7 9.5C7.6875 9.5 8.25 10.0625 8.25 10.75V12.25ZM9.25 7H4.75V4.75C4.75 3.53125 5.75 2.5 7 2.5C8.21875 2.5 9.25 3.53125 9.25 4.75V7ZM30.3469 8.97656H25.5734V14H24.0734V2.625H31.1203V3.85938H25.5734V7.75H30.3469V8.97656ZM32.4078 9.69531C32.4078 8.86719 32.5693 8.1224 32.8922 7.46094C33.2203 6.79948 33.6734 6.28906 34.2516 5.92969C34.8349 5.57031 35.499 5.39062 36.2437 5.39062C37.3948 5.39062 38.3245 5.78906 39.0328 6.58594C39.7464 7.38281 40.1031 8.44271 40.1031 9.76562V9.86719C40.1031 10.6901 39.9443 11.4297 39.6266 12.0859C39.3141 12.737 38.8635 13.2448 38.275 13.6094C37.6917 13.974 37.0198 14.1562 36.2594 14.1562C35.1135 14.1562 34.1839 13.7578 33.4703 12.9609C32.762 12.1641 32.4078 11.1094 32.4078 9.79688V9.69531ZM33.8609 9.86719C33.8609 10.8047 34.0771 11.5573 34.5094 12.125C34.9469 12.6927 35.5302 12.9766 36.2594 12.9766C36.9937 12.9766 37.5771 12.6901 38.0094 12.1172C38.4417 11.5391 38.6578 10.7318 38.6578 9.69531C38.6578 8.76823 38.4365 8.01823 37.9937 7.44531C37.5562 6.86719 36.9729 6.57812 36.2437 6.57812C35.5302 6.57812 34.9547 6.86198 34.5172 7.42969C34.0797 7.9974 33.8609 8.8099 33.8609 9.86719ZM46.2734 6.84375C46.0547 6.80729 45.8177 6.78906 45.5625 6.78906C44.6146 6.78906 43.9714 7.19271 43.6328 8V14H42.1875V5.54688H43.5938L43.6172 6.52344C44.0911 5.76823 44.763 5.39062 45.6328 5.39062C45.9141 5.39062 46.1276 5.42708 46.2734 5.5V6.84375ZM47.3812 9.70312C47.3812 8.38542 47.6859 7.33854 48.2953 6.5625C48.9047 5.78125 49.712 5.39062 50.7172 5.39062C51.7484 5.39062 52.5531 5.75521 53.1312 6.48438L53.2016 5.54688H54.5219V13.7969C54.5219 14.8906 54.1964 15.7526 53.5453 16.3828C52.8995 17.013 52.0297 17.3281 50.9359 17.3281C50.3266 17.3281 49.7302 17.1979 49.1469 16.9375C48.5635 16.6771 48.1182 16.3203 47.8109 15.8672L48.5609 15C49.1807 15.7656 49.9385 16.1484 50.8344 16.1484C51.5375 16.1484 52.0844 15.9505 52.475 15.5547C52.8708 15.1589 53.0687 14.6016 53.0687 13.8828V13.1562C52.4906 13.8229 51.7016 14.1562 50.7016 14.1562C49.712 14.1562 48.9099 13.7578 48.2953 12.9609C47.6859 12.1641 47.3812 11.0781 47.3812 9.70312ZM48.8344 9.86719C48.8344 10.8203 49.0297 11.5703 49.4203 12.1172C49.8109 12.6589 50.3578 12.9297 51.0609 12.9297C51.9724 12.9297 52.6417 12.5156 53.0687 11.6875V7.82812C52.626 7.02083 51.962 6.61719 51.0766 6.61719C50.3734 6.61719 49.824 6.89062 49.4281 7.4375C49.0323 7.98438 48.8344 8.79427 48.8344 9.86719ZM56.5984 9.69531C56.5984 8.86719 56.7599 8.1224 57.0828 7.46094C57.4109 6.79948 57.8641 6.28906 58.4422 5.92969C59.0255 5.57031 59.6896 5.39062 60.4344 5.39062C61.5854 5.39062 62.5151 5.78906 63.2234 6.58594C63.937 7.38281 64.2938 8.44271 64.2938 9.76562V9.86719C64.2938 10.6901 64.1349 11.4297 63.8172 12.0859C63.5047 12.737 63.0542 13.2448 62.4656 13.6094C61.8823 13.974 61.2104 14.1562 60.45 14.1562C59.3042 14.1562 58.3745 13.7578 57.6609 12.9609C56.9526 12.1641 56.5984 11.1094 56.5984 9.79688V9.69531ZM58.0516 9.86719C58.0516 10.8047 58.2677 11.5573 58.7 12.125C59.1375 12.6927 59.7208 12.9766 60.45 12.9766C61.1844 12.9766 61.7677 12.6901 62.2 12.1172C62.6323 11.5391 62.8484 10.7318 62.8484 9.69531C62.8484 8.76823 62.6271 8.01823 62.1844 7.44531C61.7469 6.86719 61.1635 6.57812 60.4344 6.57812C59.7208 6.57812 59.1453 6.86198 58.7078 7.42969C58.2703 7.9974 58.0516 8.8099 58.0516 9.86719ZM68.3391 3.5V5.54688H69.9172V6.66406H68.3391V11.9062C68.3391 12.2448 68.4094 12.5 68.55 12.6719C68.6906 12.8385 68.9302 12.9219 69.2688 12.9219C69.4354 12.9219 69.6646 12.8906 69.9563 12.8281V14C69.576 14.1042 69.2063 14.1562 68.8469 14.1562C68.201 14.1562 67.7141 13.9609 67.3859 13.5703C67.0578 13.1797 66.8938 12.625 66.8938 11.9062V6.66406H65.3547V5.54688H66.8938V3.5H68.3391ZM77.8516 9.54688V14H76.3516V2.625H80.5469C81.7917 2.625 82.7656 2.94271 83.4688 3.57812C84.1771 4.21354 84.5312 5.05469 84.5312 6.10156C84.5312 7.20573 84.1849 8.05729 83.4922 8.65625C82.8047 9.25 81.8177 9.54688 80.5312 9.54688H77.8516ZM77.8516 8.32031H80.5469C81.349 8.32031 81.9635 8.13281 82.3906 7.75781C82.8177 7.3776 83.0312 6.83073 83.0312 6.11719C83.0312 5.4401 82.8177 4.89844 82.3906 4.49219C81.9635 4.08594 81.3776 3.875 80.6328 3.85938H77.8516V8.32031ZM91.6156 14C91.5323 13.8333 91.4646 13.5365 91.4125 13.1094C90.7406 13.8073 89.9385 14.1562 89.0062 14.1562C88.1729 14.1562 87.488 13.9219 86.9516 13.4531C86.4203 12.9792 86.1547 12.3802 86.1547 11.6562C86.1547 10.776 86.488 10.0938 87.1547 9.60938C87.8266 9.11979 88.7693 8.875 89.9828 8.875H91.3891V8.21094C91.3891 7.70573 91.238 7.30469 90.9359 7.00781C90.6339 6.70573 90.1885 6.55469 89.6 6.55469C89.0844 6.55469 88.6521 6.6849 88.3031 6.94531C87.9542 7.20573 87.7797 7.52083 87.7797 7.89062H86.3266C86.3266 7.46875 86.475 7.0625 86.7719 6.67188C87.074 6.27604 87.4802 5.96354 87.9906 5.73438C88.5062 5.50521 89.0714 5.39062 89.6859 5.39062C90.6599 5.39062 91.4229 5.63542 91.975 6.125C92.5271 6.60938 92.8135 7.27865 92.8344 8.13281V12.0234C92.8344 12.7995 92.9333 13.4167 93.1312 13.875V14H91.6156ZM89.2172 12.8984C89.6703 12.8984 90.1 12.7812 90.5062 12.5469C90.9125 12.3125 91.2068 12.0078 91.3891 11.6328V9.89844H90.2562C88.4854 9.89844 87.6 10.4167 87.6 11.4531C87.6 11.9062 87.751 12.2604 88.0531 12.5156C88.3552 12.7708 88.7432 12.8984 89.2172 12.8984ZM100.294 11.7578C100.294 11.3672 100.145 11.0651 99.8484 10.8516C99.5568 10.6328 99.0437 10.4453 98.3094 10.2891C97.5802 10.1328 96.9995 9.94531 96.5672 9.72656C96.1401 9.50781 95.8224 9.2474 95.6141 8.94531C95.4109 8.64323 95.3094 8.28385 95.3094 7.86719C95.3094 7.17448 95.601 6.58854 96.1844 6.10938C96.7729 5.63021 97.5229 5.39062 98.4344 5.39062C99.3927 5.39062 100.169 5.63802 100.762 6.13281C101.361 6.6276 101.661 7.26042 101.661 8.03125H100.208C100.208 7.63542 100.039 7.29427 99.7 7.00781C99.3667 6.72135 98.9448 6.57812 98.4344 6.57812C97.9083 6.57812 97.4969 6.69271 97.2 6.92188C96.9031 7.15104 96.7547 7.45052 96.7547 7.82031C96.7547 8.16927 96.8927 8.43229 97.1687 8.60938C97.4448 8.78646 97.9422 8.95573 98.6609 9.11719C99.3849 9.27865 99.9708 9.47135 100.419 9.69531C100.867 9.91927 101.197 10.1901 101.411 10.5078C101.63 10.8203 101.739 11.2031 101.739 11.6562C101.739 12.4115 101.437 13.0182 100.833 13.4766C100.229 13.9297 99.4448 14.1562 98.4812 14.1562C97.8042 14.1562 97.2052 14.0365 96.6844 13.7969C96.1635 13.5573 95.7547 13.224 95.4578 12.7969C95.1661 12.3646 95.0203 11.8984 95.0203 11.3984H96.4656C96.4917 11.8828 96.6844 12.2682 97.0437 12.5547C97.4083 12.8359 97.8875 12.9766 98.4812 12.9766C99.0281 12.9766 99.4656 12.8672 99.7937 12.6484C100.127 12.4245 100.294 12.1276 100.294 11.7578ZM108.816 11.7578C108.816 11.3672 108.667 11.0651 108.37 10.8516C108.079 10.6328 107.566 10.4453 106.831 10.2891C106.102 10.1328 105.521 9.94531 105.089 9.72656C104.662 9.50781 104.344 9.2474 104.136 8.94531C103.933 8.64323 103.831 8.28385 103.831 7.86719C103.831 7.17448 104.123 6.58854 104.706 6.10938C105.295 5.63021 106.045 5.39062 106.956 5.39062C107.915 5.39062 108.691 5.63802 109.284 6.13281C109.883 6.6276 110.183 7.26042 110.183 8.03125H108.73C108.73 7.63542 108.56 7.29427 108.222 7.00781C107.889 6.72135 107.467 6.57812 106.956 6.57812C106.43 6.57812 106.019 6.69271 105.722 6.92188C105.425 7.15104 105.277 7.45052 105.277 7.82031C105.277 8.16927 105.415 8.43229 105.691 8.60938C105.967 8.78646 106.464 8.95573 107.183 9.11719C107.907 9.27865 108.493 9.47135 108.941 9.69531C109.389 9.91927 109.719 10.1901 109.933 10.5078C110.152 10.8203 110.261 11.2031 110.261 11.6562C110.261 12.4115 109.959 13.0182 109.355 13.4766C108.751 13.9297 107.967 14.1562 107.003 14.1562C106.326 14.1562 105.727 14.0365 105.206 13.7969C104.685 13.5573 104.277 13.224 103.98 12.7969C103.688 12.3646 103.542 11.8984 103.542 11.3984H104.988C105.014 11.8828 105.206 12.2682 105.566 12.5547C105.93 12.8359 106.409 12.9766 107.003 12.9766C107.55 12.9766 107.988 12.8672 108.316 12.6484C108.649 12.4245 108.816 12.1276 108.816 11.7578ZM119.9 12.0078L121.525 5.54688H122.97L120.509 14H119.338L117.283 7.59375L115.283 14H114.111L111.658 5.54688H113.095L114.759 11.875L116.728 5.54688H117.892L119.9 12.0078ZM124.336 9.69531C124.336 8.86719 124.497 8.1224 124.82 7.46094C125.148 6.79948 125.602 6.28906 126.18 5.92969C126.763 5.57031 127.427 5.39062 128.172 5.39062C129.323 5.39062 130.253 5.78906 130.961 6.58594C131.674 7.38281 132.031 8.44271 132.031 9.76562V9.86719C132.031 10.6901 131.872 11.4297 131.555 12.0859C131.242 12.737 130.792 13.2448 130.203 13.6094C129.62 13.974 128.948 14.1562 128.188 14.1562C127.042 14.1562 126.112 13.7578 125.398 12.9609C124.69 12.1641 124.336 11.1094 124.336 9.79688V9.69531ZM125.789 9.86719C125.789 10.8047 126.005 11.5573 126.438 12.125C126.875 12.6927 127.458 12.9766 128.188 12.9766C128.922 12.9766 129.505 12.6901 129.938 12.1172C130.37 11.5391 130.586 10.7318 130.586 9.69531C130.586 8.76823 130.365 8.01823 129.922 7.44531C129.484 6.86719 128.901 6.57812 128.172 6.57812C127.458 6.57812 126.883 6.86198 126.445 7.42969C126.008 7.9974 125.789 8.8099 125.789 9.86719ZM138.202 6.84375C137.983 6.80729 137.746 6.78906 137.491 6.78906C136.543 6.78906 135.899 7.19271 135.561 8V14H134.116V5.54688H135.522L135.545 6.52344C136.019 5.76823 136.691 5.39062 137.561 5.39062C137.842 5.39062 138.056 5.42708 138.202 5.5V6.84375ZM139.302 9.70312C139.302 8.40625 139.609 7.36458 140.223 6.57812C140.838 5.78646 141.643 5.39062 142.637 5.39062C143.627 5.39062 144.411 5.72917 144.989 6.40625V2H146.434V14H145.106L145.036 13.0938C144.458 13.8021 143.653 14.1562 142.622 14.1562C141.643 14.1562 140.843 13.7552 140.223 12.9531C139.609 12.151 139.302 11.1042 139.302 9.8125V9.70312ZM140.747 9.86719C140.747 10.8255 140.945 11.5755 141.341 12.1172C141.736 12.6589 142.283 12.9297 142.981 12.9297C143.898 12.9297 144.567 12.5182 144.989 11.6953V7.8125C144.557 7.01562 143.893 6.61719 142.997 6.61719C142.289 6.61719 141.736 6.89062 141.341 7.4375C140.945 7.98438 140.747 8.79427 140.747 9.86719ZM150.652 10.7969C150.662 10.1771 150.732 9.6875 150.863 9.32812C150.993 8.96875 151.258 8.57031 151.659 8.13281L152.683 7.07812C153.12 6.58333 153.339 6.05208 153.339 5.48438C153.339 4.9375 153.196 4.51042 152.909 4.20312C152.623 3.89062 152.206 3.73438 151.659 3.73438C151.128 3.73438 150.701 3.875 150.378 4.15625C150.055 4.4375 149.894 4.8151 149.894 5.28906H148.448C148.459 4.44531 148.758 3.76562 149.347 3.25C149.941 2.72917 150.711 2.46875 151.659 2.46875C152.644 2.46875 153.409 2.73438 153.956 3.26562C154.508 3.79167 154.784 4.51562 154.784 5.4375C154.784 6.34896 154.363 7.2474 153.519 8.13281L152.667 8.97656C152.287 9.39844 152.097 10.0052 152.097 10.7969H150.652ZM150.589 13.2734C150.589 13.0391 150.659 12.8438 150.8 12.6875C150.946 12.526 151.159 12.4453 151.441 12.4453C151.722 12.4453 151.935 12.526 152.081 12.6875C152.227 12.8438 152.3 13.0391 152.3 13.2734C152.3 13.5078 152.227 13.7031 152.081 13.8594C151.935 14.0104 151.722 14.0859 151.441 14.0859C151.159 14.0859 150.946 14.0104 150.8 13.8594C150.659 13.7031 150.589 13.5078 150.589 13.2734Z" fill="#828282"/>
</svg>
