<svg width="26" height="26" viewBox="0 0 26 26" fill="none" xmlns="http://www.w3.org/2000/svg">
<path fill-rule="evenodd" clip-rule="evenodd" d="M25.48 13.2955C25.48 12.3737 25.3973 11.4873 25.2436 10.6364H13V15.6651H19.9964C19.695 17.2901 18.7791 18.6669 17.4023 19.5887V22.8505H21.6036C24.0618 20.5873 25.48 17.2546 25.48 13.2955Z" fill="#4285F4"/>
<path fill-rule="evenodd" clip-rule="evenodd" d="M12.9991 26C16.5091 26 19.4518 24.8359 21.6027 22.8505L17.4014 19.5887C16.2373 20.3687 14.7482 20.8296 12.9991 20.8296C9.6132 20.8296 6.74729 18.5428 5.72502 15.47H1.38184V18.8382C3.52093 23.0869 7.91729 26 12.9991 26Z" fill="#34A853"/>
<path fill-rule="evenodd" clip-rule="evenodd" d="M5.72591 15.47C5.46591 14.69 5.31818 13.8569 5.31818 13C5.31818 12.1432 5.46591 11.31 5.72591 10.53V7.16187H1.38273C0.502273 8.91687 0 10.9023 0 13C0 15.0978 0.502273 17.0832 1.38273 18.8382L5.72591 15.47Z" fill="#FBBC05"/>
<path fill-rule="evenodd" clip-rule="evenodd" d="M12.9991 5.17045C14.9077 5.17045 16.6214 5.82636 17.9687 7.11455L21.6973 3.38591C19.4459 1.28818 16.5032 0 12.9991 0C7.91729 0 3.52093 2.91318 1.38184 7.16182L5.72502 10.53C6.74729 7.45727 9.6132 5.17045 12.9991 5.17045Z" fill="#EA4335"/>
</svg>
