<svg width="16" height="7" viewBox="0 0 16 7" fill="none" xmlns="http://www.w3.org/2000/svg">
<path d="M15.1875 4.375H0.5625C0.246094 4.375 0 4.65625 0 4.9375V5.5C0 5.81641 0.246094 6.0625 0.5625 6.0625H15.1875C15.4688 6.0625 15.75 5.81641 15.75 5.5V4.9375C15.75 4.65625 15.4688 4.375 15.1875 4.375ZM15.1875 0.4375H0.5625C0.246094 0.4375 0 0.71875 0 1V1.5625C0 1.87891 0.246094 2.125 0.5625 2.125H15.1875C15.4688 2.125 15.75 1.87891 15.75 1.5625V1C15.75 0.71875 15.4688 0.4375 15.1875 0.4375Z" fill="#8093A6"/>
</svg>
