<svg width="63" height="64" viewBox="0 0 63 64" fill="none" xmlns="http://www.w3.org/2000/svg">
<path fill-rule="evenodd" clip-rule="evenodd" d="M54.6274 54.6274C53.7739 55.4809 52.8759 56.2824 51.9382 57.0294C47.959 60.1992 43.2665 62.3859 38.2429 63.3851C32.0355 64.6198 25.6014 63.9861 19.7541 61.5641C13.9069 59.1421 8.90917 55.0406 5.39297 49.7782C1.87677 44.5159 3.89796e-07 38.329 0 32C-3.89796e-07 25.671 1.87677 19.4841 5.39297 14.2218C8.90917 8.95939 13.9069 4.85787 19.7541 2.43587C25.6013 0.0138658 32.0355 -0.619841 38.2429 0.614884C43.2665 1.61414 47.959 3.80082 51.9382 6.97063C52.8759 7.71759 53.7739 8.51913 54.6274 9.37259L43.3137 20.6863C41.076 18.4487 38.2251 16.9248 35.1214 16.3074C32.0177 15.6901 28.8007 16.0069 25.8771 17.2179C22.9534 18.4289 20.4546 20.4797 18.6965 23.1109C16.9384 25.7421 16 28.8355 16 32C16 35.1645 16.9384 38.2579 18.6965 40.8891C20.4546 43.5203 22.9534 45.5711 25.8771 46.7821C28.8007 47.9931 32.0177 48.3099 35.1214 47.6926C38.2251 47.0752 41.076 45.5513 43.3137 43.3137L54.6274 54.6274ZM43.0779 48.1691C40.9014 49.6602 38.4357 50.7038 35.8238 51.2234C32.0217 51.9797 28.0808 51.5915 24.4994 50.108C20.918 48.6245 17.8569 46.1124 15.7032 42.8892C13.5495 39.666 12.4 35.8765 12.4 32C12.4 28.1235 13.5495 24.334 15.7032 21.1108C17.8569 17.8876 20.918 15.3754 24.4994 13.892C28.0808 12.4085 32.0217 12.0203 35.8237 12.7766C38.4357 13.2962 40.9014 14.3398 43.0779 15.8309L49.3742 9.53457C45.9124 6.85725 41.8647 5.00583 37.5405 4.14571C32.0315 3.04989 26.3212 3.61231 21.1318 5.76183C15.9424 7.91136 11.5069 11.5515 8.38626 16.2218C5.26563 20.8922 3.6 26.383 3.6 32C3.6 37.617 5.26563 43.1078 8.38626 47.7782C11.5069 52.4485 15.9424 56.0886 21.1318 58.2382C26.3212 60.3877 32.0315 60.9501 37.5405 59.8543C41.8647 58.9942 45.9124 57.1427 49.3742 54.4654L43.0779 48.1691Z" fill="#595959"/>
<path d="M62.5473 54.6274C58.072 59.1027 52.3702 62.1504 46.1628 63.3851C39.9554 64.6198 33.5213 63.9861 27.674 61.5641C21.8268 59.1421 16.8291 55.0406 13.3129 49.7782C9.79669 44.5159 7.91992 38.329 7.91992 32C7.91992 25.671 9.79669 19.4841 13.3129 14.2218C16.8291 8.95939 21.8268 4.85787 27.674 2.43587C33.5213 0.0138658 39.9554 -0.619841 46.1628 0.614884C52.3702 1.84961 58.072 4.89731 62.5473 9.37259L51.2336 20.6863C48.996 18.4487 46.145 16.9248 43.0413 16.3074C39.9377 15.6901 36.7206 16.0069 33.797 17.2179C30.8734 18.4289 28.3745 20.4797 26.6164 23.1109C24.8583 25.7421 23.9199 28.8355 23.9199 32C23.9199 35.1645 24.8583 38.2579 26.6164 40.8891C28.3745 43.5203 30.8734 45.5711 33.797 46.7821C36.7206 47.9931 39.9377 48.3099 43.0414 47.6926C46.145 47.0752 48.996 45.5513 51.2336 43.3137L62.5473 54.6274Z" fill="#F4F3EE"/>
<path fill-rule="evenodd" clip-rule="evenodd" d="M39.6798 0H31.8398V0.64H33.552C31.5491 1.04669 29.5804 1.64624 27.674 2.43587C21.8268 4.85787 16.8291 8.95939 13.3129 14.2218C9.79669 19.4841 7.91992 25.671 7.91992 32C7.91992 38.329 9.79669 44.5159 13.3129 49.7782C16.8291 55.0406 21.8268 59.1421 27.674 61.5641C29.5803 62.3537 31.549 62.9533 33.5519 63.36H31.8398V64H39.6798V63.9991C41.8455 64.0154 44.0177 63.8118 46.1628 63.3851C51.1864 62.3859 55.8789 60.1992 59.8581 57.0294C60.7958 56.2824 61.6939 55.4809 62.5473 54.6274L51.2336 43.3137L51.1999 43.3473V43.28H43.2799V46.72H46.1906C45.1821 47.1496 44.1272 47.4766 43.0414 47.6926C39.9377 48.3099 36.7206 47.9931 33.797 46.7821C30.8734 45.5711 28.3745 43.5203 26.6164 40.8891C24.8583 38.2579 23.9199 35.1645 23.9199 32C23.9199 28.8355 24.8583 25.7421 26.6164 23.1109C28.3745 20.4797 30.8734 18.4289 33.797 17.2179C36.7206 16.0069 39.9377 15.6901 43.0414 16.3074C44.1272 16.5234 45.1821 16.8504 46.1906 17.28H43.2799V20.72H51.1999V20.6527L51.2336 20.6863L62.5473 9.37259C61.6938 8.51913 60.7958 7.71759 59.8581 6.97064C55.8789 3.80082 51.1864 1.61414 46.1628 0.614884C44.0177 0.188193 41.8455 -0.0153651 39.6798 0.00090283V0ZM50.9978 48.1691C48.8214 49.6602 46.3556 50.7038 43.7437 51.2234C39.9416 51.9797 36.0007 51.5915 32.4193 50.108C28.8379 48.6245 25.7768 46.1124 23.6231 42.8892C21.4694 39.666 20.3199 35.8765 20.3199 32C20.3199 28.1235 21.4694 24.334 23.6231 21.1108C25.7768 17.8876 28.8379 15.3754 32.4193 13.892C36.0007 12.4085 39.9416 12.0203 43.7437 12.7766C46.3556 13.2962 48.8214 14.3398 50.9978 15.8309L57.2942 9.53457C53.8323 6.85725 49.7846 5.00583 45.4605 4.14571C39.9514 3.04989 34.2411 3.61231 29.0517 5.76183C23.8623 7.91136 19.4268 11.5515 16.3062 16.2218C13.1855 20.8922 11.5199 26.383 11.5199 32C11.5199 37.617 13.1856 43.1078 16.3062 47.7782C19.4268 52.4485 23.8623 56.0886 29.0517 58.2382C34.2411 60.3877 39.9514 60.9501 45.4605 59.8543C49.7846 58.9942 53.8323 57.1427 57.2942 54.4654L50.9978 48.1691Z" fill="#595959"/>
</svg>
