<svg width="48" height="48" viewBox="0 0 48 48" fill="none" xmlns="http://www.w3.org/2000/svg">
<path d="M16.4062 16.4062C18.5312 14.2812 21.0938 13.2188 24.0938 13.2188C27.0938 13.2188 29.625 14.2812 31.6875 16.4062C33.8125 18.4688 34.875 21 34.875 24C34.875 27 33.8125 29.5625 31.6875 31.6875C29.625 33.75 27.0938 34.7812 24.0938 34.7812C21.0938 34.7812 18.5312 33.75 16.4062 31.6875C14.3438 29.5625 13.3125 27 13.3125 24C13.3125 21 14.3438 18.4688 16.4062 16.4062ZM19.125 28.9688C20.5 30.3438 22.1562 31.0312 24.0938 31.0312C26.0312 31.0312 27.6875 30.3438 29.0625 28.9688C30.4375 27.5938 31.125 25.9375 31.125 24C31.125 22.0625 30.4375 20.4062 29.0625 19.0312C27.6875 17.6562 26.0312 16.9688 24.0938 16.9688C22.1562 16.9688 20.5 17.6562 19.125 19.0312C17.75 20.4062 17.0625 22.0625 17.0625 24C17.0625 25.9375 17.75 27.5938 19.125 28.9688ZM37.0312 11.0625C37.5312 11.5 37.7812 12.0625 37.7812 12.75C37.7812 13.4375 37.5312 14.0313 37.0312 14.5312C36.5938 15.0312 36.0312 15.2812 35.3438 15.2812C34.6562 15.2812 34.0625 15.0312 33.5625 14.5312C33.0625 14.0313 32.8125 13.4375 32.8125 12.75C32.8125 12.0625 33.0625 11.5 33.5625 11.0625C34.0625 10.5625 34.6562 10.3125 35.3438 10.3125C36.0312 10.3125 36.5938 10.5625 37.0312 11.0625ZM45 15.375C45.0625 17.0625 45.0938 19.9375 45.0938 24C45.0938 28.0625 45.0625 30.9375 45 32.625C44.8125 36.4375 43.6562 39.4062 41.5312 41.5312C39.4688 43.5938 36.5312 44.6875 32.7188 44.8125C31.0312 44.9375 28.1562 45 24.0938 45C20.0312 45 17.1562 44.9375 15.4688 44.8125C11.6562 44.625 8.71875 43.5 6.65625 41.4375C5.84375 40.6875 5.1875 39.8125 4.6875 38.8125C4.1875 37.8125 3.8125 36.8438 3.5625 35.9062C3.375 34.9688 3.28125 33.875 3.28125 32.625C3.15625 30.9375 3.09375 28.0625 3.09375 24C3.09375 19.9375 3.15625 17.0312 3.28125 15.2812C3.46875 11.5312 4.59375 8.625 6.65625 6.5625C8.71875 4.4375 11.6562 3.28125 15.4688 3.09375C17.1562 3.03125 20.0312 3 24.0938 3C28.1562 3 31.0312 3.03125 32.7188 3.09375C36.5312 3.28125 39.4688 4.4375 41.5312 6.5625C43.6562 8.625 44.8125 11.5625 45 15.375ZM40.5 36.375C40.6875 35.875 40.8438 35.25 40.9688 34.5C41.0938 33.6875 41.1875 32.75 41.25 31.6875C41.3125 30.5625 41.3438 29.6562 41.3438 28.9688C41.3438 28.2812 41.3438 27.3125 41.3438 26.0625C41.3438 24.8125 41.3438 24.125 41.3438 24C41.3438 23.8125 41.3438 23.125 41.3438 21.9375C41.3438 20.6875 41.3438 19.7188 41.3438 19.0312C41.3438 18.3438 41.3125 17.4688 41.25 16.4062C41.1875 15.2812 41.0938 14.3438 40.9688 13.5938C40.8438 12.7812 40.6875 12.125 40.5 11.625C39.75 9.6875 38.4062 8.34375 36.4688 7.59375C35.9688 7.40625 35.3125 7.25 34.5 7.125C33.75 7 32.8125 6.90625 31.6875 6.84375C30.625 6.78125 29.75 6.75 29.0625 6.75C28.4375 6.75 27.4688 6.75 26.1562 6.75C24.9062 6.75 24.2188 6.75 24.0938 6.75C23.9688 6.75 23.2812 6.75 22.0312 6.75C20.7812 6.75 19.8125 6.75 19.125 6.75C18.4375 6.75 17.5312 6.78125 16.4062 6.84375C15.3438 6.90625 14.4062 7 13.5938 7.125C12.8438 7.25 12.2188 7.40625 11.7188 7.59375C9.78125 8.34375 8.4375 9.6875 7.6875 11.625C7.5 12.125 7.34375 12.7812 7.21875 13.5938C7.09375 14.3438 7 15.2812 6.9375 16.4062C6.875 17.4688 6.84375 18.3438 6.84375 19.0312C6.84375 19.6562 6.84375 20.625 6.84375 21.9375C6.84375 23.1875 6.84375 23.875 6.84375 24C6.84375 24.25 6.84375 24.8438 6.84375 25.7812C6.84375 26.6562 6.84375 27.4062 6.84375 28.0312C6.84375 28.5938 6.84375 29.3438 6.84375 30.2812C6.90625 31.2188 6.96875 32.0312 7.03125 32.7188C7.09375 33.3438 7.1875 34 7.3125 34.6875C7.4375 35.375 7.5625 35.9375 7.6875 36.375C8.5 38.3125 9.84375 39.6562 11.7188 40.4062C12.2188 40.5938 12.8438 40.75 13.5938 40.875C14.4062 41 15.3438 41.0938 16.4062 41.1562C17.5312 41.2188 18.4062 41.25 19.0312 41.25C19.7188 41.25 20.6875 41.25 21.9375 41.25C23.25 41.25 23.9688 41.25 24.0938 41.25C24.2812 41.25 24.9688 41.25 26.1562 41.25C27.4062 41.25 28.375 41.25 29.0625 41.25C29.75 41.25 30.625 41.2188 31.6875 41.1562C32.8125 41.0938 33.75 41 34.5 40.875C35.3125 40.75 35.9688 40.5938 36.4688 40.4062C38.4062 39.5938 39.75 38.25 40.5 36.375Z" fill="#8093A6"/>
</svg>
