<svg width="48" height="48" viewBox="0 0 48 48" fill="none" xmlns="http://www.w3.org/2000/svg">
<path d="M12.375 45H3.65625V16.9688H12.375V45ZM8.0625 13.125C6.6875 13.125 5.5 12.625 4.5 11.625C3.5 10.625 3 9.4375 3 8.0625C3 6.6875 3.5 5.5 4.5 4.5C5.5 3.5 6.6875 3 8.0625 3C8.9375 3 9.75 3.21875 10.5 3.65625C11.3125 4.09375 11.9375 4.71875 12.375 5.53125C12.875 6.28125 13.125 7.125 13.125 8.0625C13.125 8.9375 12.875 9.78125 12.375 10.5938C11.9375 11.3438 11.3125 11.9688 10.5 12.4688C9.75 12.9063 8.9375 13.125 8.0625 13.125ZM45 45H36.2812V31.3125C36.2812 30.25 36.25 29.4062 36.1875 28.7812C36.125 28.0938 35.9688 27.3438 35.7188 26.5312C35.4688 25.6562 35 25 34.3125 24.5625C33.6875 24.125 32.8438 23.9062 31.7812 23.9062C29.7188 23.9062 28.3125 24.5625 27.5625 25.875C26.875 27.1875 26.5312 28.9375 26.5312 31.125V45H17.8125V16.9688H26.25V20.8125H26.3438C26.9688 19.5625 28 18.5 29.4375 17.625C30.875 16.6875 32.5938 16.2188 34.5938 16.2188C36.7188 16.2188 38.4688 16.5625 39.8438 17.25C41.2812 17.875 42.3438 18.8438 43.0312 20.1562C43.7812 21.4062 44.2812 22.7812 44.5312 24.2812C44.8438 25.7812 45 27.5625 45 29.625V45Z" fill="#8093A6"/>
</svg>
