<svg width="19" height="22" viewBox="0 0 19 22" fill="none" xmlns="http://www.w3.org/2000/svg">
<path fill-rule="evenodd" clip-rule="evenodd" d="M12.2143 6.78571H6.78571V5.42857C6.78571 3.93571 8.00714 2.71429 9.5 2.71429C10.9929 2.71429 12.2143 3.93571 12.2143 5.42857V6.78571ZM10.8571 15.8786V17.6429H8.14286V15.8786C7.32857 15.4714 6.78571 14.5214 6.78571 13.5714C6.78571 12.0786 8.00714 10.8571 9.5 10.8571C10.9929 10.8571 12.2143 12.0786 12.2143 13.5714C12.2143 14.5214 11.6714 15.4714 10.8571 15.8786ZM9.5 0C6.51429 0 4.07143 2.44286 4.07143 5.42857V6.78571H1.35714C0.542857 6.78571 0 7.32857 0 8.14286V20.3571C0 21.1714 0.542857 21.7143 1.35714 21.7143H17.6429C18.4571 21.7143 19 21.1714 19 20.3571V8.14286C19 7.32857 18.4571 6.78571 17.6429 6.78571H14.9286V5.42857C14.9286 2.44286 12.4857 0 9.5 0Z" fill="#3C78FB"/>
</svg>
