<svg width="60" height="60" viewBox="0 0 90 90" fill="none" xmlns="http://www.w3.org/2000/svg">
<mask id="path-1-inside-1" fill="white">
<path d="M76.8198 76.8198C70.5264 83.1132 62.5082 87.399 53.7791 89.1353C45.0499 90.8717 36.0019 89.9805 27.7792 86.5746C19.5566 83.1686 12.5285 77.4009 7.58387 70.0007C2.6392 62.6004 5.4815e-07 53.9002 0 45C-5.4815e-07 36.0998 2.6392 27.3996 7.58387 19.9993C12.5285 12.5991 19.5566 6.83137 27.7792 3.42542C36.0019 0.0194786 45.0499 -0.871673 53.7791 0.864661C62.5082 2.601 70.5264 6.88683 76.8198 13.1802L60.9099 29.0901C57.7632 25.9434 53.7541 23.8005 49.3895 22.9323C45.025 22.0642 40.501 22.5097 36.3896 24.2127C32.2783 25.9157 28.7643 28.7996 26.2919 32.4997C23.8196 36.1998 22.5 40.5499 22.5 45C22.5 49.4501 23.8196 53.8002 26.2919 57.5003C28.7643 61.2004 32.2783 64.0843 36.3896 65.7873C40.501 67.4903 45.025 67.9358 49.3895 67.0677C53.7541 66.1995 57.7632 64.0566 60.9099 60.9099L76.8198 76.8198Z"/>
</mask>
<path d="M76.8198 76.8198C70.5264 83.1132 62.5082 87.399 53.7791 89.1353C45.0499 90.8717 36.0019 89.9805 27.7792 86.5746C19.5566 83.1686 12.5285 77.4009 7.58387 70.0007C2.6392 62.6004 5.4815e-07 53.9002 0 45C-5.4815e-07 36.0998 2.6392 27.3996 7.58387 19.9993C12.5285 12.5991 19.5566 6.83137 27.7792 3.42542C36.0019 0.0194786 45.0499 -0.871673 53.7791 0.864661C62.5082 2.601 70.5264 6.88683 76.8198 13.1802L60.9099 29.0901C57.7632 25.9434 53.7541 23.8005 49.3895 22.9323C45.025 22.0642 40.501 22.5097 36.3896 24.2127C32.2783 25.9157 28.7643 28.7996 26.2919 32.4997C23.8196 36.1998 22.5 40.5499 22.5 45C22.5 49.4501 23.8196 53.8002 26.2919 57.5003C28.7643 61.2004 32.2783 64.0843 36.3896 65.7873C40.501 67.4903 45.025 67.9358 49.3895 67.0677C53.7541 66.1995 57.7632 64.0566 60.9099 60.9099L76.8198 76.8198Z" stroke="#1D3557" stroke-width="10" mask="url(#path-1-inside-1)"/>
</svg>
