<svg width="52" height="60" viewBox="0 0 52 60" fill="none" xmlns="http://www.w3.org/2000/svg">
<mask id="path-1-inside-1" fill="white">
<path d="M51.2132 51.2132C47.0176 55.4088 41.6721 58.266 35.8527 59.4236C30.0333 60.5811 24.0013 59.987 18.5195 57.7164C13.0377 55.4458 8.35236 51.6006 5.05591 46.6671C1.75947 41.7336 3.65434e-07 35.9334 0 30C-3.65434e-07 24.0666 1.75947 18.2664 5.05591 13.3329C8.35235 8.39942 13.0377 4.55424 18.5195 2.28362C24.0013 0.0129857 30.0333 -0.581115 35.8527 0.576441C41.6721 1.734 47.0176 4.59122 51.2132 8.78679L40.6066 19.3934C38.5088 17.2956 35.8361 15.867 32.9264 15.2882C30.0166 14.7094 27.0006 15.0065 24.2597 16.1418C21.5189 17.2771 19.1762 19.1997 17.528 21.6664C15.8797 24.1332 15 27.0333 15 30C15 32.9667 15.8797 35.8668 17.528 38.3336C19.1762 40.8003 21.5189 42.7229 24.2597 43.8582C27.0006 44.9935 30.0166 45.2906 32.9264 44.7118C35.8361 44.133 38.5088 42.7044 40.6066 40.6066L51.2132 51.2132Z"/>
</mask>
<path d="M51.2132 51.2132C47.0176 55.4088 41.6721 58.266 35.8527 59.4236C30.0333 60.5811 24.0013 59.987 18.5195 57.7164C13.0377 55.4458 8.35236 51.6006 5.05591 46.6671C1.75947 41.7336 3.65434e-07 35.9334 0 30C-3.65434e-07 24.0666 1.75947 18.2664 5.05591 13.3329C8.35235 8.39942 13.0377 4.55424 18.5195 2.28362C24.0013 0.0129857 30.0333 -0.581115 35.8527 0.576441C41.6721 1.734 47.0176 4.59122 51.2132 8.78679L40.6066 19.3934C38.5088 17.2956 35.8361 15.867 32.9264 15.2882C30.0166 14.7094 27.0006 15.0065 24.2597 16.1418C21.5189 17.2771 19.1762 19.1997 17.528 21.6664C15.8797 24.1332 15 27.0333 15 30C15 32.9667 15.8797 35.8668 17.528 38.3336C19.1762 40.8003 21.5189 42.7229 24.2597 43.8582C27.0006 44.9935 30.0166 45.2906 32.9264 44.7118C35.8361 44.133 38.5088 42.7044 40.6066 40.6066L51.2132 51.2132Z" stroke="#828282" stroke-width="10" mask="url(#path-1-inside-1)"/>
</svg>
