<svg width="36" height="37" viewBox="0 0 36 37" fill="none" xmlns="http://www.w3.org/2000/svg">
<path fill-rule="evenodd" clip-rule="evenodd" d="M30.7279 30.7279C30.2478 31.208 29.7426 31.6588 29.2152 32.079C26.9769 33.862 24.3374 35.092 21.5116 35.6541C18.0199 36.3486 14.4007 35.9922 11.1117 34.6298C7.82262 33.2674 5.0114 30.9603 3.03354 28.0002C1.05568 25.0401 2.1926e-07 21.56 0 18C-2.1926e-07 14.4399 1.05568 10.9598 3.03354 7.99973C5.0114 5.03965 7.82261 2.73255 11.1117 1.37018C14.4007 0.00779951 18.0199 -0.34866 21.5116 0.345872C24.3374 0.907953 26.9769 2.13796 29.2152 3.92098C29.7426 4.34114 30.2478 4.792 30.7279 5.27208L24.3639 11.636C23.1052 10.3774 21.5016 9.52019 19.7558 9.17293C18.01 8.82566 16.2004 9.00389 14.5558 9.68508C12.9113 10.3663 11.5057 11.5198 10.5168 12.9999C9.52783 14.4799 8.99999 16.22 8.99999 18C8.99999 19.78 9.52783 21.5201 10.5168 23.0001C11.5057 24.4801 12.9113 25.6337 14.5558 26.3149C16.2004 26.9961 18.01 27.1743 19.7558 26.827C21.5016 26.4798 23.1052 25.6226 24.3639 24.3639L30.7279 30.7279ZM24.2313 27.0951C23.007 27.9338 21.62 28.5209 20.1508 28.8131C18.0122 29.2385 15.7954 29.0202 13.7809 28.1857C11.7663 27.3513 10.0445 25.9382 8.83303 24.1251C7.62159 22.3121 6.97499 20.1805 6.97499 18C6.97499 15.8194 7.62159 13.6879 8.83303 11.8748C10.0445 10.0618 11.7663 8.64868 13.7809 7.81423C15.7954 6.97977 18.0122 6.76144 20.1508 7.18684C21.62 7.47908 23.007 8.06611 24.2313 8.90487L27.773 5.36319C25.8257 3.8572 23.5489 2.81578 21.1165 2.33196C18.0177 1.71556 14.8057 2.03192 11.8866 3.24103C8.96757 4.45014 6.47262 6.49769 4.71726 9.12476C2.96191 11.7518 2.025 14.8404 2.025 18C2.025 21.1595 2.96191 24.2481 4.71727 26.8752C6.47262 29.5023 8.96757 31.5498 11.8866 32.7589C14.8057 33.968 18.0177 34.2844 21.1165 33.668C23.5489 33.1842 25.8257 32.1428 27.773 30.6368L24.2313 27.0951Z" fill="white"/>
<path d="M35.183 30.7279C32.6656 33.2452 29.4583 34.9596 25.9667 35.6541C22.475 36.3486 18.8558 35.9922 15.5668 34.6298C12.2777 33.2674 9.46648 30.9603 7.48862 28.0002C5.51076 25.0401 4.45508 21.56 4.45508 18C4.45508 14.4399 5.51076 10.9598 7.48862 7.99973C9.46648 5.03965 12.2777 2.73255 15.5668 1.37018C18.8558 0.00779951 22.475 -0.34866 25.9667 0.345872C29.4583 1.0404 32.6656 2.75474 35.1829 5.27208L28.819 11.636C27.5603 10.3774 25.9567 9.52019 24.2109 9.17293C22.465 8.82566 20.6554 9.00389 19.0109 9.68508C17.3664 10.3663 15.9608 11.5198 14.9718 12.9999C13.9829 14.4799 13.4551 16.22 13.4551 18C13.4551 19.78 13.9829 21.5201 14.9718 23.0001C15.9608 24.4801 17.3664 25.6337 19.0109 26.3149C20.6554 26.9961 22.465 27.1743 24.2109 26.827C25.9567 26.4798 27.5603 25.6226 28.819 24.3639L35.183 30.7279Z" fill="#595959"/>
<path fill-rule="evenodd" clip-rule="evenodd" d="M22.3199 0H17.9099V0.359999H18.8731C17.7465 0.588764 16.6391 0.92601 15.5668 1.37018C12.2777 2.73255 9.46648 5.03965 7.48862 7.99973C5.51076 10.9598 4.45508 14.4399 4.45508 18C4.45508 21.56 5.51076 25.0401 7.48862 28.0002C9.46648 30.9603 12.2777 33.2674 15.5668 34.6298C16.6391 35.074 17.7465 35.4112 18.8732 35.64H17.9099V36H22.3199V35.9995C23.5381 36.0086 24.76 35.8941 25.9667 35.6541C28.7924 35.092 31.432 33.862 33.6703 32.079C34.1977 31.6588 34.7029 31.208 35.183 30.7279L28.819 24.3639L28.8 24.3828V24.345H24.345V26.28H25.9823C25.415 26.5216 24.8216 26.7055 24.2109 26.827C22.465 27.1743 20.6554 26.9961 19.0109 26.3149C17.3664 25.6337 15.9608 24.4801 14.9718 23.0001C13.9829 21.5201 13.4551 19.78 13.4551 18C13.4551 16.22 13.9829 14.4799 14.9718 12.9999C15.9608 11.5198 17.3664 10.3663 19.0109 9.68508C20.6554 9.00389 22.465 8.82566 24.2109 9.17293C24.8216 9.29442 25.415 9.47832 25.9823 9.71999H24.345V11.655H28.8V11.6171L28.819 11.636L35.1829 5.27208C34.7029 4.792 34.1977 4.34114 33.6703 3.92098C31.432 2.13796 28.7924 0.907953 25.9667 0.345872C24.76 0.105853 23.5381 -0.00864797 22.3199 0.000508552V0ZM28.6864 27.0951C27.4621 27.9338 26.0751 28.5209 24.6059 28.8131C22.4673 29.2385 20.2505 29.0202 18.236 28.1857C16.2214 27.3513 14.4996 25.9382 13.2881 24.1251C12.0767 22.3121 11.4301 20.1805 11.4301 18C11.4301 15.8194 12.0767 13.6879 13.2881 11.8748C14.4996 10.0618 16.2214 8.64868 18.236 7.81423C20.2505 6.97977 22.4673 6.76144 24.6059 7.18684C26.0751 7.47908 27.4621 8.06611 28.6864 8.90487L32.2281 5.36319C30.2808 3.8572 28.0039 2.81578 25.5716 2.33196C22.4728 1.71556 19.2607 2.03192 16.3417 3.24103C13.4226 4.45014 10.9277 6.49769 9.17234 9.12476C7.41699 11.7518 6.48007 14.8404 6.48007 18C6.48007 21.1595 7.41699 24.2481 9.17234 26.8752C10.9277 29.5023 13.4226 31.5498 16.3417 32.7589C19.2607 33.968 22.4728 34.2844 25.5716 33.668C28.0039 33.1842 30.2808 32.1428 32.2281 30.6368L28.6864 27.0951Z" fill="white"/>
</svg>
