<svg width="121" height="88" viewBox="0 0 121 88" fill="none" xmlns="http://www.w3.org/2000/svg">
<path d="M9.168 71.104C8.992 70.848 8.744 70.64 8.424 70.48C8.104 70.304 7.76 70.216 7.392 70.216C6.48 70.216 5.768 70.488 5.256 71.032C4.76 71.576 4.512 72.288 4.512 73.168C4.512 74.048 4.76 74.76 5.256 75.304C5.768 75.848 6.48 76.12 7.392 76.12C7.792 76.12 8.136 76.032 8.424 75.856C8.712 75.68 8.96 75.472 9.168 75.232L11.544 77.728C10.984 78.304 10.32 78.712 9.552 78.952C8.8 79.176 8.08 79.288 7.392 79.288C6.496 79.288 5.648 79.144 4.848 78.856C4.064 78.568 3.376 78.16 2.784 77.632C2.208 77.088 1.752 76.44 1.416 75.688C1.08 74.936 0.912 74.096 0.912 73.168C0.912 72.24 1.08 71.4 1.416 70.648C1.752 69.896 2.208 69.256 2.784 68.728C3.376 68.184 4.064 67.768 4.848 67.48C5.648 67.192 6.496 67.048 7.392 67.048C8.08 67.048 8.8 67.168 9.552 67.408C10.32 67.632 10.984 68.032 11.544 68.608L9.168 71.104ZM12.6681 73.168C12.6681 72.24 12.8361 71.4 13.1721 70.648C13.5081 69.896 13.9641 69.256 14.5401 68.728C15.1321 68.184 15.8201 67.768 16.6041 67.48C17.4041 67.192 18.2521 67.048 19.1481 67.048C20.0441 67.048 20.8841 67.192 21.6681 67.48C22.4681 67.768 23.1561 68.184 23.7321 68.728C24.3241 69.256 24.7881 69.896 25.1241 70.648C25.4601 71.4 25.6281 72.24 25.6281 73.168C25.6281 74.096 25.4601 74.936 25.1241 75.688C24.7881 76.44 24.3241 77.088 23.7321 77.632C23.1561 78.16 22.4681 78.568 21.6681 78.856C20.8841 79.144 20.0441 79.288 19.1481 79.288C18.2521 79.288 17.4041 79.144 16.6041 78.856C15.8201 78.568 15.1321 78.16 14.5401 77.632C13.9641 77.088 13.5081 76.44 13.1721 75.688C12.8361 74.936 12.6681 74.096 12.6681 73.168ZM16.2681 73.168C16.2681 74.048 16.5161 74.76 17.0121 75.304C17.5241 75.848 18.2361 76.12 19.1481 76.12C20.0601 76.12 20.7641 75.848 21.2601 75.304C21.7721 74.76 22.0281 74.048 22.0281 73.168C22.0281 72.288 21.7721 71.576 21.2601 71.032C20.7641 70.488 20.0601 70.216 19.1481 70.216C18.2361 70.216 17.5241 70.488 17.0121 71.032C16.5161 71.576 16.2681 72.288 16.2681 73.168ZM27.9986 67.336H31.4546V68.92H31.5026C31.6146 68.696 31.7746 68.472 31.9826 68.248C32.1906 68.024 32.4386 67.824 32.7266 67.648C33.0146 67.472 33.3426 67.328 33.7106 67.216C34.0786 67.104 34.4786 67.048 34.9106 67.048C35.8226 67.048 36.5586 67.192 37.1186 67.48C37.6786 67.752 38.1106 68.136 38.4146 68.632C38.7346 69.128 38.9506 69.712 39.0626 70.384C39.1746 71.056 39.2306 71.784 39.2306 72.568V79H35.6306V73.288C35.6306 72.952 35.6146 72.608 35.5826 72.256C35.5666 71.888 35.4946 71.552 35.3666 71.248C35.2546 70.944 35.0706 70.696 34.8146 70.504C34.5746 70.312 34.2226 70.216 33.7586 70.216C33.2946 70.216 32.9186 70.304 32.6306 70.48C32.3426 70.64 32.1186 70.864 31.9586 71.152C31.8146 71.424 31.7186 71.736 31.6706 72.088C31.6226 72.44 31.5986 72.808 31.5986 73.192V79H27.9986V67.336ZM49.9738 70.216H46.8058V74.104C46.8058 74.424 46.8218 74.72 46.8538 74.992C46.8858 75.248 46.9578 75.472 47.0698 75.664C47.1818 75.856 47.3498 76.008 47.5738 76.12C47.8138 76.216 48.1258 76.264 48.5098 76.264C48.7018 76.264 48.9498 76.248 49.2538 76.216C49.5738 76.168 49.8138 76.072 49.9738 75.928V78.928C49.5738 79.072 49.1578 79.168 48.7258 79.216C48.2938 79.264 47.8698 79.288 47.4538 79.288C46.8458 79.288 46.2858 79.224 45.7738 79.096C45.2618 78.968 44.8138 78.768 44.4298 78.496C44.0458 78.208 43.7418 77.84 43.5178 77.392C43.3098 76.944 43.2058 76.4 43.2058 75.76V70.216H40.9018V67.336H43.2058V63.88H46.8058V67.336H49.9738V70.216ZM52.1013 67.336H55.7013V79H52.1013V67.336ZM51.8133 63.664C51.8133 63.088 52.0133 62.6 52.4133 62.2C52.8293 61.784 53.3253 61.576 53.9013 61.576C54.4773 61.576 54.9653 61.784 55.3653 62.2C55.7813 62.6 55.9893 63.088 55.9893 63.664C55.9893 64.24 55.7813 64.736 55.3653 65.152C54.9653 65.552 54.4773 65.752 53.9013 65.752C53.3253 65.752 52.8293 65.552 52.4133 65.152C52.0133 64.736 51.8133 64.24 51.8133 63.664ZM58.5376 67.336H61.9936V68.92H62.0416C62.1536 68.696 62.3136 68.472 62.5216 68.248C62.7296 68.024 62.9776 67.824 63.2656 67.648C63.5536 67.472 63.8816 67.328 64.2496 67.216C64.6176 67.104 65.0176 67.048 65.4496 67.048C66.3616 67.048 67.0976 67.192 67.6576 67.48C68.2176 67.752 68.6496 68.136 68.9536 68.632C69.2736 69.128 69.4896 69.712 69.6016 70.384C69.7136 71.056 69.7696 71.784 69.7696 72.568V79H66.1696V73.288C66.1696 72.952 66.1536 72.608 66.1216 72.256C66.1056 71.888 66.0336 71.552 65.9056 71.248C65.7936 70.944 65.6096 70.696 65.3536 70.504C65.1136 70.312 64.7616 70.216 64.2976 70.216C63.8336 70.216 63.4576 70.304 63.1696 70.48C62.8816 70.64 62.6576 70.864 62.4976 71.152C62.3536 71.424 62.2576 71.736 62.2096 72.088C62.1616 72.44 62.1376 72.808 62.1376 73.192V79H58.5376V67.336ZM83.8009 79H80.3449V77.416H80.2969C80.1689 77.64 80.0009 77.864 79.7929 78.088C79.6009 78.312 79.3609 78.512 79.0729 78.688C78.7849 78.864 78.4569 79.008 78.0889 79.12C77.7209 79.232 77.3209 79.288 76.8889 79.288C75.9769 79.288 75.2329 79.152 74.6569 78.88C74.0969 78.592 73.6569 78.2 73.3369 77.704C73.0329 77.208 72.8249 76.624 72.7129 75.952C72.6169 75.28 72.5689 74.552 72.5689 73.768V67.336H76.1689V73.048C76.1689 73.384 76.1769 73.736 76.1929 74.104C76.2249 74.456 76.2969 74.784 76.4089 75.088C76.5369 75.392 76.7209 75.64 76.9609 75.832C77.2169 76.024 77.5769 76.12 78.0409 76.12C78.5049 76.12 78.8809 76.04 79.1689 75.88C79.4569 75.704 79.6729 75.48 79.8169 75.208C79.9769 74.92 80.0809 74.6 80.1289 74.248C80.1769 73.896 80.2009 73.528 80.2009 73.144V67.336H83.8009V79ZM97.8321 79H94.3761V77.416H94.3281C94.2001 77.64 94.0321 77.864 93.8241 78.088C93.6321 78.312 93.3921 78.512 93.1041 78.688C92.8161 78.864 92.4881 79.008 92.1201 79.12C91.7521 79.232 91.3521 79.288 90.9201 79.288C90.0081 79.288 89.2641 79.152 88.6881 78.88C88.1281 78.592 87.6881 78.2 87.3681 77.704C87.0641 77.208 86.8561 76.624 86.7441 75.952C86.6481 75.28 86.6001 74.552 86.6001 73.768V67.336H90.2001V73.048C90.2001 73.384 90.2081 73.736 90.2241 74.104C90.2561 74.456 90.3281 74.784 90.4401 75.088C90.5681 75.392 90.7521 75.64 90.9921 75.832C91.2481 76.024 91.6081 76.12 92.0721 76.12C92.5361 76.12 92.9121 76.04 93.2001 75.88C93.4881 75.704 93.7041 75.48 93.8481 75.208C94.0081 74.92 94.1121 74.6 94.1601 74.248C94.2081 73.896 94.2321 73.528 94.2321 73.144V67.336H97.8321V79ZM100.631 67.336H104.087V68.92H104.135C104.247 68.696 104.407 68.472 104.615 68.248C104.823 68.024 105.071 67.824 105.359 67.648C105.647 67.472 105.975 67.328 106.343 67.216C106.711 67.104 107.111 67.048 107.543 67.048C108.359 67.048 109.079 67.216 109.703 67.552C110.343 67.888 110.823 68.416 111.143 69.136C111.559 68.384 112.063 67.848 112.655 67.528C113.247 67.208 113.975 67.048 114.839 67.048C115.623 67.048 116.279 67.184 116.807 67.456C117.351 67.712 117.775 68.072 118.079 68.536C118.399 68.984 118.623 69.52 118.751 70.144C118.895 70.752 118.967 71.408 118.967 72.112V79H115.367V72.208C115.367 71.664 115.247 71.2 115.007 70.816C114.783 70.416 114.375 70.216 113.783 70.216C113.367 70.216 113.015 70.288 112.727 70.432C112.455 70.56 112.231 70.744 112.055 70.984C111.895 71.224 111.775 71.504 111.695 71.824C111.631 72.144 111.599 72.48 111.599 72.832V79H107.999V72.832C107.999 72.624 107.991 72.368 107.975 72.064C107.959 71.76 107.903 71.472 107.807 71.2C107.711 70.928 107.551 70.696 107.327 70.504C107.119 70.312 106.807 70.216 106.391 70.216C105.927 70.216 105.551 70.304 105.263 70.48C104.975 70.64 104.751 70.864 104.591 71.152C104.447 71.424 104.351 71.736 104.303 72.088C104.255 72.44 104.231 72.808 104.231 73.192V79H100.631V67.336Z" fill="black"/>
<path fill-rule="evenodd" clip-rule="evenodd" d="M77.9705 40.9706C77.3304 41.6107 76.6569 42.2118 75.9536 42.772C72.9692 45.1494 69.4499 46.7894 65.6822 47.5388C61.0266 48.4649 56.201 47.9896 51.8156 46.1731C47.4302 44.3566 43.6819 41.2805 41.0447 37.3337C38.4076 33.3869 37 28.7467 37 24C37 19.2533 38.4076 14.6131 41.0447 10.6663C43.6819 6.71954 47.4302 3.6434 51.8156 1.8269C56.201 0.0103994 61.0266 -0.464881 65.6822 0.461163C69.4499 1.21061 72.9692 2.85061 75.9536 5.22798C76.6569 5.78819 77.3304 6.38935 77.9705 7.02944L69.4853 15.5147C67.807 13.8365 65.6688 12.6936 63.3411 12.2306C61.0133 11.7676 58.6005 12.0052 56.4078 12.9135C54.2151 13.8217 52.3409 15.3598 51.0224 17.3332C49.7038 19.3065 49 21.6266 49 24C49 26.3734 49.7038 28.6935 51.0224 30.6668C52.3409 32.6402 54.2151 34.1783 56.4078 35.0865C58.6005 35.9948 61.0133 36.2324 63.3411 35.7694C65.6688 35.3064 67.807 34.1635 69.4853 32.4853L77.9705 40.9706ZM69.3084 36.1268C67.6761 37.2452 65.8268 38.0279 63.8678 38.4175C61.0163 38.9847 58.0606 38.6936 55.3745 37.581C52.6885 36.4684 50.3926 34.5843 48.7774 32.1669C47.1621 29.7495 46.3 26.9074 46.3 24C46.3 21.0926 47.1621 18.2505 48.7774 15.8331C50.3926 13.4157 52.6885 11.5316 55.3745 10.419C58.0606 9.30637 61.0163 9.01526 63.8678 9.58246C65.8267 9.97212 67.6761 10.7548 69.3084 11.8732L74.0307 7.15093C71.4343 5.14294 68.3985 3.75437 65.1554 3.10928C61.0236 2.28742 56.7409 2.70923 52.8488 4.32138C48.9568 5.93352 45.6302 8.66359 43.2897 12.1664C40.9492 15.6691 39.7 19.7873 39.7 24C39.7 28.2127 40.9492 32.3309 43.2897 35.8336C45.6302 39.3364 48.9568 42.0665 52.8488 43.6786C56.7409 45.2908 61.0236 45.7126 65.1554 44.8907C68.3985 44.2456 71.4343 42.8571 74.0307 40.8491L69.3084 36.1268Z" fill="black"/>
<path d="M83.91 40.9706C80.5535 44.327 76.2771 46.6128 71.6216 47.5388C66.9661 48.4649 62.1405 47.9896 57.755 46.1731C53.3696 44.3566 49.6213 41.2805 46.9842 37.3337C44.347 33.3869 42.9395 28.7468 42.9395 24C42.9395 19.2533 44.347 14.6131 46.9842 10.6663C49.6213 6.71954 53.3696 3.6434 57.755 1.8269C62.1405 0.0103994 66.9661 -0.464881 71.6216 0.461163C76.2771 1.38721 80.5535 3.67298 83.91 7.02944L75.4247 15.5147C73.7465 13.8365 71.6083 12.6936 69.2805 12.2306C66.9528 11.7676 64.54 12.0052 62.3472 12.9135C60.1545 13.8217 58.2804 15.3598 56.9618 17.3332C55.6432 19.3065 54.9394 21.6266 54.9394 24C54.9394 26.3734 55.6432 28.6935 56.9618 30.6668C58.2804 32.6402 60.1545 34.1783 62.3472 35.0865C64.54 35.9948 66.9528 36.2324 69.2805 35.7694C71.6083 35.3064 73.7465 34.1635 75.4247 32.4853L83.91 40.9706Z" fill="white"/>
<path fill-rule="evenodd" clip-rule="evenodd" d="M66.8199 0H60.9399V0.48H62.224C60.7219 0.785019 59.2453 1.23468 57.8156 1.8269C53.4302 3.64341 49.6819 6.71954 47.0447 10.6663C44.4076 14.6131 43 19.2533 43 24C43 28.7468 44.4076 33.3869 47.0447 37.3337C49.6819 41.2805 53.4302 44.3566 57.8156 46.1731C59.2453 46.7653 60.7218 47.215 62.224 47.52H60.9399V48H66.8199V47.9993C68.4442 48.0115 70.0733 47.8589 71.6822 47.5388C75.4499 46.7894 78.9692 45.1494 81.9536 42.772C82.6569 42.2118 83.3304 41.6106 83.9705 40.9706L75.4853 32.4853L75.46 32.5105V32.46H69.52V35.04H71.703C70.9466 35.3622 70.1555 35.6074 69.3411 35.7694C67.0133 36.2324 64.6005 35.9948 62.4078 35.0865C60.2151 34.1783 58.3409 32.6402 57.0224 30.6668C55.7038 28.6935 55 26.3734 55 24C55 21.6266 55.7038 19.3066 57.0224 17.3332C58.3409 15.3598 60.2151 13.8217 62.4078 12.9135C64.6005 12.0052 67.0133 11.7676 69.3411 12.2306C70.1554 12.3926 70.9466 12.6378 71.703 12.96H69.52V15.54H75.46V15.4895L75.4853 15.5147L83.9705 7.02944C83.3304 6.38935 82.6569 5.78819 81.9536 5.22798C78.9692 2.85061 75.4499 1.21061 71.6821 0.461163C70.0733 0.141145 68.4442 -0.0115238 66.8199 0.000677122V0ZM75.3084 36.1268C73.6761 37.2452 71.8267 38.0279 69.8678 38.4175C67.0163 38.9847 64.0606 38.6936 61.3745 37.581C58.6885 36.4684 56.3926 34.5843 54.7774 32.1669C53.1621 29.7495 52.3 26.9074 52.3 24C52.3 21.0926 53.1621 18.2505 54.7774 15.8331C56.3926 13.4157 58.6885 11.5316 61.3745 10.419C64.0606 9.30637 67.0163 9.01526 69.8678 9.58246C71.8267 9.97212 73.6761 10.7548 75.3084 11.8732L80.0307 7.15093C77.4343 5.14294 74.3985 3.75437 71.1554 3.10928C67.0236 2.28742 62.7409 2.70923 58.8488 4.32138C54.9568 5.93352 51.6302 8.6636 49.2897 12.1664C46.9492 15.6691 45.7 19.7873 45.7 24C45.7 28.2127 46.9492 32.3309 49.2897 35.8336C51.6302 39.3364 54.9568 42.0665 58.8488 43.6786C62.7409 45.2908 67.0236 45.7126 71.1554 44.8907C74.3985 44.2456 77.4343 42.8571 80.0307 40.8491L75.3084 36.1268Z" fill="black"/>
</svg>
