<svg width="198" height="48" viewBox="0 0 198 48" fill="none" xmlns="http://www.w3.org/2000/svg">
<path d="M64.168 23.104C63.992 22.848 63.744 22.64 63.424 22.48C63.104 22.304 62.76 22.216 62.392 22.216C61.48 22.216 60.768 22.488 60.256 23.032C59.76 23.576 59.512 24.288 59.512 25.168C59.512 26.048 59.76 26.76 60.256 27.304C60.768 27.848 61.48 28.12 62.392 28.12C62.792 28.12 63.136 28.032 63.424 27.856C63.712 27.68 63.96 27.472 64.168 27.232L66.544 29.728C65.984 30.304 65.32 30.712 64.552 30.952C63.8 31.176 63.08 31.288 62.392 31.288C61.496 31.288 60.648 31.144 59.848 30.856C59.064 30.568 58.376 30.16 57.784 29.632C57.208 29.088 56.752 28.44 56.416 27.688C56.08 26.936 55.912 26.096 55.912 25.168C55.912 24.24 56.08 23.4 56.416 22.648C56.752 21.896 57.208 21.256 57.784 20.728C58.376 20.184 59.064 19.768 59.848 19.48C60.648 19.192 61.496 19.048 62.392 19.048C63.08 19.048 63.8 19.168 64.552 19.408C65.32 19.632 65.984 20.032 66.544 20.608L64.168 23.104ZM67.6681 25.168C67.6681 24.24 67.8361 23.4 68.1721 22.648C68.5081 21.896 68.9641 21.256 69.5401 20.728C70.1321 20.184 70.8201 19.768 71.6041 19.48C72.4041 19.192 73.2521 19.048 74.1481 19.048C75.0441 19.048 75.8841 19.192 76.6681 19.48C77.4681 19.768 78.1561 20.184 78.7321 20.728C79.3241 21.256 79.7881 21.896 80.1241 22.648C80.4601 23.4 80.6281 24.24 80.6281 25.168C80.6281 26.096 80.4601 26.936 80.1241 27.688C79.7881 28.44 79.3241 29.088 78.7321 29.632C78.1561 30.16 77.4681 30.568 76.6681 30.856C75.8841 31.144 75.0441 31.288 74.1481 31.288C73.2521 31.288 72.4041 31.144 71.6041 30.856C70.8201 30.568 70.1321 30.16 69.5401 29.632C68.9641 29.088 68.5081 28.44 68.1721 27.688C67.8361 26.936 67.6681 26.096 67.6681 25.168ZM71.2681 25.168C71.2681 26.048 71.5161 26.76 72.0121 27.304C72.5241 27.848 73.2361 28.12 74.1481 28.12C75.0601 28.12 75.7641 27.848 76.2601 27.304C76.7721 26.76 77.0281 26.048 77.0281 25.168C77.0281 24.288 76.7721 23.576 76.2601 23.032C75.7641 22.488 75.0601 22.216 74.1481 22.216C73.2361 22.216 72.5241 22.488 72.0121 23.032C71.5161 23.576 71.2681 24.288 71.2681 25.168ZM82.9986 19.336H86.4546V20.92H86.5026C86.6146 20.696 86.7746 20.472 86.9826 20.248C87.1906 20.024 87.4386 19.824 87.7266 19.648C88.0146 19.472 88.3426 19.328 88.7106 19.216C89.0786 19.104 89.4786 19.048 89.9106 19.048C90.8226 19.048 91.5586 19.192 92.1186 19.48C92.6786 19.752 93.1106 20.136 93.4146 20.632C93.7346 21.128 93.9506 21.712 94.0626 22.384C94.1746 23.056 94.2306 23.784 94.2306 24.568V31H90.6306V25.288C90.6306 24.952 90.6146 24.608 90.5826 24.256C90.5666 23.888 90.4946 23.552 90.3666 23.248C90.2546 22.944 90.0706 22.696 89.8146 22.504C89.5746 22.312 89.2226 22.216 88.7586 22.216C88.2946 22.216 87.9186 22.304 87.6306 22.48C87.3426 22.64 87.1186 22.864 86.9586 23.152C86.8146 23.424 86.7186 23.736 86.6706 24.088C86.6226 24.44 86.5986 24.808 86.5986 25.192V31H82.9986V19.336ZM104.974 22.216H101.806V26.104C101.806 26.424 101.822 26.72 101.854 26.992C101.886 27.248 101.958 27.472 102.07 27.664C102.182 27.856 102.35 28.008 102.574 28.12C102.814 28.216 103.126 28.264 103.51 28.264C103.702 28.264 103.95 28.248 104.254 28.216C104.574 28.168 104.814 28.072 104.974 27.928V30.928C104.574 31.072 104.158 31.168 103.726 31.216C103.294 31.264 102.87 31.288 102.454 31.288C101.846 31.288 101.286 31.224 100.774 31.096C100.262 30.968 99.8138 30.768 99.4298 30.496C99.0458 30.208 98.7418 29.84 98.5178 29.392C98.3098 28.944 98.2058 28.4 98.2058 27.76V22.216H95.9018V19.336H98.2058V15.88H101.806V19.336H104.974V22.216ZM107.101 19.336H110.701V31H107.101V19.336ZM106.813 15.664C106.813 15.088 107.013 14.6 107.413 14.2C107.829 13.784 108.325 13.576 108.901 13.576C109.477 13.576 109.965 13.784 110.365 14.2C110.781 14.6 110.989 15.088 110.989 15.664C110.989 16.24 110.781 16.736 110.365 17.152C109.965 17.552 109.477 17.752 108.901 17.752C108.325 17.752 107.829 17.552 107.413 17.152C107.013 16.736 106.813 16.24 106.813 15.664ZM113.538 19.336H116.994V20.92H117.042C117.154 20.696 117.314 20.472 117.522 20.248C117.73 20.024 117.978 19.824 118.266 19.648C118.554 19.472 118.882 19.328 119.25 19.216C119.618 19.104 120.018 19.048 120.45 19.048C121.362 19.048 122.098 19.192 122.658 19.48C123.218 19.752 123.65 20.136 123.954 20.632C124.274 21.128 124.49 21.712 124.602 22.384C124.714 23.056 124.77 23.784 124.77 24.568V31H121.17V25.288C121.17 24.952 121.154 24.608 121.122 24.256C121.106 23.888 121.034 23.552 120.906 23.248C120.794 22.944 120.61 22.696 120.354 22.504C120.114 22.312 119.762 22.216 119.298 22.216C118.834 22.216 118.458 22.304 118.17 22.48C117.882 22.64 117.658 22.864 117.498 23.152C117.354 23.424 117.258 23.736 117.21 24.088C117.162 24.44 117.138 24.808 117.138 25.192V31H113.538V19.336ZM138.801 31H135.345V29.416H135.297C135.169 29.64 135.001 29.864 134.793 30.088C134.601 30.312 134.361 30.512 134.073 30.688C133.785 30.864 133.457 31.008 133.089 31.12C132.721 31.232 132.321 31.288 131.889 31.288C130.977 31.288 130.233 31.152 129.657 30.88C129.097 30.592 128.657 30.2 128.337 29.704C128.033 29.208 127.825 28.624 127.713 27.952C127.617 27.28 127.569 26.552 127.569 25.768V19.336H131.169V25.048C131.169 25.384 131.177 25.736 131.193 26.104C131.225 26.456 131.297 26.784 131.409 27.088C131.537 27.392 131.721 27.64 131.961 27.832C132.217 28.024 132.577 28.12 133.041 28.12C133.505 28.12 133.881 28.04 134.169 27.88C134.457 27.704 134.673 27.48 134.817 27.208C134.977 26.92 135.081 26.6 135.129 26.248C135.177 25.896 135.201 25.528 135.201 25.144V19.336H138.801V31ZM152.832 31H149.376V29.416H149.328C149.2 29.64 149.032 29.864 148.824 30.088C148.632 30.312 148.392 30.512 148.104 30.688C147.816 30.864 147.488 31.008 147.12 31.12C146.752 31.232 146.352 31.288 145.92 31.288C145.008 31.288 144.264 31.152 143.688 30.88C143.128 30.592 142.688 30.2 142.368 29.704C142.064 29.208 141.856 28.624 141.744 27.952C141.648 27.28 141.6 26.552 141.6 25.768V19.336H145.2V25.048C145.2 25.384 145.208 25.736 145.224 26.104C145.256 26.456 145.328 26.784 145.44 27.088C145.568 27.392 145.752 27.64 145.992 27.832C146.248 28.024 146.608 28.12 147.072 28.12C147.536 28.12 147.912 28.04 148.2 27.88C148.488 27.704 148.704 27.48 148.848 27.208C149.008 26.92 149.112 26.6 149.16 26.248C149.208 25.896 149.232 25.528 149.232 25.144V19.336H152.832V31ZM155.631 19.336H159.087V20.92H159.135C159.247 20.696 159.407 20.472 159.615 20.248C159.823 20.024 160.071 19.824 160.359 19.648C160.647 19.472 160.975 19.328 161.343 19.216C161.711 19.104 162.111 19.048 162.543 19.048C163.359 19.048 164.079 19.216 164.703 19.552C165.343 19.888 165.823 20.416 166.143 21.136C166.559 20.384 167.063 19.848 167.655 19.528C168.247 19.208 168.975 19.048 169.839 19.048C170.623 19.048 171.279 19.184 171.807 19.456C172.351 19.712 172.775 20.072 173.079 20.536C173.399 20.984 173.623 21.52 173.751 22.144C173.895 22.752 173.967 23.408 173.967 24.112V31H170.367V24.208C170.367 23.664 170.247 23.2 170.007 22.816C169.783 22.416 169.375 22.216 168.783 22.216C168.367 22.216 168.015 22.288 167.727 22.432C167.455 22.56 167.231 22.744 167.055 22.984C166.895 23.224 166.775 23.504 166.695 23.824C166.631 24.144 166.599 24.48 166.599 24.832V31H162.999V24.832C162.999 24.624 162.991 24.368 162.975 24.064C162.959 23.76 162.903 23.472 162.807 23.2C162.711 22.928 162.551 22.696 162.327 22.504C162.119 22.312 161.807 22.216 161.391 22.216C160.927 22.216 160.551 22.304 160.263 22.48C159.975 22.64 159.751 22.864 159.591 23.152C159.447 23.424 159.351 23.736 159.303 24.088C159.255 24.44 159.231 24.808 159.231 25.192V31H155.631V19.336Z" fill="black"/>
<path fill-rule="evenodd" clip-rule="evenodd" d="M40.9705 40.9706C40.3304 41.6107 39.6569 42.2118 38.9536 42.772C35.9692 45.1494 32.4499 46.7894 28.6822 47.5388C24.0266 48.4649 19.201 47.9896 14.8156 46.1731C10.4302 44.3566 6.68188 41.2805 4.04473 37.3337C1.40758 33.3869 2.92347e-07 28.7467 0 24C-2.92347e-07 19.2533 1.40757 14.6131 4.04473 10.6663C6.68188 6.71954 10.4302 3.6434 14.8156 1.8269C19.201 0.0103994 24.0266 -0.464881 28.6822 0.461163C32.4499 1.21061 35.9692 2.85061 38.9536 5.22798C39.6569 5.78819 40.3304 6.38935 40.9705 7.02944L32.4853 15.5147C30.807 13.8365 28.6688 12.6936 26.3411 12.2306C24.0133 11.7676 21.6005 12.0052 19.4078 12.9135C17.2151 13.8217 15.3409 15.3598 14.0224 17.3332C12.7038 19.3065 12 21.6266 12 24C12 26.3734 12.7038 28.6935 14.0224 30.6668C15.3409 32.6402 17.2151 34.1783 19.4078 35.0865C21.6005 35.9948 24.0133 36.2324 26.3411 35.7694C28.6688 35.3064 30.807 34.1635 32.4853 32.4853L40.9705 40.9706ZM32.3084 36.1268C30.6761 37.2452 28.8268 38.0279 26.8678 38.4175C24.0163 38.9847 21.0606 38.6936 18.3745 37.581C15.6885 36.4684 13.3926 34.5843 11.7774 32.1669C10.1621 29.7495 9.3 26.9074 9.3 24C9.3 21.0926 10.1621 18.2505 11.7774 15.8331C13.3926 13.4157 15.6885 11.5316 18.3745 10.419C21.0606 9.30637 24.0163 9.01526 26.8678 9.58246C28.8267 9.97212 30.6761 10.7548 32.3084 11.8732L37.0307 7.15093C34.4343 5.14294 31.3985 3.75437 28.1554 3.10928C24.0236 2.28742 19.7409 2.70923 15.8488 4.32138C11.9568 5.93352 8.63017 8.66359 6.28969 12.1664C3.94922 15.6691 2.7 19.7873 2.7 24C2.7 28.2127 3.94922 32.3309 6.28969 35.8336C8.63017 39.3364 11.9568 42.0665 15.8488 43.6786C19.7409 45.2908 24.0236 45.7126 28.1554 44.8907C31.3985 44.2456 34.4343 42.8571 37.0307 40.8491L32.3084 36.1268Z" fill="black"/>
<path d="M46.9105 40.9706C43.554 44.327 39.2776 46.6128 34.6221 47.5388C29.9666 48.4649 25.141 47.9896 20.7555 46.1731C16.3701 44.3566 12.6218 41.2805 9.98467 37.3337C7.34752 33.3869 5.93994 28.7468 5.93994 24C5.93994 19.2533 7.34752 14.6131 9.98467 10.6663C12.6218 6.71954 16.3701 3.6434 20.7555 1.8269C25.141 0.0103994 29.9666 -0.464881 34.6221 0.461163C39.2776 1.38721 43.554 3.67298 46.9105 7.02944L38.4252 15.5147C36.747 13.8365 34.6088 12.6936 32.281 12.2306C29.9532 11.7676 27.5404 12.0052 25.3477 12.9135C23.155 13.8217 21.2809 15.3598 19.9623 17.3332C18.6437 19.3065 17.9399 21.6266 17.9399 24C17.9399 26.3734 18.6437 28.6935 19.9623 30.6668C21.2809 32.6402 23.155 34.1783 25.3477 35.0865C27.5404 35.9948 29.9532 36.2324 32.281 35.7694C34.6088 35.3064 36.747 34.1635 38.4252 32.4853L46.9105 40.9706Z" fill="#EEEEEE"/>
<path fill-rule="evenodd" clip-rule="evenodd" d="M29.8199 0H23.9399V0.48H25.224C23.7219 0.785019 22.2453 1.23468 20.8156 1.8269C16.4302 3.64341 12.6819 6.71954 10.0447 10.6663C7.40757 14.6131 6 19.2533 6 24C6 28.7468 7.40758 33.3869 10.0447 37.3337C12.6819 41.2805 16.4302 44.3566 20.8156 46.1731C22.2453 46.7653 23.7218 47.215 25.224 47.52H23.9399V48H29.8199V47.9993C31.4442 48.0115 33.0733 47.8589 34.6822 47.5388C38.4499 46.7894 41.9692 45.1494 44.9536 42.772C45.6569 42.2118 46.3304 41.6106 46.9705 40.9706L38.4853 32.4853L38.46 32.5105V32.46H32.52V35.04H34.703C33.9466 35.3622 33.1555 35.6074 32.3411 35.7694C30.0133 36.2324 27.6005 35.9948 25.4078 35.0865C23.2151 34.1783 21.3409 32.6402 20.0224 30.6668C18.7038 28.6935 18 26.3734 18 24C18 21.6266 18.7038 19.3066 20.0224 17.3332C21.3409 15.3598 23.2151 13.8217 25.4078 12.9135C27.6005 12.0052 30.0133 11.7676 32.3411 12.2306C33.1554 12.3926 33.9466 12.6378 34.703 12.96H32.52V15.54H38.46V15.4895L38.4853 15.5147L46.9705 7.02944C46.3304 6.38935 45.6569 5.78819 44.9536 5.22798C41.9692 2.85061 38.4499 1.21061 34.6821 0.461163C33.0733 0.141145 31.4442 -0.0115238 29.8199 0.000677122V0ZM38.3084 36.1268C36.6761 37.2452 34.8267 38.0279 32.8678 38.4175C30.0163 38.9847 27.0606 38.6936 24.3745 37.581C21.6885 36.4684 19.3926 34.5843 17.7774 32.1669C16.1621 29.7495 15.3 26.9074 15.3 24C15.3 21.0926 16.1621 18.2505 17.7774 15.8331C19.3926 13.4157 21.6885 11.5316 24.3745 10.419C27.0606 9.30637 30.0163 9.01526 32.8678 9.58246C34.8267 9.97212 36.6761 10.7548 38.3084 11.8732L43.0307 7.15093C40.4343 5.14294 37.3985 3.75437 34.1554 3.10928C30.0236 2.28742 25.7409 2.70923 21.8488 4.32138C17.9568 5.93352 14.6302 8.6636 12.2897 12.1664C9.94922 15.6691 8.7 19.7873 8.7 24C8.7 28.2127 9.94922 32.3309 12.2897 35.8336C14.6302 39.3364 17.9568 42.0665 21.8488 43.6786C25.7409 45.2908 30.0236 45.7126 34.1554 44.8907C37.3985 44.2456 40.4343 42.8571 43.0307 40.8491L38.3084 36.1268Z" fill="black"/>
</svg>
