<svg width="18" height="18" viewBox="0 0 18 18" fill="none" xmlns="http://www.w3.org/2000/svg">
<path d="M9.28125 0.53125C4.46484 0.53125 0.5625 4.43359 0.5625 9.25C0.5625 14.0664 4.46484 17.9688 9.28125 17.9688C14.0977 17.9688 18 14.0664 18 9.25C18 4.43359 14.0977 0.53125 9.28125 0.53125ZM13.7812 15.3672C12.5156 16.3164 10.9336 16.8438 9.28125 16.8438C7.59375 16.8438 6.01172 16.3164 4.78125 15.3672V14.875C4.78125 13.6445 5.76562 12.625 7.03125 12.625C7.41797 12.625 7.98047 13.0469 9.28125 13.0469C10.5469 13.0469 11.1094 12.625 11.5312 12.625C12.7617 12.625 13.7812 13.6445 13.7812 14.875V15.3672ZM14.8359 14.418C14.5898 12.7656 13.2188 11.5 11.5312 11.5C10.793 11.5 10.4414 11.9219 9.28125 11.9219C8.08594 11.9219 7.73438 11.5 7.03125 11.5C5.30859 11.5 3.9375 12.7656 3.69141 14.418C2.42578 13.0469 1.6875 11.2539 1.6875 9.25C1.6875 5.06641 5.0625 1.65625 9.28125 1.65625C13.4648 1.65625 16.875 5.06641 16.875 9.25C16.875 11.2539 16.1016 13.0469 14.8359 14.418ZM9.28125 4.46875C7.55859 4.46875 6.1875 5.875 6.1875 7.5625C6.1875 9.28516 7.55859 10.6562 9.28125 10.6562C10.9688 10.6562 12.375 9.28516 12.375 7.5625C12.375 5.875 10.9688 4.46875 9.28125 4.46875ZM9.28125 9.53125C8.19141 9.53125 7.3125 8.65234 7.3125 7.5625C7.3125 6.50781 8.19141 5.59375 9.28125 5.59375C10.3359 5.59375 11.25 6.50781 11.25 7.5625C11.25 8.65234 10.3359 9.53125 9.28125 9.53125Z" fill="#BDBDBD"/>
</svg>
