<svg width="34" height="35" viewBox="0 0 34 35" fill="none" xmlns="http://www.w3.org/2000/svg">
<path d="M32.8906 20.5938L30.6406 19.2578C30.6406 18.7656 30.7109 17.9922 30.7109 17.5C30.7109 17.0781 30.6406 16.3047 30.6406 15.8125L32.8906 14.4766C33.5938 14.125 33.875 13.2812 33.6641 12.5781C32.8906 9.90625 31.4844 7.51562 29.6562 5.54688C29.0938 4.98438 28.25 4.84375 27.5469 5.26562L25.2969 6.60156C24.5234 5.96875 23.1875 5.19531 22.2734 4.84375V2.24219C22.2734 1.39844 21.7812 0.765625 21.0078 0.554688C18.3359 -0.078125 15.5938 -0.078125 12.9219 0.554688C12.1484 0.765625 11.6562 1.39844 11.6562 2.24219V4.84375C10.7422 5.19531 9.40625 5.96875 8.63281 6.60156L6.38281 5.26562C5.67969 4.84375 4.83594 4.98438 4.27344 5.54688C2.44531 7.51562 1.03906 9.90625 0.265625 12.5781C0.0546875 13.2812 0.335938 14.125 1.03906 14.4766L3.28906 15.8125C3.28906 16.3047 3.21875 17.0781 3.21875 17.5C3.21875 17.9922 3.28906 18.7656 3.28906 19.2578L1.03906 20.5938C0.335938 20.9453 0.0546875 21.7891 0.265625 22.4922C1.03906 25.1641 2.44531 27.5547 4.27344 29.5234C4.83594 30.0859 5.67969 30.2266 6.38281 29.8047L8.63281 28.4688C9.40625 29.1016 10.7422 29.875 11.6562 30.2266V32.8281C11.6562 33.6719 12.1484 34.3047 12.9219 34.5156C15.5938 35.1484 18.3359 35.1484 21.0078 34.5156C21.7812 34.3047 22.2734 33.6719 22.2734 32.8281V30.2266C23.1875 29.875 24.5234 29.1016 25.2969 28.4688L27.5469 29.8047C28.25 30.2266 29.0938 30.0859 29.6562 29.5234C31.4844 27.5547 32.8906 25.1641 33.6641 22.4922C33.875 21.7891 33.5938 20.9453 32.8906 20.5938ZM28.3203 27.625L25.0156 25.7266C23.1172 27.4141 22.4844 27.7656 20.0234 28.6797V32.4062C19.1797 32.6172 17.8438 32.7578 17 32.7578C16.0859 32.7578 14.75 32.6172 13.9062 32.4062V28.6797C11.5156 27.8359 10.8125 27.4141 8.91406 25.7266L5.60938 27.625C4.27344 26.0781 3.21875 24.25 2.51562 22.2812L5.82031 20.4531C5.32812 17.9219 5.32812 17.1484 5.82031 14.6172L2.51562 12.7891C3.21875 10.8203 4.27344 8.99219 5.60938 7.44531L8.91406 9.34375C10.8125 7.65625 11.5156 7.23438 13.9062 6.39062V2.66406C14.75 2.45312 16.0859 2.3125 17 2.3125C17.8438 2.3125 19.1797 2.45312 20.0234 2.66406V6.39062C22.4141 7.23438 23.1172 7.65625 25.0156 9.34375L28.3203 7.44531C29.6562 8.99219 30.7109 10.8203 31.4141 12.7891L28.1094 14.6172C28.6016 17.1484 28.6016 17.9219 28.1094 20.4531L31.4141 22.2812C30.7109 24.25 29.6562 26.0781 28.3203 27.625ZM17 10.75C13.2734 10.75 10.25 13.8438 10.25 17.5C10.25 21.2266 13.2734 24.25 17 24.25C20.6562 24.25 23.75 21.2266 23.75 17.5C23.75 13.8438 20.6562 10.75 17 10.75ZM17 22C14.4688 22 12.5 20.0312 12.5 17.5C12.5 15.0391 14.4688 13 17 13C19.4609 13 21.5 15.0391 21.5 17.5C21.5 20.0312 19.4609 22 17 22Z" fill="#D8D8D8"/>
</svg>
