<svg width="48" height="40" viewBox="0 0 48 40" fill="none" xmlns="http://www.w3.org/2000/svg">
<path d="M43.0312 10.25C43.0938 10.5 43.125 10.9062 43.125 11.4688C43.125 14.7812 42.5 18.0938 41.25 21.4062C40 24.6562 38.2188 27.6562 35.9062 30.4062C33.6562 33.0938 30.7188 35.2812 27.0938 36.9688C23.4688 38.6562 19.4688 39.5 15.0938 39.5C9.59375 39.5 4.5625 38.0312 0 35.0938C0.6875 35.1562 1.46875 35.1875 2.34375 35.1875C6.90625 35.1875 11 33.7812 14.625 30.9688C12.4375 30.9688 10.5 30.3438 8.8125 29.0938C7.1875 27.7812 6.0625 26.1562 5.4375 24.2188C6.0625 24.2812 6.65625 24.3125 7.21875 24.3125C8.09375 24.3125 8.96875 24.2188 9.84375 24.0312C8.34375 23.7188 7 23.0938 5.8125 22.1562C4.625 21.2188 3.6875 20.0938 3 18.7812C2.3125 17.4062 1.96875 15.9375 1.96875 14.375V14.1875C3.34375 15 4.8125 15.4375 6.375 15.5C3.4375 13.5 1.96875 10.75 1.96875 7.25C1.96875 5.5 2.4375 3.84375 3.375 2.28125C5.8125 5.34375 8.78125 7.78125 12.2812 9.59375C15.8438 11.4062 19.625 12.4062 23.625 12.5938C23.5 11.8438 23.4375 11.0938 23.4375 10.3438C23.4375 7.65625 24.375 5.34375 26.25 3.40625C28.1875 1.46875 30.5 0.5 33.1875 0.5C36.0625 0.5 38.4688 1.53125 40.4062 3.59375C42.6562 3.15625 44.75 2.375 46.6875 1.25C45.9375 3.5625 44.5 5.375 42.375 6.6875C44.25 6.4375 46.125 5.90625 48 5.09375C46.625 7.09375 44.9688 8.8125 43.0312 10.25Z" fill="#8093A6"/>
</svg>
