<svg width="75" height="53" viewBox="0 0 75 53" fill="none" xmlns="http://www.w3.org/2000/svg">
<path d="M36.5625 16.3047C35.9766 15.7188 35.1562 15.7188 34.5703 16.3047L23.0859 27.7891C22.5 28.375 22.5 29.3125 23.0859 29.7812L23.6719 30.4844C24.2578 31.0703 25.1953 31.0703 25.6641 30.4844L33.75 22.5156V40.0938C33.75 40.9141 34.3359 41.5 35.1562 41.5H36.0938C36.7969 41.5 37.5 40.9141 37.5 40.0938V22.5156L45.4688 30.4844C46.0547 31.0703 46.875 31.0703 47.4609 30.4844L48.1641 29.7812C48.6328 29.3125 48.6328 28.375 48.1641 27.7891L36.5625 16.3047ZM66.9141 24.5078C67.2656 23.3359 67.5 22.1641 67.5 20.875C67.5 13.7266 61.5234 7.75 54.375 7.75C52.3828 7.75 50.5078 8.21875 48.75 9.03906C45 3.76562 38.7891 0.25 31.875 0.25C20.7422 0.25 11.7188 9.03906 11.25 20.0547C4.57031 22.3984 0 28.7266 0 35.875C0 45.25 7.5 52.75 16.875 52.75H60C68.2031 52.75 75 46.0703 75 37.75C75 32.2422 71.9531 27.2031 66.9141 24.5078ZM60 49H16.875C9.60938 49 3.75 43.1406 3.75 35.875C3.75 29.3125 8.67188 23.8047 15.1172 22.8672C15 22.2812 15 21.5781 15 20.875C15 11.6172 22.5 4 31.875 4C38.9062 4 44.8828 8.33594 47.4609 14.5469C49.2188 12.6719 51.5625 11.5 54.375 11.5C59.5312 11.5 63.75 15.7188 63.75 20.875C63.75 23.1016 62.9297 25.0938 61.7578 26.7344C67.1484 27.5547 71.25 32.2422 71.25 37.75C71.25 43.9609 66.2109 49 60 49Z" fill="#BDBDBD"/>
</svg>
