<svg width="242" height="241" viewBox="0 0 242 241" fill="none" xmlns="http://www.w3.org/2000/svg">
<circle opacity="0.1" cx="121.5" cy="120.5" r="120.5" fill="#FAFAFA"/>
<path d="M36.0002 214.56L39.8202 185.18C41.2769 173.666 46.3952 162.925 54.4202 154.54L79.1202 138.28" stroke="black" stroke-width="3" stroke-linecap="round" stroke-linejoin="round"/>
<path d="M217.82 204.5L213.9 180.7C212.914 174.423 210.625 168.422 207.181 163.084C203.736 157.745 199.212 153.186 193.9 149.7L166.9 132.37L159.36 128.85C157.035 127.73 155.012 126.07 153.46 124.009C151.908 121.947 150.873 119.544 150.44 117L148.05 103.7" stroke="black" stroke-width="3" stroke-linecap="round" stroke-linejoin="round"/>
<path d="M178.09 184.99V214.56" stroke="black" stroke-width="3" stroke-linecap="round" stroke-linejoin="round"/>
<path d="M81.37 186.25V213.56" stroke="black" stroke-width="3" stroke-linecap="round" stroke-linejoin="round"/>
<path d="M70.0901 204.5L79.7601 199.71C81.1429 199.029 82.6637 198.675 84.2051 198.675C85.7465 198.675 87.2673 199.029 88.6501 199.71L93.5001 202.08C95.045 202.836 96.758 203.184 98.4755 203.089C100.193 202.994 101.857 202.461 103.31 201.54L104.65 200.69C106.166 199.73 107.911 199.192 109.704 199.132C111.497 199.072 113.274 199.493 114.85 200.35L117.2 201.63C118.825 202.513 120.661 202.932 122.508 202.84C124.355 202.748 126.141 202.15 127.67 201.11V201.11C129.254 200.036 131.111 199.436 133.024 199.379C134.936 199.322 136.826 199.812 138.47 200.79L140.07 201.79C141.523 202.651 143.169 203.134 144.857 203.193C146.545 203.253 148.22 202.887 149.73 202.13L153.55 200.22C155.15 199.419 156.935 199.059 158.721 199.176C160.507 199.294 162.229 199.886 163.71 200.89C165.304 201.981 167.207 202.531 169.138 202.457C171.068 202.383 172.924 201.69 174.43 200.48L178.09 197.6" stroke="black" stroke-width="3" stroke-linecap="round" stroke-linejoin="round"/>
<path d="M173.83 55.4099H208.15V101.22H184.32" stroke="black" stroke-width="3" stroke-linecap="round" stroke-linejoin="round"/>
<path d="M178.15 101.22H170.5" stroke="black" stroke-width="3" stroke-linecap="round" stroke-linejoin="round"/>
<path d="M72.3399 67.0501H44.4098C40.5383 67.0501 37.3998 70.1886 37.3998 74.0601V74.4601C37.3998 78.3316 40.5383 81.4701 44.4098 81.4701H72.3399C76.2114 81.4701 79.3498 78.3316 79.3498 74.4601V74.0601C79.3498 70.1886 76.2114 67.0501 72.3399 67.0501Z" stroke="black" stroke-width="3" stroke-linecap="round" stroke-linejoin="round"/>
<path d="M72.7201 81.27C76.3818 81.27 79.3501 78.1315 79.3501 74.26C79.3501 70.3885 76.3818 67.25 72.7201 67.25C69.0585 67.25 66.0901 70.3885 66.0901 74.26C66.0901 78.1315 69.0585 81.27 72.7201 81.27Z" stroke="black" stroke-width="3" stroke-linecap="round" stroke-linejoin="round"/>
<path d="M35.8797 57.5901L63.8097 57.5901C67.6812 57.5901 70.8197 54.4516 70.8197 50.5801V50.1801C70.8197 46.3086 67.6812 43.1701 63.8097 43.1701H35.8797C32.0082 43.1701 28.8697 46.3086 28.8697 50.1801V50.5801C28.8697 54.4516 32.0082 57.5901 35.8797 57.5901Z" stroke="black" stroke-width="3" stroke-linecap="round" stroke-linejoin="round"/>
<path d="M35.5 57.3801C39.1616 57.3801 42.13 54.2416 42.13 50.3701C42.13 46.4986 39.1616 43.3601 35.5 43.3601C31.8383 43.3601 28.87 46.4986 28.87 50.3701C28.87 54.2416 31.8383 57.3801 35.5 57.3801Z" stroke="black" stroke-width="3" stroke-linecap="round" stroke-linejoin="round"/>
<path d="M41.4601 109.1H75.2901" stroke="black" stroke-width="3" stroke-linecap="round" stroke-linejoin="round"/>
<path d="M57.5099 118.81H81.1799" stroke="black" stroke-width="3" stroke-linecap="round" stroke-linejoin="round"/>
<path d="M63.13 128.52H78.95" stroke="black" stroke-width="3" stroke-linecap="round" stroke-linejoin="round"/>
<path d="M89.5502 75.6002C89.5502 75.6002 108.14 70.7602 103.81 89.0602L99.7102 105C99.5003 105.775 99.5818 106.6 99.9393 107.319C100.297 108.037 100.906 108.6 101.65 108.9L104.46 109.9" stroke="black" stroke-width="3" stroke-linecap="round" stroke-linejoin="round"/>
<path d="M108.43 118.18C108.43 118.18 118.87 115.29 120.64 108.67" stroke="black" stroke-width="3" stroke-linecap="round" stroke-linejoin="round"/>
<path d="M111.32 77.0002C114.022 75.3911 117.037 74.38 120.163 74.035C123.289 73.69 126.452 74.0191 129.44 75.0002" stroke="black" stroke-width="3" stroke-linecap="round" stroke-linejoin="round"/>
<path d="M116.46 91.35C117.526 91.35 118.39 89.3174 118.39 86.81C118.39 84.3026 117.526 82.27 116.46 82.27C115.394 82.27 114.53 84.3026 114.53 86.81C114.53 89.3174 115.394 91.35 116.46 91.35Z" fill="black"/>
<path d="M95.0704 91.35C96.1363 91.35 97.0004 89.3174 97.0004 86.81C97.0004 84.3026 96.1363 82.27 95.0704 82.27C94.0045 82.27 93.1404 84.3026 93.1404 86.81C93.1404 89.3174 94.0045 91.35 95.0704 91.35Z" fill="black"/>
<path d="M85.1601 97.87L76.7801 153.45C76.6682 154.268 76.7209 155.101 76.9351 155.898C77.1493 156.696 77.5207 157.442 78.0275 158.094C78.5342 158.747 79.1661 159.291 79.8861 159.695C80.6061 160.1 81.3996 160.356 82.2201 160.45V160.45C83.1677 160.527 84.1198 160.37 84.992 159.991C85.8641 159.613 86.6295 159.025 87.2201 158.28L89.5701 155.4L89.8001 157.23C90.0326 159.448 91.016 161.52 92.5875 163.102C94.1589 164.684 96.2239 165.682 98.4401 165.93V165.93C100.028 166.058 101.622 165.777 103.07 165.114C104.517 164.45 105.771 163.426 106.71 162.14L109.63 158.24L110.17 161.15C110.451 162.901 111.337 164.498 112.675 165.662C114.013 166.826 115.717 167.484 117.49 167.52V167.52C119.016 167.493 120.498 167 121.735 166.106C122.972 165.212 123.906 163.961 124.41 162.52L125.41 159.9L127.35 162.98C127.981 164.005 128.863 164.852 129.913 165.44C130.963 166.028 132.147 166.338 133.35 166.34V166.34C135.107 166.298 136.79 165.622 138.088 164.437C139.385 163.251 140.21 161.636 140.41 159.89L148.13 103.7" stroke="black" stroke-width="3" stroke-linecap="round" stroke-linejoin="round"/>
<path d="M89.5499 66.6998L85.1599 97.8698" stroke="black" stroke-width="3" stroke-linecap="round" stroke-linejoin="round"/>
<path d="M84.2902 100.76H81.7302C81.0837 100.739 80.4488 100.583 79.8665 100.301C79.2842 100.02 78.7675 99.6191 78.3499 99.1251C77.9323 98.6312 77.6231 98.055 77.4423 97.434C77.2615 96.813 77.213 96.1609 77.3002 95.52C77.3958 94.4015 77.9007 93.3576 78.7181 92.5882C79.5355 91.8188 80.608 91.3779 81.7302 91.35H85.6702" stroke="black" stroke-width="3" stroke-linecap="round" stroke-linejoin="round"/>
<path d="M85.6699 101.36L148.05 103.7H150.61C151.252 103.675 151.883 103.516 152.46 103.233C153.038 102.951 153.55 102.55 153.963 102.057C154.377 101.565 154.682 100.991 154.861 100.373C155.039 99.7556 155.087 99.1073 155 98.4701V98.4701C154.907 97.3525 154.404 96.3087 153.588 95.5391C152.772 94.7695 151.701 94.3282 150.58 94.3001" stroke="black" stroke-width="3" stroke-linecap="round" stroke-linejoin="round"/>
<path d="M135.93 76.8199C136.32 74.1253 137.169 71.5174 138.44 69.1099C138.44 69.1099 123.44 69.4699 129.44 61.9499C129.44 61.9499 115.67 69.5599 114.53 65.5099C113.39 61.4599 116.46 56.3499 116.46 56.3499C116.46 56.3499 95.0003 68.6099 85.1603 65.5099C75.3203 62.4099 93.1603 56.3499 93.1603 56.3499C93.1603 56.3499 76.4703 59.8599 77.2803 53.4799C78.0503 47.4799 102.8 28.6799 135.28 35.6699C138.053 36.2504 140.657 37.4519 142.899 39.1839C145.14 40.916 146.959 43.1335 148.22 45.6699C149.338 47.8895 149.933 50.3351 149.96 52.8199C149.96 52.8199 158.71 55.6499 158.71 66.6699C158.71 77.6899 150.71 94.2699 150.71 94.2699C141.75 94.2999 134.71 86.0999 135.93 76.8199Z" stroke="black" stroke-width="3" stroke-linecap="round" stroke-linejoin="round"/>
<path d="M138.44 69.1101L157.44 75.5101L150.61 94.3001C150.61 94.3001 129.85 94.5501 138.44 69.1101Z" fill="black" stroke="black" stroke-width="3" stroke-linecap="round" stroke-linejoin="round"/>
<path d="M166.9 132.37C166.9 132.37 161.23 149.47 141.74 149.62" stroke="black" stroke-width="3" stroke-linecap="round" stroke-linejoin="round"/>
</svg>
