<svg width="242" height="241" viewBox="0 0 242 241" fill="none" xmlns="http://www.w3.org/2000/svg">
<circle cx="121.5" cy="120.5" r="120.5" fill="#3C78FB"/>
<path d="M36 214.56L39.82 185.18C41.2767 173.666 46.395 162.924 54.42 154.54L79.12 138.28" stroke="black" stroke-width="3" stroke-linecap="round" stroke-linejoin="round"/>
<path d="M217.82 204.5L213.9 180.7C212.914 174.423 210.625 168.423 207.18 163.084C203.736 157.745 199.212 153.186 193.9 149.7L166.9 132.37L159.36 128.85C157.035 127.73 155.012 126.07 153.46 124.009C151.908 121.947 150.873 119.544 150.44 117L148.05 103.7" stroke="black" stroke-width="3" stroke-linecap="round" stroke-linejoin="round"/>
<path d="M178.09 184.99V214.56" stroke="black" stroke-width="3" stroke-linecap="round" stroke-linejoin="round"/>
<path d="M81.3701 186.25V213.56" stroke="black" stroke-width="3" stroke-linecap="round" stroke-linejoin="round"/>
<path d="M70.0898 204.5L79.7598 199.71C81.1426 199.029 82.6634 198.675 84.2048 198.675C85.7463 198.675 87.2671 199.029 88.6498 199.71L93.4998 202.08C95.0448 202.836 96.7578 203.184 98.4752 203.089C100.193 202.995 101.857 202.461 103.31 201.54L104.65 200.69C106.166 199.73 107.91 199.192 109.704 199.132C111.497 199.072 113.274 199.493 114.85 200.35L117.2 201.63C118.825 202.513 120.661 202.932 122.508 202.84C124.355 202.748 126.141 202.15 127.67 201.11V201.11C129.254 200.036 131.111 199.436 133.023 199.379C134.936 199.322 136.825 199.812 138.47 200.79L140.07 201.79C141.523 202.652 143.169 203.134 144.856 203.193C146.544 203.253 148.22 202.887 149.73 202.13L153.55 200.22C155.15 199.419 156.935 199.059 158.721 199.176C160.507 199.294 162.229 199.886 163.71 200.89C165.304 201.981 167.207 202.531 169.138 202.457C171.068 202.383 172.924 201.69 174.43 200.48L178.09 197.6" stroke="black" stroke-width="3" stroke-linecap="round" stroke-linejoin="round"/>
<path d="M173.83 55.4099H208.15V101.22H184.32" stroke="black" stroke-width="3" stroke-linecap="round" stroke-linejoin="round"/>
<path d="M178.15 101.22H170.5" stroke="black" stroke-width="3" stroke-linecap="round" stroke-linejoin="round"/>
<path d="M72.3399 67.05H44.4099C40.5384 67.05 37.3999 70.1885 37.3999 74.0601V74.4601C37.3999 78.3316 40.5384 81.4701 44.4099 81.4701H72.3399C76.2114 81.4701 79.3499 78.3316 79.3499 74.4601V74.0601C79.3499 70.1885 76.2114 67.05 72.3399 67.05Z" stroke="black" stroke-width="3" stroke-linecap="round" stroke-linejoin="round"/>
<path d="M72.7203 81.27C76.382 81.27 79.3503 78.1315 79.3503 74.26C79.3503 70.3885 76.382 67.25 72.7203 67.25C69.0587 67.25 66.0903 70.3885 66.0903 74.26C66.0903 78.1315 69.0587 81.27 72.7203 81.27Z" stroke="black" stroke-width="3" stroke-linecap="round" stroke-linejoin="round"/>
<path d="M35.8798 57.5901L63.8098 57.5901C67.6813 57.5901 70.8198 54.4516 70.8198 50.5801V50.1801C70.8198 46.3086 67.6813 43.1701 63.8098 43.1701H35.8798C32.0083 43.1701 28.8698 46.3086 28.8698 50.1801V50.5801C28.8698 54.4516 32.0083 57.5901 35.8798 57.5901Z" stroke="black" stroke-width="3" stroke-linecap="round" stroke-linejoin="round"/>
<path d="M35.5001 57.3801C39.1618 57.3801 42.1301 54.2416 42.1301 50.3701C42.1301 46.4986 39.1618 43.3601 35.5001 43.3601C31.8385 43.3601 28.8701 46.4986 28.8701 50.3701C28.8701 54.2416 31.8385 57.3801 35.5001 57.3801Z" stroke="black" stroke-width="3" stroke-linecap="round" stroke-linejoin="round"/>
<path d="M41.46 109.1H75.29" stroke="black" stroke-width="3" stroke-linecap="round" stroke-linejoin="round"/>
<path d="M57.5098 118.81H81.1798" stroke="black" stroke-width="3" stroke-linecap="round" stroke-linejoin="round"/>
<path d="M63.1299 128.52H78.9499" stroke="black" stroke-width="3" stroke-linecap="round" stroke-linejoin="round"/>
<path d="M89.5503 75.6003C89.5503 75.6003 108.14 70.7603 103.81 89.0603L99.7103 105C99.5004 105.775 99.5819 106.6 99.9394 107.319C100.297 108.038 100.906 108.6 101.65 108.9L104.46 109.9" stroke="black" stroke-width="3" stroke-linecap="round" stroke-linejoin="round"/>
<path d="M108.43 118.18C108.43 118.18 118.87 115.29 120.64 108.67" stroke="black" stroke-width="3" stroke-linecap="round" stroke-linejoin="round"/>
<path d="M111.32 77.0001C114.022 75.391 117.037 74.3799 120.163 74.0349C123.289 73.6899 126.452 74.019 129.44 75.0001" stroke="black" stroke-width="3" stroke-linecap="round" stroke-linejoin="round"/>
<path d="M116.46 91.35C117.526 91.35 118.39 89.3174 118.39 86.81C118.39 84.3026 117.526 82.27 116.46 82.27C115.394 82.27 114.53 84.3026 114.53 86.81C114.53 89.3174 115.394 91.35 116.46 91.35Z" fill="black"/>
<path d="M95.0701 91.35C96.136 91.35 97.0001 89.3174 97.0001 86.81C97.0001 84.3026 96.136 82.27 95.0701 82.27C94.0042 82.27 93.1401 84.3026 93.1401 86.81C93.1401 89.3174 94.0042 91.35 95.0701 91.35Z" fill="black"/>
<path d="M85.1603 97.8699L76.7803 153.45C76.6684 154.268 76.7211 155.1 76.9353 155.898C77.1495 156.696 77.5209 157.442 78.0277 158.094C78.5344 158.746 79.1663 159.291 79.8863 159.695C80.6063 160.1 81.3998 160.356 82.2203 160.45V160.45C83.1679 160.527 84.12 160.37 84.9922 159.991C85.8643 159.613 86.6296 159.025 87.2203 158.28L89.5703 155.4L89.8003 157.23C90.0328 159.448 91.0162 161.52 92.5876 163.102C94.1591 164.684 96.2241 165.682 98.4403 165.93V165.93C100.028 166.058 101.622 165.777 103.07 165.114C104.518 164.45 105.771 163.426 106.71 162.14L109.63 158.24L110.17 161.15C110.451 162.901 111.338 164.498 112.675 165.662C114.013 166.826 115.717 167.484 117.49 167.52V167.52C119.016 167.493 120.498 167 121.735 166.106C122.972 165.212 123.906 163.96 124.41 162.52L125.41 159.9L127.35 162.98C127.981 164.005 128.863 164.852 129.914 165.44C130.964 166.028 132.147 166.338 133.35 166.34V166.34C135.107 166.298 136.79 165.622 138.088 164.437C139.385 163.251 140.21 161.636 140.41 159.89L148.13 103.7" stroke="black" stroke-width="3" stroke-linecap="round" stroke-linejoin="round"/>
<path d="M89.5497 66.6997L85.1597 97.8697" stroke="black" stroke-width="3" stroke-linecap="round" stroke-linejoin="round"/>
<path d="M84.2899 100.76H81.7299C81.0834 100.739 80.4485 100.583 79.8662 100.302C79.2839 100.02 78.7673 99.6192 78.3497 99.1252C77.9321 98.6313 77.6229 98.0551 77.442 97.4341C77.2612 96.8131 77.2128 96.161 77.2999 95.5201C77.3956 94.4016 77.9004 93.3577 78.7178 92.5883C79.5352 91.8189 80.6077 91.378 81.7299 91.3501H85.6699" stroke="black" stroke-width="3" stroke-linecap="round" stroke-linejoin="round"/>
<path d="M85.6699 101.36L148.05 103.7H150.61C151.253 103.675 151.883 103.516 152.46 103.233C153.038 102.95 153.55 102.55 153.963 102.057C154.377 101.565 154.682 100.991 154.861 100.373C155.04 99.7555 155.087 99.1072 155 98.47V98.47C154.907 97.3524 154.404 96.3087 153.588 95.539C152.772 94.7694 151.701 94.3282 150.58 94.3" stroke="black" stroke-width="3" stroke-linecap="round" stroke-linejoin="round"/>
<path d="M135.93 76.82C136.32 74.1253 137.169 71.5175 138.44 69.11C138.44 69.11 123.44 69.47 129.44 61.95C129.44 61.95 115.67 69.56 114.53 65.51C113.39 61.46 116.46 56.35 116.46 56.35C116.46 56.35 95.0005 68.61 85.1605 65.51C75.3205 62.41 93.1605 56.35 93.1605 56.35C93.1605 56.35 76.4705 59.86 77.2805 53.48C78.0505 47.48 102.801 28.68 135.28 35.67C138.053 36.2505 140.658 37.452 142.899 39.184C145.14 40.916 146.96 43.1336 148.22 45.67C149.338 47.8895 149.933 50.3352 149.96 52.82C149.96 52.82 158.71 55.65 158.71 66.67C158.71 77.69 150.71 94.27 150.71 94.27C141.75 94.3 134.71 86.1 135.93 76.82Z" stroke="black" stroke-width="3" stroke-linecap="round" stroke-linejoin="round"/>
<path d="M138.44 69.1101L157.44 75.5101L150.61 94.3001C150.61 94.3001 129.85 94.5501 138.44 69.1101Z" fill="black" stroke="black" stroke-width="3" stroke-linecap="round" stroke-linejoin="round"/>
<path d="M166.9 132.37C166.9 132.37 161.23 149.47 141.74 149.62" stroke="black" stroke-width="3" stroke-linecap="round" stroke-linejoin="round"/>
</svg>
