<svg width="242" height="241" viewBox="0 0 242 241" fill="none" xmlns="http://www.w3.org/2000/svg">
<circle opacity="0.1" cx="121" cy="120.5" r="120.5" fill="#FAFAFA"/>
<g clip-path="url(#clip0)">
<path d="M205.23 207.07L200.49 190.14C199.273 185.785 197.184 181.721 194.349 178.198C191.514 174.674 187.994 171.762 184 169.64L143.2 148.07" stroke="black" stroke-width="3" stroke-linecap="round" stroke-linejoin="round"/>
<path d="M104.71 158.38C104.71 158.38 113.93 185.62 131.56 173.56C134.679 171.392 137.258 168.537 139.099 165.216C140.94 161.894 141.994 158.194 142.18 154.4C142.66 145.66 144.18 131.74 149.33 122.64H155.33C156.138 122.64 156.937 122.481 157.683 122.172C158.43 121.863 159.108 121.41 159.679 120.839C160.25 120.268 160.703 119.59 161.012 118.844C161.321 118.097 161.48 117.298 161.48 116.49C161.48 115.297 161.134 114.129 160.482 113.129C159.83 112.13 158.902 111.341 157.81 110.86L157.59 110.76C156.693 110.369 155.939 109.708 155.434 108.87C154.929 108.031 154.697 107.056 154.77 106.08C155.55 95.4 155.23 62.32 121.39 61.37C121.39 61.37 88.94 57.05 87.55 105.55C87.5201 106.514 87.1955 107.446 86.6198 108.221C86.044 108.995 85.2449 109.574 84.33 109.88V109.88C82.7603 110.399 81.4593 111.518 80.7101 112.992C79.961 114.466 79.8244 116.176 80.33 117.75V117.75C80.7586 119.07 81.6121 120.21 82.7572 120.994C83.9024 121.777 85.2748 122.159 86.66 122.08L93.57 121.68C93.57 121.68 101.76 125.5 102.66 148.07L61.86 169.64C57.857 171.757 54.3265 174.666 51.4831 178.19C48.6397 181.714 46.5428 185.78 45.32 190.14L40.58 207.07" stroke="black" stroke-width="3" stroke-linecap="round" stroke-linejoin="round"/>
<path d="M84.32 109.88C84.32 109.88 77.85 101.88 79 97.3301C80.15 92.7801 78 78.1101 82.73 74.2401C87.46 70.3701 107.54 42.1201 120.58 45.4201C120.58 45.4201 123.45 49.7201 120.58 53.5901C120.58 53.5901 139.37 44.8401 149.26 51.5901C149.26 51.5901 150.41 57.5001 146.26 61.2801C146.26 61.2801 155.87 59.4801 157.88 63.2101C159.89 66.9401 155 73.0901 155 73.0901C155 73.0901 153.71 77.3901 156.15 79.6901C158.59 81.9901 160.88 84.5601 160.3 93.6901C159.914 99.4278 159.003 105.118 157.58 110.69C157.58 110.69 154.58 110.18 154.76 106.01C154.94 101.84 156.17 78.5701 143.32 69.0601C143.32 69.0601 131.6 58.2701 112.04 62.2001C112.04 62.2001 95.3 65.8001 90.37 85.9001C90.37 85.9001 87.2 96.2101 87.54 105.48C87.54 105.55 88.78 107.24 84.32 109.88Z" fill="black" stroke="black" stroke-width="3" stroke-linecap="round" stroke-linejoin="round"/>
<path d="M105.1 89.4099C105.1 89.4099 111.48 96.2099 120.65 96.0699" stroke="black" stroke-width="3" stroke-linecap="round" stroke-linejoin="round"/>
<path d="M117.09 84.1101C118.486 82.9237 120.258 82.2722 122.09 82.2722C123.922 82.2722 125.694 82.9237 127.09 84.1101" stroke="black" stroke-width="3" stroke-linecap="round" stroke-linejoin="round"/>
<path d="M123.46 71.0999C123.46 71.0999 122.46 78.6599 123.46 82.3699" stroke="black" stroke-width="3" stroke-linecap="round" stroke-linejoin="round"/>
<path d="M135.75 78.96C136.794 78.96 137.64 77.0796 137.64 74.76C137.64 72.4404 136.794 70.56 135.75 70.56C134.706 70.56 133.86 72.4404 133.86 74.76C133.86 77.0796 134.706 78.96 135.75 78.96Z" fill="black"/>
<path d="M107.3 78.96C108.344 78.96 109.19 77.0796 109.19 74.76C109.19 72.4404 108.344 70.56 107.3 70.56C106.256 70.56 105.41 72.4404 105.41 74.76C105.41 77.0796 106.256 78.96 107.3 78.96Z" fill="black"/>
<path d="M178.66 40.5299L174.92 47.8699C173.76 50.1299 165.97 48.4699 157.51 44.1599C149.05 39.8499 143.13 34.5099 144.28 32.2499L148 24.9099" stroke="black" stroke-width="2.39" stroke-linecap="round" stroke-linejoin="round"/>
<path d="M178.655 40.5375C179.809 38.2743 173.889 32.9432 165.431 28.6301C156.974 24.3171 149.182 22.6554 148.028 24.9186C146.873 27.1818 152.794 32.5129 161.252 36.8259C169.709 41.139 177.501 42.8007 178.655 40.5375Z" stroke="black" stroke-width="2.39" stroke-linecap="round" stroke-linejoin="round"/>
<path d="M92.49 152.39C89.2919 146.835 84.1246 142.683 78.011 140.756C71.8974 138.829 65.2831 139.267 59.4775 141.985C53.6718 144.702 49.098 149.5 46.6614 155.429C44.2248 161.358 44.1029 167.986 46.32 174C47.1747 176.24 48.478 178.282 50.15 180V180" stroke="black" stroke-width="3" stroke-linecap="round" stroke-linejoin="round"/>
<path d="M50.5524 47.6648C56.078 44.6932 59.8174 40.9082 58.9045 39.2106C57.9916 37.513 52.7721 38.5458 47.2465 41.5173C41.7209 44.4888 37.9815 48.2738 38.8944 49.9714C39.8073 51.669 45.0268 50.6363 50.5524 47.6648Z" stroke="black" stroke-width="3" stroke-linecap="round" stroke-linejoin="round"/>
<path d="M38.8903 50L54.1603 78.36C55.0703 80.06 60.2903 79.03 65.8203 76.06C71.3503 73.09 75.0803 69.3 74.1703 67.6L58.9003 39.21" stroke="black" stroke-width="3" stroke-linecap="round" stroke-linejoin="round"/>
<path d="M213.791 108.354L189.789 99.0296L180.464 123.032L204.467 132.356L213.791 108.354Z" stroke="black" stroke-width="3" stroke-linecap="round" stroke-linejoin="round"/>
<path d="M172.84 107.13L182.16 83.1301L206.16 92.4501" stroke="black" stroke-width="3" stroke-linecap="round" stroke-linejoin="round"/>
<path d="M180.48 123.03L172.84 107.13" stroke="black" stroke-width="3" stroke-linecap="round" stroke-linejoin="round"/>
<path d="M213.8 108.35L206.16 92.4498" stroke="black" stroke-width="3" stroke-linecap="round" stroke-linejoin="round"/>
<path d="M182.16 83.1301L189.5 99.7901" stroke="black" stroke-width="3" stroke-linecap="round" stroke-linejoin="round"/>
<path d="M112.87 115.06C112.87 115.06 126.09 117.78 135.75 115.06" stroke="black" stroke-width="3" stroke-linecap="round" stroke-linejoin="round"/>
</g>
<defs>
<clipPath id="clip0">
<rect width="200" height="200" fill="white" transform="translate(29 21)"/>
</clipPath>
</defs>
</svg>
