<svg width="242" height="241" viewBox="0 0 242 241" fill="none" xmlns="http://www.w3.org/2000/svg">
<circle cx="121" cy="120.5" r="120.5" fill="#3C78FB"/>
<path opacity="0.3" d="M104.24 60.4299C104.24 60.4299 113.36 71.8599 146.34 60.2299C147.248 59.9087 148.213 59.7785 149.175 59.8476C150.136 59.9166 151.072 60.1834 151.926 60.6312C152.779 61.079 153.531 61.6981 154.134 62.4499C154.737 63.2016 155.178 64.0698 155.43 64.9999C156.031 67.7671 156.119 70.621 155.69 73.4199C153.96 87.7399 145.69 94.8799 152.27 98.8299C158.85 102.78 160.38 101.11 160.38 101.11C160.38 101.11 163.32 102.02 164.95 87.7699L166.58 73.5199C166.58 73.5199 169.21 45.8399 143.09 41.5799C143.09 41.5399 113.9 36.7299 104.24 60.4299Z" fill="black" stroke="black" stroke-width="3" stroke-linecap="round" stroke-linejoin="round"/>
<path d="M113.49 151.64L82.4898 160.7C77.1311 162.265 72.2506 165.149 68.2952 169.089C64.3399 173.028 61.4361 177.897 59.8498 183.25L52.5898 207.79" stroke="black" stroke-width="3" stroke-linecap="round" stroke-linejoin="round"/>
<path d="M160 153C160 153 156.74 138.22 159.46 116.51C159.527 116.002 159.693 115.512 159.949 115.068C160.206 114.625 160.547 114.236 160.954 113.925C161.361 113.614 161.825 113.386 162.321 113.254C162.816 113.123 163.332 113.091 163.84 113.16V113.16C165.12 113.313 166.411 112.966 167.441 112.191C168.472 111.416 169.163 110.273 169.37 109C169.569 107.719 169.264 106.411 168.518 105.352C167.771 104.292 166.643 103.564 165.37 103.32L160.63 102.46" stroke="black" stroke-width="3" stroke-linecap="round" stroke-linejoin="round"/>
<path d="M145.76 132.35C145.76 132.35 123.31 142.1 109.27 136.88C95.2301 131.66 98.0001 95.1999 98.0001 92.3799C98.0001 89.5599 98.0001 43.4399 130.12 40.9999C162.24 38.5599 172 60.3099 163.89 92.3799L161.66 102.67" stroke="black" stroke-width="3" stroke-linecap="round" stroke-linejoin="round"/>
<path d="M114.56 138.42C114.56 138.42 119.02 145.32 127.56 145.32C136.1 145.32 145.74 132.32 145.74 132.32C136.053 137.027 125.307 139.129 114.56 138.42Z" fill="black" stroke="black" stroke-width="3" stroke-linecap="round" stroke-linejoin="round"/>
<path d="M114.56 138.42C115.244 141.838 115.243 145.358 114.556 148.776C113.87 152.194 112.511 155.441 110.56 158.33L106.44 166.91C103.16 173.73 106.13 177.67 109.36 179.81C111.68 181.332 114.395 182.142 117.17 182.14C151.53 182.43 160 153 160 153L186.33 160.69C191.687 162.257 196.565 165.142 200.518 169.082C204.472 173.021 207.374 177.889 208.96 183.24L216.23 207.78" stroke="black" stroke-width="3" stroke-linecap="round" stroke-linejoin="round"/>
<path d="M99.0601 79.43C99.0601 79.43 106.78 75.18 115.06 77.25C116.502 77.6264 117.753 78.5261 118.568 79.7739C119.383 81.0216 119.705 82.5281 119.47 84L116.78 100.82C116.705 101.314 116.738 101.819 116.876 102.3C117.014 102.78 117.254 103.226 117.579 103.605C117.905 103.985 118.308 104.29 118.762 104.5C119.216 104.709 119.71 104.818 120.21 104.82H122.54" stroke="black" stroke-width="3" stroke-linecap="round" stroke-linejoin="round"/>
<path d="M127.2 79.7998C127.2 79.7998 136.81 73.6798 147.3 79.7998" stroke="black" stroke-width="3" stroke-linecap="round" stroke-linejoin="round"/>
<path d="M130.16 88.3202C130.16 88.3202 134.09 85.6602 139.81 88.3202" stroke="black" stroke-width="3" stroke-linecap="round" stroke-linejoin="round"/>
<path d="M106 88.3202C106 88.3202 109.92 85.6602 115.64 88.3202" stroke="black" stroke-width="3" stroke-linecap="round" stroke-linejoin="round"/>
<path d="M124.74 112.17C124.74 112.17 133.64 110.3 140.47 105.17C141.301 104.518 142.357 104.222 143.406 104.345C144.455 104.469 145.413 105.003 146.07 105.83C146.503 106.368 146.79 107.009 146.902 107.691C147.014 108.372 146.948 109.071 146.71 109.72C145.71 112.44 143.17 116.79 136.6 118.64" stroke="black" stroke-width="3" stroke-linecap="round" stroke-linejoin="round"/>
<path d="M97.8103 100.46H96.3103C95.3157 100.46 94.3619 100.855 93.6586 101.558C92.9554 102.262 92.5603 103.215 92.5603 104.21C92.555 104.706 92.6481 105.198 92.8342 105.657C93.0202 106.117 93.2956 106.535 93.6444 106.888C93.9931 107.24 94.4083 107.52 94.8659 107.711C95.3235 107.902 95.8144 108 96.3103 108H97.8103" stroke="black" stroke-width="3" stroke-linecap="round" stroke-linejoin="round"/>
<path d="M193 178.52C186.535 190.265 183.748 203.682 185 217.03" stroke="black" stroke-width="3" stroke-linecap="round" stroke-linejoin="round"/>
<path d="M74.4899 175.56L69.6499 213.23" stroke="black" stroke-width="3" stroke-linecap="round" stroke-linejoin="round"/>
<path d="M70.8974 105.675C73.832 103.987 72.1657 95.5859 67.1756 86.9114C62.1855 78.2369 55.7613 72.5733 52.8267 74.2615C49.8921 75.9496 51.5584 84.3502 56.5485 93.0247C61.5386 101.699 67.9628 107.363 70.8974 105.675Z" stroke="black" stroke-width="3" stroke-linecap="round" stroke-linejoin="round"/>
<path d="M53.6401 86.85C56.5701 85.16 60.4601 86.43 62.3401 89.69C64.2201 92.95 63.3401 96.95 60.4201 98.69" stroke="black" stroke-width="3" stroke-linecap="round" stroke-linejoin="round"/>
<path d="M52.8198 74.2603L37.7398 93.1203C36.0781 95.185 34.0427 96.9185 31.7398 98.2303L28.8998 99.8903C27.6229 100.629 26.6905 101.843 26.3063 103.267C25.9222 104.691 26.1176 106.21 26.8498 107.49L29.0998 111.41C29.8448 112.681 31.0627 113.604 32.487 113.979C33.9112 114.354 35.4259 114.149 36.6998 113.41L43.0498 109.76L70.8898 105.62" stroke="black" stroke-width="3" stroke-linecap="round" stroke-linejoin="round"/>
<path d="M29.6899 99.4399L37.4899 113L43.7999 124C44.0193 124.374 44.3775 124.647 44.7968 124.76C45.2161 124.872 45.6627 124.815 46.0399 124.6L47.0399 124.04C47.3768 123.845 47.6344 123.538 47.7678 123.172C47.9012 122.807 47.902 122.406 47.7699 122.04L46.3199 118C46.0565 117.271 45.9541 116.493 46.0199 115.72L46.5299 109.3" stroke="black" stroke-width="3" stroke-linecap="round" stroke-linejoin="round"/>
<path d="M38.6797 115.07L41.8797 113.23C42.8605 112.668 43.9802 112.394 45.1097 112.44L46.2697 112.5L46.5297 109.29L43.0497 109.81L37.4897 113L38.6797 115.07Z" fill="black" stroke="black" stroke-width="3" stroke-linecap="round" stroke-linejoin="round"/>
<path d="M65.9502 78.1998L75.8302 66.8098" stroke="black" stroke-width="3" stroke-linecap="round" stroke-linejoin="round"/>
<path d="M75.3101 95.2803L85.1901 95.8203" stroke="black" stroke-width="3" stroke-linecap="round" stroke-linejoin="round"/>
<path d="M73.52 84.7899L91.95 76.6799" stroke="black" stroke-width="3" stroke-linecap="round" stroke-linejoin="round"/>
<path d="M190.58 146.26L196.6 148.82" stroke="black" stroke-width="3" stroke-linecap="round" stroke-linejoin="round"/>
<path d="M218.91 127.46C219.893 125.151 220.278 122.631 220.03 120.134C219.782 117.636 218.909 115.242 217.491 113.171C216.074 111.1 214.157 109.419 211.919 108.284C209.68 107.149 207.192 106.597 204.684 106.677C202.175 106.758 199.727 107.469 197.566 108.745C195.405 110.021 193.601 111.821 192.319 113.979C191.037 116.137 190.319 118.583 190.232 121.091C190.145 123.599 190.691 126.089 191.82 128.33C192.543 129.809 192.936 131.427 192.972 133.072C193.008 134.717 192.687 136.351 192.03 137.86L191.76 138.49C191.671 138.71 191.625 138.945 191.627 139.183C191.629 139.42 191.678 139.655 191.771 139.873C191.864 140.092 191.999 140.289 192.169 140.455C192.339 140.621 192.54 140.752 192.76 140.84L199.24 143.59C199.455 143.682 199.687 143.731 199.921 143.734C200.155 143.737 200.388 143.693 200.605 143.606C200.823 143.519 201.021 143.389 201.188 143.225C201.355 143.061 201.488 142.866 201.58 142.65V142.65C202.272 141.039 203.318 139.604 204.641 138.453C205.964 137.302 207.529 136.463 209.22 136C211.373 135.396 213.362 134.315 215.04 132.836C216.718 131.358 218.04 129.52 218.91 127.46V127.46Z" stroke="black" stroke-width="3" stroke-linecap="round" stroke-linejoin="round"/>
<path d="M191.35 142.09L199.1 145.38" stroke="black" stroke-width="3" stroke-linecap="round" stroke-linejoin="round"/>
<path d="M190.54 144.01L198.28 147.3" stroke="black" stroke-width="3" stroke-linecap="round" stroke-linejoin="round"/>
<path d="M195 141.07C195.66 139.07 197.12 137.48 198.4 135.84C199.749 134.197 200.767 132.309 201.4 130.28C202.077 128.156 202.201 125.895 201.76 123.71C201.15 121.38 198.51 121.3 197.5 123.4C197.157 124.29 197.086 125.263 197.296 126.194C197.506 127.125 197.988 127.973 198.68 128.63C199.395 129.357 200.258 129.922 201.21 130.287C202.163 130.652 203.182 130.809 204.2 130.746C205.218 130.684 206.211 130.404 207.111 129.925C208.012 129.446 208.799 128.779 209.42 127.97C210.42 126.65 211.5 124.31 210.12 122.84C208.12 120.76 205.85 123.62 205.21 125.38C204.814 126.487 204.679 127.671 204.818 128.839C204.957 130.007 205.365 131.126 206.01 132.11C206.81 133.31 208.76 132.18 207.95 130.97C207.204 129.874 206.884 128.545 207.05 127.23C207.128 126.632 207.31 126.053 207.59 125.52C207.724 125.246 207.892 124.991 208.09 124.76C208.193 124.633 208.323 124.53 208.47 124.46C208.67 124.46 208.47 124.33 208.47 124.46C208.85 125.46 207.47 126.91 206.82 127.46C206.334 127.86 205.774 128.161 205.171 128.344C204.569 128.528 203.937 128.591 203.31 128.53C202.654 128.477 202.017 128.288 201.438 127.974C200.859 127.661 200.353 127.23 199.95 126.71C199.616 126.265 199.415 125.734 199.37 125.18C199.364 124.931 199.405 124.684 199.49 124.45C199.49 124.39 199.71 124.01 199.57 124.12C199.48 124.05 199.46 124.06 199.51 124.12C199.551 124.216 199.577 124.317 199.59 124.42C200.049 127.34 199.407 130.326 197.79 132.8C196.13 135.41 193.79 137.46 192.79 140.47C192.33 141.85 194.51 142.47 194.96 141.07H195Z" fill="black"/>
<path d="M95.9301 155.81C93.9206 152.305 91.0605 149.363 87.614 147.255C84.1674 145.148 80.2455 143.942 76.2101 143.75C69.0401 143.26 59.0801 144.97 57.3301 153.25C56.5401 157.02 57.3301 160.89 56.7601 164.67C56.7386 165.124 56.6183 165.567 56.4076 165.97C56.1969 166.372 55.9008 166.724 55.5401 167C54.67 167.549 53.7571 168.028 52.8101 168.43C50.9501 169.35 49.1001 170.28 47.2901 171.31C40.5001 175.18 33.7701 181.45 33.7901 189.89C33.7901 194.45 36.1401 198.39 40.6901 199.57C45.2401 200.75 50.6901 199.92 55.3101 198.77C57.1801 198.29 56.3901 195.4 54.5201 195.87C50.7123 196.944 46.7368 197.293 42.8001 196.9C41.0987 196.774 39.5021 196.031 38.3101 194.81C37.2314 193.374 36.6933 191.604 36.7901 189.81C36.7901 182.3 43.2001 176.96 49.1801 173.61C50.8001 172.7 52.4701 171.86 54.1801 171.04C55.8901 170.22 57.4501 169.61 58.5501 168.22C60.5501 165.63 59.9601 161.37 59.9601 158.29C59.9601 155.21 60.1801 151.66 62.8601 149.55C65.5401 147.44 69.5501 146.85 72.8601 146.68C81.2201 146.26 89.2101 149.83 93.3701 157.28C93.5703 157.625 93.8993 157.876 94.2847 157.978C94.6701 158.08 95.0803 158.025 95.4251 157.825C95.7699 157.625 96.021 157.296 96.1232 156.91C96.2254 156.525 96.1703 156.115 95.9701 155.77L95.9301 155.81Z" fill="black"/>
<path d="M166.16 88.5601C166.25 84.4701 171.16 82.0401 174.16 80.2501C178.16 77.9201 182.36 76.1301 187.06 76.7001C189.129 76.9537 191.128 77.6144 192.94 78.6442C194.753 79.674 196.343 81.0525 197.62 82.7001C200.171 86.167 201.302 90.4775 200.78 94.7501C200.572 96.9857 201.141 99.2245 202.39 101.09C203.29 102.56 204.81 104.27 204.15 106.09C203.49 107.91 206.4 108.69 207.05 106.88C207.77 104.88 207 102.88 205.96 101.15C204.77 99.1501 203.57 97.6001 203.74 95.1501C204.011 92.6919 203.879 90.206 203.35 87.7901C202.748 85.3915 201.685 83.133 200.22 81.1401C197.319 77.2423 193.016 74.6247 188.22 73.8401C182.81 72.9701 177.86 74.6401 173.22 77.3001C168.93 79.7601 163.28 82.9301 163.16 88.5401C163.16 90.4701 166.16 90.4701 166.16 88.5401V88.5601Z" fill="black"/>
<path d="M192.05 128.3C189.39 129.17 186.05 131.92 183.18 130.63C180.95 129.63 179.6 127.15 177.84 125.55C176.895 124.637 175.767 123.934 174.53 123.49C172.763 123.086 170.952 122.911 169.14 122.97C165.97 122.78 161.97 121.86 160.64 118.55C159.92 116.78 157.02 117.55 157.74 119.35C159.17 122.88 162.41 124.93 166.08 125.61C168.16 126 170.24 125.89 172.33 126.1C173.815 126.265 175.184 126.979 176.17 128.1C178.17 130.1 179.78 132.62 182.56 133.6C186.29 134.91 189.48 132.3 192.85 131.2C194.68 130.6 193.9 127.7 192.05 128.3Z" fill="black"/>
</svg>
