<svg width="242" height="241" viewBox="0 0 242 241" fill="none" xmlns="http://www.w3.org/2000/svg">
<circle cx="121" cy="120.5" r="120.5" fill="#3C78FB"/>
<path d="M108.742 135.411C108.742 135.411 109.876 148.096 104.945 154.3C104.945 154.3 113.892 164.38 124.38 169.52C124.38 169.52 142.582 162.322 152.146 147.51" stroke="black" stroke-width="2.25938" stroke-linecap="round" stroke-linejoin="round"/>
<path d="M90.5496 73.4675C90.5496 73.4675 89.6549 80.9533 89.2175 87.6239C88.9262 92.1797 88.2847 96.7064 87.2988 101.164C85.2111 110.648 83.9188 128.453 101.753 133.92C105.74 135.098 109.927 135.437 114.051 134.914C118.902 134.348 125.98 132.847 131.04 128.85" stroke="black" stroke-width="2.25938" stroke-linecap="round" stroke-linejoin="round"/>
<path d="M90.0522 77.981C90.0522 77.981 95.4006 76.1916 99.9935 78.4681C100.893 78.9141 101.649 79.6033 102.176 80.4573C102.703 81.3113 102.98 82.296 102.976 83.2996V91.9385C102.976 95.0414 102.082 98.0785 100.401 100.687L98.7508 103.202" stroke="black" stroke-width="2.25938" stroke-linecap="round" stroke-linejoin="round"/>
<path d="M108.583 79.8996C113.561 78.728 118.784 79.1701 123.494 81.1622" stroke="black" stroke-width="2.25938" stroke-linecap="round" stroke-linejoin="round"/>
<path d="M98.3335 113.69C98.3335 113.69 106.515 113.272 115.124 106.731L106.694 107.019C106.456 107.025 106.223 107.088 106.013 107.202C105.804 107.316 105.625 107.478 105.491 107.675L104.497 109.077C104.29 109.396 103.97 109.625 103.601 109.717C103.232 109.81 102.842 109.758 102.509 109.574L102.111 109.365C101.924 109.268 101.718 109.212 101.507 109.199C101.297 109.187 101.086 109.219 100.888 109.293C100.691 109.367 100.511 109.481 100.36 109.629C100.209 109.777 100.091 109.954 100.014 110.15L99.4469 111.602" stroke="black" stroke-width="1.50625" stroke-linecap="round" stroke-linejoin="round"/>
<path d="M100.62 115.39C100.62 115.39 111.008 115.887 115.124 106.771" stroke="black" stroke-width="1.50625" stroke-linecap="round" stroke-linejoin="round"/>
<path d="M94.8145 93.32C95.7479 93.32 96.5045 91.6287 96.5045 89.5423C96.5045 87.456 95.7479 85.7646 94.8145 85.7646C93.8812 85.7646 93.1245 87.456 93.1245 89.5423C93.1245 91.6287 93.8812 93.32 94.8145 93.32Z" fill="black"/>
<path d="M111.416 93.32C112.349 93.32 113.106 91.6287 113.106 89.5423C113.106 87.456 112.349 85.7646 111.416 85.7646C110.483 85.7646 109.726 87.456 109.726 89.5423C109.726 91.6287 110.483 93.32 111.416 93.32Z" fill="black"/>
<path d="M144.491 98.7781H150.455C151.05 98.7768 151.639 98.8928 152.189 99.1195C152.739 99.3463 153.239 99.6792 153.66 100.099C154.081 100.52 154.415 101.019 154.643 101.568C154.871 102.118 154.988 102.707 154.988 103.301V103.301C154.988 103.897 154.871 104.486 154.643 105.036C154.416 105.586 154.082 106.086 153.661 106.507C153.24 106.928 152.74 107.262 152.19 107.489C151.64 107.717 151.051 107.835 150.455 107.835H148.129C147.092 107.845 146.092 108.225 145.31 108.906C144.529 109.588 144.016 110.526 143.864 111.553C142.87 117.517 141.379 129.556 142.87 138.782" stroke="black" stroke-width="2.25938" stroke-linecap="round" stroke-linejoin="round"/>
<path d="M148.626 98.7777C148.626 98.7777 148 54.7181 108.583 48.9224C102.496 50.9104 97.1317 54.6525 93.1641 59.6788C93.1641 59.6788 139.828 55.3345 143.288 98.7777H148.626Z" stroke="black" stroke-width="1.50625" stroke-linecap="round" stroke-linejoin="round"/>
<path d="M143.238 98.7777C136.279 100.766 136.369 91.4311 136.369 91.4311C126.07 91.0534 129.967 77.3146 129.967 77.3146C121.805 78.766 119.916 69.451 119.916 69.451C111.635 73.0995 106.237 66.0014 106.237 66.0014C103.344 73.4673 94.8144 70.972 94.8144 70.972C88.6607 74.5012 83.0737 71.9065 82.8848 64.8482C82.696 57.7899 93.1641 59.6788 93.1641 59.6788C93.1641 59.6788 139.262 54.8871 143.238 98.7777Z" fill="black" stroke="black" stroke-width="0.753125" stroke-linecap="round" stroke-linejoin="round"/>
<path d="M88.3923 95.2587C88.3923 95.2587 79.2961 91.1529 77.0692 98.7779C75.8266 103.013 77.0692 105.737 78.3516 107.317C78.7936 107.837 79.0237 108.504 78.9961 109.186C78.9684 109.867 78.6851 110.514 78.2025 110.996C76.5747 112.475 75.3623 114.354 74.6856 116.447C74.0089 118.54 73.8916 120.773 74.3453 122.925C75.4488 127.896 77.954 129.317 79.9621 129.616C80.1783 129.644 80.3829 129.73 80.5548 129.864C80.7267 129.998 80.8596 130.176 80.9397 130.379C81.0198 130.582 81.0442 130.802 81.0104 131.017C80.9766 131.233 80.8858 131.435 80.7475 131.604C79.3656 133.493 78.2125 136.276 80.7475 138.712C83.7895 141.615 87.5274 140.074 89.4958 138.881C89.6522 138.788 89.8272 138.731 90.0083 138.714C90.1893 138.697 90.3719 138.72 90.5429 138.782C90.7139 138.844 90.8692 138.943 90.9975 139.071C91.1258 139.2 91.2241 139.356 91.2852 139.527C92.0805 141.893 94.2676 146.009 99.8148 145.929C107.589 145.81 108.563 140.511 108.563 140.511V135.143C108.563 135.143 91.494 135.143 86.9608 118.73C86.9608 118.73 84.7041 113.143 87.2789 101.144L88.3923 95.2587Z" fill="black" stroke="black" stroke-width="0.753125" stroke-linecap="round" stroke-linejoin="round"/>
<path d="M104.696 50.3042C103.702 48.1172 102.707 45.6418 103.433 43.3454C104.159 41.0489 107.569 39.6671 109.1 41.5361C109.895 40.0769 111.044 38.8405 112.44 37.9398C113.837 37.0392 115.437 36.503 117.095 36.3804C118.752 36.2578 120.414 36.5526 121.928 37.2379C123.442 37.9232 124.76 38.9772 125.761 40.3033C126.079 40.7079 126.542 40.9734 127.052 41.0438C127.562 41.1143 128.079 40.9842 128.495 40.6811C131.567 38.2455 135.822 37.4104 139.808 37.48C141.635 37.4199 143.45 37.7911 145.107 38.5636C147.871 40.0349 149.352 43.2062 149.879 46.2979C150.265 48.3026 150.152 50.3714 149.551 52.3223C149.439 52.6465 149.403 52.9919 149.445 53.3322C149.487 53.6726 149.606 53.9989 149.792 54.2864C149.979 54.5738 150.229 54.815 150.523 54.9914C150.817 55.1679 151.148 55.275 151.489 55.3047C153.687 55.4859 155.854 55.9367 157.941 56.6468C161.204 57.6974 163.933 59.9705 165.556 62.9893C166.143 64.1887 166.448 65.5063 166.448 66.8415C166.448 68.1767 166.143 69.4943 165.556 70.6937C165.456 70.8844 165.401 71.095 165.394 71.31C165.387 71.525 165.428 71.7388 165.515 71.9356C165.602 72.1323 165.732 72.307 165.896 72.4465C166.06 72.5861 166.253 72.687 166.461 72.7416C168.801 73.5061 170.848 74.9762 172.32 76.9501C173.792 78.924 174.617 81.305 174.682 83.7665C174.732 88.8862 171.461 93.7077 166.968 96.193C166.774 96.3024 166.604 96.4491 166.468 96.6246C166.331 96.8001 166.231 97.0009 166.173 97.2154C166.115 97.43 166.1 97.6539 166.128 97.8743C166.157 98.0947 166.23 98.3072 166.341 98.4994C167.778 100.782 168.738 103.332 169.165 105.995C169.552 109.256 168.35 112.954 165.477 114.525C166.937 115.134 168.183 116.165 169.054 117.486C169.925 118.807 170.383 120.358 170.368 121.941C170.228 126.066 166.888 129.208 163.011 130.958C162.324 131.26 161.75 131.772 161.372 132.42C160.993 133.068 160.829 133.819 160.904 134.566C161.391 138.93 159.83 144.03 153.06 145.333C148.248 146.257 142.015 142.251 142.125 137.38C142.125 137.38 142.214 112.318 145.107 109.097C145.107 109.097 145.823 107.854 148.149 107.854C148.149 107.854 154.362 109.176 155.008 103.321C155.008 103.321 155.923 99.8812 150.475 98.7976H148.626C148.626 98.7976 147.841 54.5392 108.583 48.9224L106.734 49.5586L104.696 50.3042Z" fill="black"/>
<path d="M105.988 49.5489C105.183 47.8589 103.95 45.2742 104.994 43.435C105.561 42.4409 107.122 41.6158 107.977 42.59C108.14 42.7482 108.337 42.8674 108.553 42.9388C108.769 43.0101 108.998 43.0318 109.224 43.0022C109.45 42.9726 109.665 42.8924 109.856 42.7677C110.046 42.6429 110.206 42.4769 110.323 42.2818C111.373 40.3839 113.106 38.9568 115.17 38.2903C117.235 37.6238 119.475 37.7678 121.437 38.693C122.383 39.1419 123.243 39.7507 123.982 40.4924C124.728 41.2678 125.284 42.1327 126.388 42.4807C128.634 43.107 130.235 41.1187 132.134 40.3135C134.318 39.4381 136.65 38.9861 139.003 38.9813C141.26 38.9813 143.735 39.1106 145.505 40.6614C147.013 42.1513 148.006 44.0846 148.338 46.1788C148.593 47.3704 148.67 48.5932 148.567 49.8074C148.467 50.9804 147.871 52.1038 147.94 53.2868C148.08 55.5335 149.929 56.5972 151.917 56.8358C154.462 57.0549 156.946 57.7283 159.254 58.8241C163.23 60.9117 166.282 65.2064 164.314 69.7594C163.399 71.867 164.224 73.5272 166.362 74.2728C168.204 74.9252 169.82 76.0953 171.014 77.6429C172.269 79.2912 173.014 81.2703 173.159 83.3367C173.304 85.4032 172.842 87.4669 171.829 89.2741C170.73 91.3224 169.138 93.0648 167.197 94.3442C166.202 95.0202 165.129 95.5371 164.771 96.8295C164.413 98.1218 165.019 99.116 165.596 100.2C167.674 104.057 169.493 110.449 164.751 113.242C164.506 113.396 164.31 113.617 164.187 113.879C164.064 114.141 164.018 114.432 164.056 114.719C164.094 115.006 164.213 115.276 164.4 115.497C164.586 115.718 164.832 115.881 165.109 115.966C166.255 116.481 167.226 117.32 167.901 118.38C168.576 119.44 168.925 120.675 168.906 121.931C168.793 123.11 168.421 124.248 167.818 125.267C167.215 126.286 166.395 127.16 165.417 127.826C163.429 129.357 160.685 129.894 159.741 132.479C159.065 134.308 159.741 136.356 159.273 138.265C158.279 142.51 153.527 144.826 149.412 143.633C146.3 142.728 143.636 140.283 143.656 136.903C143.656 130.938 143.894 124.973 144.441 119.078C144.55 116.198 145.045 113.346 145.912 110.598C145.952 110.491 146.002 110.387 146.061 110.29C146.061 110.21 146.419 109.713 146.151 110.121C145.883 110.529 146.36 109.833 146.399 109.783C146.439 109.733 146.071 110.061 146.399 109.783C146.693 109.559 147.033 109.403 147.394 109.326C148.282 109.273 149.172 109.29 150.058 109.375C151.789 109.339 153.437 108.627 154.65 107.392C155.863 106.156 156.545 104.496 156.549 102.764C156.544 101.941 156.333 101.133 155.938 100.411C155.542 99.6889 154.974 99.0766 154.283 98.6288C152.594 97.5719 150.613 97.0809 148.626 97.2271L150.118 98.7183C149.886 92.623 148.764 86.5944 146.787 80.8241C143.029 69.4413 135.991 58.9633 125.344 52.8991C121.7 50.8476 117.789 49.312 113.723 48.3361C112.639 48.0676 111.545 47.8489 110.442 47.6501C109.551 47.3923 108.609 47.3717 107.708 47.5905C106.565 47.9881 105.432 48.4156 104.298 48.853C102.529 49.5489 103.304 52.4319 105.094 51.736C105.968 51.388 106.833 51.0401 107.718 50.7418C108.06 50.6633 108.393 50.5501 108.712 50.4038C108.792 50.37 108.876 50.3434 108.961 50.3243C108.245 50.5331 108.623 50.3243 109.02 50.4337C110.014 50.6623 111.009 50.7816 112.003 51.0103C115.523 51.7677 118.933 52.9668 122.153 54.5792C127.584 57.3585 132.312 61.3357 135.981 66.2104C141.807 73.9447 145.107 83.3889 146.549 92.9027C146.708 93.8968 146.737 94.1155 146.857 95.209C146.916 95.8254 146.976 96.4517 147.026 97.0681C147.075 97.6844 147.115 98.2014 147.125 98.778C147.13 99.1718 147.289 99.5481 147.568 99.8267C147.846 100.105 148.222 100.264 148.616 100.269C150.177 100.269 152.066 100.269 153.16 101.641C153.239 101.75 153.458 102.138 153.428 102.069C153.478 102.188 153.577 102.834 153.557 102.496C153.567 102.691 153.567 102.887 153.557 103.083C153.557 102.486 153.557 103.083 153.557 103.301C153.501 104.046 153.199 104.75 152.698 105.304C152.198 105.859 151.528 106.231 150.794 106.363C150.26 106.464 149.715 106.495 149.173 106.453L148.587 106.403C149.074 106.453 148.696 106.403 148.587 106.403C147.426 106.279 146.255 106.508 145.226 107.059C144.857 107.265 144.522 107.527 144.232 107.834C144.123 107.954 144.033 108.093 143.934 108.212C143.636 108.59 144.421 107.427 143.795 108.401C143.252 109.294 142.862 110.272 142.642 111.294C141.902 114.713 141.453 118.188 141.3 121.683C141.031 125.341 140.892 129.009 140.803 132.618C140.693 134.385 140.673 136.157 140.743 137.927C141.111 142.977 146.25 146.506 150.963 146.874C153.291 147.041 155.611 146.455 157.58 145.201C159.549 143.948 161.063 142.095 161.898 139.915C162.263 138.841 162.467 137.718 162.504 136.585C162.564 135.501 162.136 134.109 162.703 133.155C163.369 132.021 165.268 131.534 166.352 130.809C167.59 129.986 168.696 128.981 169.632 127.826C170.58 126.685 171.245 125.335 171.573 123.888C171.901 122.441 171.883 120.936 171.52 119.498C171.156 118.059 170.458 116.726 169.483 115.608C168.507 114.49 167.281 113.618 165.904 113.064L166.262 115.787C170.358 113.382 171.422 108.262 170.338 103.918C170.022 102.699 169.589 101.514 169.046 100.379C168.807 99.8616 168.549 99.3844 168.29 98.8475C168.032 98.3107 167.465 97.8534 167.922 97.3663C168.363 97.0328 168.828 96.7337 169.314 96.4716C169.712 96.1833 170.109 95.8751 170.487 95.557C171.428 94.765 172.275 93.8678 173.012 92.8828C174.442 91.1104 175.425 89.0198 175.876 86.7877C176.328 84.5555 176.236 82.2475 175.607 80.0586C174.932 77.9534 173.766 76.0386 172.207 74.4716C171.459 73.7102 170.621 73.0426 169.712 72.4834C169.206 72.1789 168.677 71.9131 168.131 71.6881C167.873 71.5787 166.948 71.4196 166.829 71.2208C167.037 70.8694 167.213 70.5001 167.356 70.1173C167.561 69.5574 167.707 68.9777 167.793 68.3876C167.991 67.0643 167.941 65.7157 167.644 64.4111C167.08 62.0956 165.812 60.0119 164.015 58.4463C162.244 56.884 160.169 55.703 157.921 54.9768C156.666 54.5648 155.38 54.2556 154.074 54.0523C153.259 53.923 151.201 54.1119 150.923 53.1079C150.823 52.7102 151.132 52.2032 151.221 51.8254C151.385 51.1325 151.495 50.4279 151.549 49.7179C151.637 48.3571 151.55 46.9906 151.291 45.6519C150.91 43.4122 149.981 41.3015 148.587 39.5082C145.276 35.4224 139.331 35.4423 134.589 36.3668C133.281 36.6218 132.004 37.0184 130.782 37.5498C130.12 37.8373 129.479 38.1694 128.863 38.5439C128.525 38.7626 127.869 39.4883 127.422 39.5381C126.974 39.5878 126.616 38.9316 126.328 38.6135C125.9 38.1423 125.431 37.7098 124.926 37.3212C123.87 36.4913 122.684 35.8399 121.417 35.3925C118.882 34.5829 116.145 34.6718 113.668 35.6442C111.191 36.6166 109.125 38.4131 107.817 40.731L110.164 40.4328C108.175 38.2755 104.775 39.0509 103.016 41.0988C100.54 43.9818 102.022 48.0577 103.414 51.0401C104.239 52.7897 106.803 51.2787 105.988 49.5489Z" fill="black"/>
<path d="M106.495 150.065L82.1492 162.989C75.905 166.293 70.3815 170.807 65.9011 176.269C61.4206 181.731 58.0729 188.031 56.0534 194.801L51.4805 209.971" stroke="black" stroke-width="2.25938" stroke-linecap="round" stroke-linejoin="round"/>
<path d="M204.089 213.351L201.742 197.047C200.688 189.718 197.946 182.734 193.731 176.646C189.517 170.557 183.945 165.532 177.456 161.965L152.146 147.5C158.955 151.904 159.602 157.243 158.269 161.756C157.098 165.695 154.679 169.147 151.376 171.592C148.074 174.037 144.067 175.344 139.958 175.316C131.1 175.207 124.38 169.51 124.38 169.51C124.38 169.51 108.016 182.662 95.1027 169.51C95.1027 169.51 87.259 159.569 103.573 151.616" stroke="black" stroke-width="2.25938" stroke-linecap="round" stroke-linejoin="round"/>
<path d="M124.38 169.52V195.844" stroke="black" stroke-width="2.25938" stroke-linecap="round" stroke-linejoin="round"/>
<path d="M170.557 190.983V213.351" stroke="black" stroke-width="2.25938" stroke-linecap="round" stroke-linejoin="round"/>
<path d="M78.9878 190.983V213.351" stroke="black" stroke-width="2.25938" stroke-linecap="round" stroke-linejoin="round"/>
<path d="M64.5927 125.534L42.1128 128.104L44.682 150.583L67.162 148.014L64.5927 125.534Z" stroke="black" stroke-width="2.25938" stroke-linecap="round" stroke-linejoin="round"/>
<path d="M54.1546 149.498L55.2979 159.549L32.8207 162.113L30.2559 139.636L43.259 138.145" stroke="black" stroke-width="2.25938" stroke-linecap="round" stroke-linejoin="round"/>
<path d="M48.9453 141.704C48.5774 140.004 49.999 138.454 51.0429 137.3C51.2069 137.146 51.3628 136.984 51.5101 136.813L51.0329 136.913L51.1423 136.972C51.1423 137.121 51.6195 137.4 51.7288 137.489L52.2358 137.956C53.0709 138.702 53.8861 139.448 54.7211 140.183C55.0616 140.583 55.5302 140.852 56.0469 140.944C56.5637 141.037 57.0965 140.947 57.5544 140.69C57.9648 140.394 58.3044 140.01 58.5485 139.567C58.6857 139.268 58.8593 138.988 59.0655 138.732C59.2842 138.543 59.4035 138.623 59.7613 138.623C60.221 138.645 60.6811 138.591 61.1233 138.463C61.6115 138.313 62.0424 138.017 62.3585 137.616C62.6746 137.215 62.861 136.727 62.8928 136.217C62.8928 135.821 62.7357 135.442 62.4561 135.162C62.1764 134.883 61.7971 134.726 61.4016 134.726C61.0093 134.736 60.6359 134.896 60.3584 135.173C60.0809 135.451 59.9205 135.824 59.9105 136.217C59.8508 136.783 60.0298 135.451 60.2385 135.64C60.1689 135.571 59.6619 135.64 59.5227 135.64C58.8571 135.607 58.1955 135.762 57.614 136.087C57.1191 136.396 56.6983 136.811 56.3813 137.3L56.0234 137.897C55.6655 138.503 55.8544 137.966 56.2918 138.016L57.0474 138.225C56.4956 137.873 55.994 137.449 55.5562 136.962L53.6972 135.292C53.1733 134.727 52.5225 134.294 51.7984 134.03C51.3706 133.929 50.9244 133.937 50.5006 134.053C50.0768 134.17 49.6889 134.39 49.3727 134.696C47.2254 136.684 45.3962 139.527 46.0424 142.5C46.1515 142.877 46.4037 143.198 46.7452 143.393C47.0868 143.588 47.4908 143.642 47.8716 143.543C48.2502 143.432 48.5707 143.178 48.7654 142.835C48.9602 142.492 49.014 142.086 48.9154 141.704H48.9453Z" fill="black"/>
<path d="M207.44 64.1114L185.266 59.5862L180.741 81.7599L202.915 86.2852L207.44 64.1114Z" stroke="black" stroke-width="2.25983" stroke-linecap="round" stroke-linejoin="round"/>
<path d="M83.8628 31.5018L61.3828 34.071L63.952 56.551L86.432 53.9818L83.8628 31.5018Z" stroke="black" stroke-width="2.25938" stroke-linecap="round" stroke-linejoin="round"/>
<path d="M55.1152 81.6317L32.6353 84.2009L35.2045 106.681L57.6844 104.112L55.1152 81.6317Z" stroke="black" stroke-width="2.25938" stroke-linecap="round" stroke-linejoin="round"/>
<path d="M187.169 75.1478C187.348 73.5273 189.157 72.5034 190.38 71.7876C190.38 71.7876 191.086 71.4098 191.076 71.3999C190.917 71.2806 190.787 71.2607 190.678 71.3403C190.569 71.4198 190.678 71.3403 190.678 71.3403C190.678 71.3403 191.255 72.3344 191.324 72.4437L193.014 75.4261C193.541 76.3606 194.227 77.1957 195.43 77.0167C196.424 76.8676 196.832 76.0723 197.627 75.6349C198.084 75.3863 198.979 75.953 199.615 75.9729C200.098 76.0181 200.583 75.9207 201.011 75.6927C201.438 75.4647 201.79 75.1162 202.021 74.6905C202.193 74.3512 202.233 73.9605 202.134 73.5935C202.034 73.2265 201.803 72.909 201.484 72.7022C201.142 72.5061 200.736 72.4524 200.355 72.5529C199.974 72.6533 199.647 72.8998 199.446 73.239C199.267 73.6069 199.735 72.9806 199.735 73.0502L199.059 72.8215C198.514 72.6272 197.93 72.5692 197.359 72.6525C196.831 72.7455 196.333 72.9636 195.907 73.2887C195.688 73.4478 195.48 73.6267 195.281 73.7957C195.082 73.9647 194.754 74.1039 195.052 74.1039L195.798 74.3127C195.917 74.3127 196.007 74.6408 195.798 74.3127C195.589 73.9846 195.599 73.9647 195.5 73.7957L194.843 72.6426C194.426 71.9168 194.018 71.1911 193.601 70.4754C192.766 69.0339 191.523 67.9702 189.803 68.7456C187.089 69.9584 184.505 72.066 184.167 75.1776C184.169 75.5723 184.327 75.95 184.606 76.2291C184.885 76.5082 185.263 76.6662 185.658 76.6688C186.05 76.6587 186.423 76.4984 186.701 76.2209C186.978 75.9434 187.139 75.5699 187.149 75.1776L187.169 75.1478Z" fill="black"/>
<path d="M38.8053 154.032C38.8053 153.883 38.8053 153.733 38.855 153.594C38.9047 153.455 38.855 153.336 38.855 153.495C38.855 153.654 38.855 153.405 38.855 153.405C38.9047 153.087 38.9644 152.769 39.024 152.411C39.1601 151.784 39.3361 151.167 39.5509 150.562C39.5917 150.42 39.6416 150.281 39.7 150.145C39.7205 150.076 39.7471 150.01 39.7796 149.946V149.846C39.7199 149.976 39.7796 149.757 39.7796 149.747L39.869 149.548C39.9386 149.389 40.0182 149.24 40.0877 149.081L40.2965 148.683C40.3288 148.64 40.3555 148.594 40.376 148.544V148.494L39.8193 148.922H39.4515C39.3808 148.949 39.3035 148.956 39.2293 148.94C39.1551 148.924 39.0872 148.887 39.034 148.832C39.034 148.832 38.9644 148.763 39.034 148.832C39.1036 148.902 39.1732 149.011 39.0837 148.832C38.9942 148.653 39.0837 148.932 39.1433 148.952C39.2924 149.21 39.4316 149.479 39.5708 149.747C39.71 150.015 39.7 150.015 39.7597 150.155C39.8193 150.294 39.9585 150.612 39.879 150.423C40.1275 151.019 40.2866 151.636 40.5053 152.242C41.052 153.753 42.3046 155.085 44.0543 154.728C44.4833 154.656 44.8916 154.492 45.2505 154.247C45.6094 154.001 45.9103 153.68 46.132 153.306C46.3089 152.959 46.4617 152.6 46.5893 152.232C46.5893 152.143 46.7881 151.785 46.6689 152.004C46.7532 151.841 46.8495 151.685 46.9572 151.536C47.1538 151.193 47.2077 150.786 47.1073 150.403C47.0069 150.02 46.7602 149.691 46.4203 149.489C46.0765 149.3 45.6735 149.251 45.2943 149.35C44.9151 149.45 44.5887 149.692 44.3824 150.025C44.1675 150.333 43.9937 150.667 43.8654 151.019L43.7163 151.407C43.7163 151.467 43.6666 151.536 43.6368 151.606C43.6069 151.676 43.5672 151.745 43.6368 151.606L43.4578 151.924C43.4578 151.924 43.6467 151.676 43.4578 151.924C43.4578 151.924 43.2888 152.083 43.4578 151.924C43.6268 151.765 43.4578 151.924 43.4578 151.924C43.5325 151.907 43.6056 151.884 43.6765 151.855C43.8058 151.795 43.7362 151.855 43.6765 151.855C43.7262 151.855 43.9549 151.855 43.9748 151.934C43.9947 152.014 43.6368 151.666 43.8754 151.934C43.6865 151.765 43.8754 151.934 43.8754 151.934L43.766 151.745C43.727 151.685 43.6937 151.622 43.6666 151.556C43.6666 151.556 43.7262 151.745 43.6666 151.556L43.5075 151.079C43.2888 150.383 43.0403 149.707 42.752 149.031C42.1854 147.739 41.4 145.989 39.7696 145.979C39.3254 146.018 38.9018 146.185 38.5493 146.458C38.1968 146.731 37.9302 147.1 37.7814 147.52C37.4544 148.165 37.1656 148.829 36.9165 149.508C36.3918 150.957 36.0576 152.467 35.9224 154.002C35.925 154.397 36.0829 154.774 36.362 155.053C36.6411 155.332 37.0189 155.49 37.4136 155.493C37.8059 155.483 38.1793 155.323 38.4568 155.045C38.7343 154.768 38.8947 154.394 38.9047 154.002L38.8053 154.032Z" fill="black"/>
<path d="M44.6811 150.581L38.4082 138.702L43.2595 138.145L44.6811 150.581Z" fill="black" stroke="black" stroke-width="2.25938" stroke-linecap="round" stroke-linejoin="round"/>
<path d="M178.204 141.718L200.684 144.287L203.253 121.807L180.773 119.238L178.204 141.718Z" stroke="black" stroke-width="2.25938" stroke-linecap="round" stroke-linejoin="round"/>
<path d="M191.224 143.196L190.081 153.236L212.558 155.811L215.123 133.334L202.11 131.843" stroke="black" stroke-width="2.25938" stroke-linecap="round" stroke-linejoin="round"/>
<path d="M199.307 136.197C199.943 133.214 198.124 130.322 195.976 128.393C195.674 128.1 195.306 127.885 194.902 127.765C194.499 127.646 194.073 127.626 193.66 127.707C192.932 127.93 192.275 128.338 191.751 128.89L189.892 130.56C189.426 131.081 188.891 131.536 188.302 131.912L189.057 131.713C189.495 131.713 189.683 132.19 189.316 131.584C189.216 131.415 189.127 131.246 189.017 131.077C188.714 130.555 188.291 130.113 187.785 129.785C187.238 129.47 186.616 129.312 185.985 129.327C185.711 129.293 185.434 129.293 185.16 129.327C185.369 129.139 185.548 130.481 185.488 129.904C185.476 129.512 185.315 129.14 185.038 128.863C184.761 128.586 184.389 128.425 183.997 128.413C183.602 128.413 183.222 128.57 182.943 128.85C182.663 129.129 182.506 129.509 182.506 129.904C182.536 130.414 182.722 130.903 183.039 131.305C183.355 131.706 183.786 132.002 184.275 132.151C184.717 132.282 185.177 132.339 185.637 132.32C185.965 132.32 186.124 132.25 186.333 132.419C186.54 132.678 186.714 132.962 186.85 133.264C187.063 133.642 187.343 133.979 187.675 134.258C188.669 135.054 189.793 134.636 190.658 133.871L193.034 131.743C193.477 131.436 193.881 131.075 194.237 130.669H194.326C194.485 130.57 194.326 130.53 193.869 130.55C194.008 130.724 194.161 130.887 194.326 131.037C195.38 132.2 196.801 133.741 196.434 135.451C196.341 135.828 196.399 136.226 196.595 136.56C196.791 136.895 197.11 137.14 197.484 137.243C197.858 137.347 198.257 137.301 198.597 137.115C198.938 136.928 199.192 136.617 199.307 136.247V136.197Z" fill="black"/>
<path d="M209.556 147.729C209.442 146.377 209.176 145.043 208.761 143.752C208.527 143.076 208.258 142.412 207.955 141.764C207.721 141.066 207.277 140.459 206.683 140.024C206.255 139.805 205.767 139.734 205.295 139.82C204.822 139.906 204.391 140.146 204.068 140.501C203.606 141.027 203.233 141.624 202.965 142.271C202.635 142.951 202.349 143.651 202.11 144.368C202.021 144.647 201.941 144.925 201.852 145.203C201.852 145.273 201.802 145.343 201.772 145.402C201.742 145.462 201.871 145.243 201.772 145.402L201.663 145.591C201.533 145.84 201.722 145.591 201.663 145.591C201.603 145.591 201.663 145.591 201.732 145.591C201.802 145.591 201.523 145.691 201.523 145.72C201.523 145.75 201.702 145.661 201.732 145.651C201.762 145.641 201.842 145.651 201.732 145.651C201.623 145.651 201.653 145.651 201.732 145.651L201.951 145.72C201.792 145.661 201.891 145.651 201.951 145.72L201.792 145.541C201.871 145.651 201.881 145.681 201.792 145.541C201.773 145.485 201.747 145.431 201.712 145.382C201.593 145.213 201.782 145.591 201.712 145.382C201.643 145.174 201.603 145.074 201.543 144.925C201.401 144.496 201.2 144.088 200.947 143.712C200.852 143.536 200.723 143.38 200.567 143.254C200.411 143.129 200.231 143.036 200.038 142.981C199.845 142.927 199.644 142.912 199.445 142.937C199.246 142.962 199.054 143.027 198.881 143.128C198.708 143.229 198.557 143.364 198.437 143.524C198.317 143.685 198.231 143.868 198.184 144.063C198.136 144.257 198.128 144.459 198.161 144.657C198.193 144.855 198.265 145.044 198.372 145.213C198.452 145.323 198.521 145.442 198.591 145.561C198.66 145.681 198.591 145.462 198.67 145.71C198.75 145.959 198.929 146.426 199.088 146.774C199.374 147.411 199.859 147.938 200.47 148.275C200.826 148.438 201.212 148.527 201.604 148.537C201.996 148.547 202.385 148.477 202.749 148.332C203.114 148.187 203.445 147.97 203.722 147.694C204 147.417 204.22 147.088 204.367 146.724C204.655 146.088 204.834 145.422 205.063 144.736C205.122 144.567 205.182 144.408 205.251 144.239C205.321 144.07 205.251 144.239 205.251 144.239L205.341 144.03C205.48 143.742 205.619 143.444 205.778 143.156L205.987 142.758C206.047 142.668 206.226 142.44 206.047 142.629L206.176 142.49C206.295 142.36 206.176 142.49 206.116 142.49H205.758C205.65 142.551 205.522 142.568 205.401 142.537C205.28 142.505 205.176 142.428 205.112 142.32C204.635 141.963 204.844 142.082 204.913 142.251C204.983 142.42 205.182 142.768 205.311 143.026L205.49 143.434C205.56 143.593 205.49 143.434 205.49 143.434C205.49 143.434 205.56 143.623 205.599 143.712C205.853 144.38 206.062 145.065 206.226 145.76C206.305 146.098 206.375 146.436 206.424 146.754C206.424 146.834 206.494 147.261 206.474 147.013L206.534 147.609C206.534 148.005 206.691 148.384 206.971 148.664C207.25 148.943 207.63 149.1 208.025 149.1C208.421 149.1 208.8 148.943 209.079 148.664C209.359 148.384 209.516 148.005 209.516 147.609L209.556 147.729Z" fill="black"/>
<path d="M200.688 144.279L206.971 132.399L202.11 131.843L200.688 144.279Z" fill="black" stroke="black" stroke-width="2.25938" stroke-linecap="round" stroke-linejoin="round"/>
<path d="M207.101 64.769V81.8779L203.134 83.8065L207.101 64.769Z" fill="black" stroke="black" stroke-width="2.25938" stroke-linecap="round" stroke-linejoin="round"/>
<path d="M67.973 46.3276C67.8063 45.3981 67.8464 44.4432 68.0904 43.5309C68.3344 42.6186 68.7763 41.7711 69.3847 41.0488C69.4344 40.9892 69.9613 40.5021 69.9613 40.4921C69.9613 40.4822 69.4542 40.6114 69.6034 40.4325C69.7525 40.2535 70.0905 41.2079 70.1303 41.3272C70.5979 42.5875 70.9864 43.8757 71.2934 45.1844C71.8103 47.3218 72.208 50.7117 75.2102 50.4731C76.5622 50.3638 77.3078 49.31 78.0037 48.2861C78.3417 47.7791 78.6897 47.2919 79.0575 46.7949C79.2364 46.5563 79.4154 46.3276 79.6043 46.099L79.9622 45.6616C80.2206 45.423 80.2107 45.3832 79.9622 45.5522H79.1669L79.3359 45.6019L78.6797 45.2142C79.3464 45.8512 79.9429 46.5578 80.4592 47.3218C80.7418 47.5992 81.122 47.7547 81.518 47.7547C81.914 47.7547 82.2941 47.5992 82.5767 47.3218C82.8466 47.0373 82.9971 46.6601 82.9971 46.268C82.9971 45.8759 82.8466 45.4987 82.5767 45.2142C81.9007 44.3891 81.1352 42.9973 80.0516 42.6991C78.5604 42.2915 77.6558 43.8125 76.8903 44.8066C76.5026 45.3037 76.1248 45.8008 75.7669 46.3177C75.5425 46.7694 75.2472 47.1822 74.8921 47.5405C75.1009 47.3914 75.0114 47.63 74.8921 47.3516C74.7629 46.8744 74.6038 46.4171 74.5044 45.93C74.236 44.6675 73.9278 43.4149 73.5699 42.1722C73.318 41.018 72.8708 39.9152 72.2477 38.9115C71.9318 38.4082 71.468 38.0149 70.9199 37.7853C70.3718 37.5558 69.7661 37.5012 69.1858 37.6291C68.0405 38.0751 67.085 38.9042 66.4818 39.9752C65.79 41.0196 65.3117 42.1907 65.0745 43.4209C64.8373 44.6511 64.846 45.916 65.1 47.1428C65.1475 47.3366 65.2334 47.5189 65.3527 47.6789C65.4719 47.8389 65.6221 47.9733 65.7942 48.0742C65.9664 48.1751 66.157 48.2405 66.3549 48.2664C66.5527 48.2922 66.7538 48.2781 66.9461 48.2249C67.1384 48.1717 67.3181 48.0804 67.4745 47.9564C67.6309 47.8325 67.7608 47.6784 67.8565 47.5034C67.9523 47.3283 68.0119 47.1358 68.032 46.9373C68.052 46.7387 68.0319 46.5382 67.973 46.3475V46.3276Z" fill="black"/>
<path d="M32.651 84.2039L31.6768 101.989L34.7585 102.695L32.651 84.2039Z" fill="black" stroke="black" stroke-width="2.25938" stroke-linecap="round" stroke-linejoin="round"/>
<path d="M38.4175 91.3519L50.854 90.2981" stroke="black" stroke-width="2.25938" stroke-linecap="round" stroke-linejoin="round"/>
<path d="M38.9546 95.9939L47.2754 95.2881" stroke="black" stroke-width="2.25938" stroke-linecap="round" stroke-linejoin="round"/>
</svg>
