<svg width="242" height="241" viewBox="0 0 242 241" fill="none" xmlns="http://www.w3.org/2000/svg">
<circle cx="121" cy="120.5" r="120.5" fill="#3C78FB"/>
<path d="M51.64 84.4301C65.1323 84.4301 76.07 73.4924 76.07 60.0001C76.07 46.5078 65.1323 35.5701 51.64 35.5701C38.1476 35.5701 27.21 46.5078 27.21 60.0001C27.21 73.4924 38.1476 84.4301 51.64 84.4301Z" stroke="black" stroke-width="3" stroke-linecap="round" stroke-linejoin="round"/>
<path d="M32.4897 44.84C32.4897 44.84 43.6497 42.14 43.4897 48.23C43.3297 54.32 39.9997 60.39 40.8097 60C41.6197 59.61 44.8697 62.09 42.6297 65.22C40.3897 68.35 38.7797 71.22 44.4597 74.63C50.1397 78.04 45.8397 83.73 45.8397 83.73" stroke="black" stroke-width="3" stroke-linecap="round" stroke-linejoin="round"/>
<path d="M67.1599 41.1301C67.1599 41.1301 58.0799 42.4301 54.3999 47.9201C54.0926 48.3732 53.8976 48.8929 53.8309 49.4362C53.7642 49.9796 53.8277 50.531 54.0163 51.0449C54.2049 51.5589 54.513 52.0205 54.9153 52.3918C55.3176 52.7631 55.8025 53.0333 56.3299 53.1801C58.7561 53.786 61.2794 53.8982 63.7499 53.5101C71.6699 52.5101 62.3299 60.2101 65.7499 61.2301C69.1699 62.2501 72.2499 60.6201 72.2499 63.0601C72.2499 65.5001 74.1599 69.3901 74.1599 69.3901" stroke="black" stroke-width="3" stroke-linecap="round" stroke-linejoin="round"/>
<path d="M40 38.5499C40 38.5499 46.55 42.4999 56.9 36.1299" stroke="black" stroke-width="3" stroke-linecap="round" stroke-linejoin="round"/>
<path d="M55 83.7301C55 83.7301 57.4 79.0701 68.58 77.5601" stroke="black" stroke-width="3" stroke-linecap="round" stroke-linejoin="round"/>
<path d="M94.3599 134.77C92.3599 135.12 90.3599 135.45 88.4399 135.77" stroke="black" stroke-width="3" stroke-linecap="round" stroke-linejoin="round"/>
<path d="M75.5499 137.42C53.6099 139.69 38.5499 137.95 36.9199 131.87C34.9199 124.41 53.6399 112.47 82.3599 101.57" stroke="black" stroke-width="3" stroke-linecap="round" stroke-linejoin="round" stroke-dasharray="13 13"/>
<path d="M88.4502 99.3301C90.3102 98.6601 92.2002 98.0101 94.1202 97.3301" stroke="black" stroke-width="3" stroke-linecap="round" stroke-linejoin="round"/>
<path d="M159.55 81.4101C161.55 81.1034 163.53 80.8201 165.49 80.5601" stroke="black" stroke-width="3" stroke-linecap="round" stroke-linejoin="round"/>
<path d="M176.68 79.3499C196.23 77.7499 209.41 79.6399 210.93 85.3499C212.74 92.0899 197.64 102.48 173.54 112.46" stroke="black" stroke-width="3" stroke-linecap="round" stroke-linejoin="round" stroke-dasharray="11.26 11.26"/>
<path d="M168.32 114.52C166.493 115.24 164.623 115.95 162.71 116.65" stroke="black" stroke-width="3" stroke-linecap="round" stroke-linejoin="round"/>
<path d="M46.3003 215.46L53.0703 193.46C57.788 178.215 67.7451 165.131 81.1803 156.52C92.4603 149.26 105.83 138.92 113.93 126.67" stroke="black" stroke-width="3" stroke-linecap="round" stroke-linejoin="round"/>
<path d="M96.77 60C96.77 60 94.5 73.6 95 83.4C95.1836 87.0696 95.0733 90.748 94.67 94.4C93.72 102.74 93.79 117.82 105.27 123.96C108.095 125.427 111.24 126.17 114.423 126.125C117.606 126.08 120.728 125.247 123.51 123.7L133.62 118.22" stroke="black" stroke-width="3" stroke-linecap="round" stroke-linejoin="round"/>
<path d="M108.41 133.92C108.41 133.92 126.95 130.67 133.58 118.25C133.58 118.25 123.41 125 113.27 127.69L108.41 133.92Z" fill="black" stroke="black" stroke-width="3" stroke-linecap="round" stroke-linejoin="round"/>
<path d="M95.6299 68.5899C95.6299 68.5899 111.63 67.9899 110.32 78.3999C109.43 85.3279 108.175 92.2041 106.56 98.9999H110.39" stroke="black" stroke-width="3" stroke-linecap="round" stroke-linejoin="round"/>
<path d="M117.122 80.3504C117.122 80.3504 123.982 80.1904 126.892 84.3504" stroke="black" stroke-width="3" stroke-linecap="round" stroke-linejoin="round"/>
<path d="M117.5 83.0001C117.982 82.4327 118.585 81.9816 119.266 81.6803C119.946 81.379 120.686 81.2353 121.43 81.2601" stroke="black" stroke-width="3" stroke-linecap="round" stroke-linejoin="round"/>
<path d="M98.1299 80.6401C98.1299 80.6401 103.54 80.5101 105.85 83.8101" stroke="black" stroke-width="3" stroke-linecap="round" stroke-linejoin="round"/>
<path d="M98.5605 82.5099C98.941 82.0599 99.4185 81.7019 99.9571 81.4629C100.496 81.2239 101.082 81.11 101.671 81.1299" stroke="black" stroke-width="3" stroke-linecap="round" stroke-linejoin="round"/>
<path d="M115.82 105.48C115.82 105.48 123.04 105.87 126.72 97.9001" stroke="black" stroke-width="3" stroke-linecap="round" stroke-linejoin="round"/>
<path d="M115.22 71.94C115.22 71.94 120.63 70.56 125.22 71.94" stroke="black" stroke-width="3" stroke-linecap="round" stroke-linejoin="round"/>
<path d="M86.16 73.8401C85.38 73.0901 84.68 72.3801 84.1 71.7701C83.5678 71.216 83.1736 70.5442 82.9495 69.8093C82.7254 69.0744 82.6776 68.297 82.81 67.5401C88.63 34.5901 116.38 31.6501 126.72 31.6501C129.768 31.6283 132.776 32.3369 135.494 33.7166C138.211 35.0963 140.559 37.1069 142.34 39.5801H147.85C163.48 42.6601 169.85 81.8601 168.99 97.9001C168.13 113.94 170.09 125.47 180.88 142.9C191.67 160.33 197.18 191.58 197.18 191.58C197.18 191.58 195.42 194 181.32 183C167.22 172 150.49 173.31 140.14 159.87C129.79 146.43 141.46 134.54 143.22 126.12C144.98 117.7 137.94 111.64 141.46 96.6601C143.55 87.7701 139.51 83.3001 135.88 81.1401C132.483 79.1933 129.526 76.5639 127.196 73.4178C124.866 70.2716 123.212 66.6769 122.34 62.8601C121.443 58.5344 120.994 54.1278 121 49.7101C116.629 53.1342 111.375 55.2462 105.85 55.8001C96.4 56.8001 96.54 61.4301 96.54 61.4301L94.94 78.1701C91.6386 77.6612 88.5735 76.1496 86.16 73.8401Z" fill="black" stroke="black" stroke-width="3" stroke-linecap="round" stroke-linejoin="round"/>
<path d="M94.6302 94.4299C94.6302 94.4299 89.6902 115.07 87.6902 131C85.6902 146.93 68.6302 151.1 68.1802 167.42C68.1802 167.42 73.7402 160.13 81.1802 156.56C88.6202 152.99 107.91 136.49 113.93 126.71C113.93 126.71 90.3902 126.23 94.6302 94.4299Z" fill="black" stroke="black" stroke-width="3" stroke-linecap="round" stroke-linejoin="round"/>
<path d="M91.0601 148.09C91.0601 148.09 91.4801 175.16 117.5 177.24C143.52 179.32 153.5 164.75 153.5 164.75" stroke="black" stroke-width="3" stroke-linecap="round" stroke-linejoin="round"/>
<path d="M189.36 161.62C189.36 161.62 199.74 191.53 201.31 215.46" stroke="black" stroke-width="3" stroke-linecap="round" stroke-linejoin="round"/>
<path d="M80.12 183.45C80.12 183.45 64.98 200.74 68.18 215.45" stroke="black" stroke-width="3" stroke-linecap="round" stroke-linejoin="round"/>
<path d="M213.464 110.433C200.62 110.433 190.214 120.839 190.214 133.683C190.214 146.527 200.62 156.933 213.464 156.933C226.307 156.933 236.714 146.527 236.714 133.683C236.714 120.839 226.307 110.433 213.464 110.433ZM213.464 153.933C202.214 153.933 193.214 144.933 193.214 133.683C193.214 122.527 202.214 113.433 213.464 113.433C224.62 113.433 233.714 122.527 233.714 133.683C233.714 144.933 224.62 153.933 213.464 153.933ZM217.214 133.214L210.464 131.339C209.339 131.058 208.495 130.027 208.495 128.808C208.495 127.402 209.714 126.183 211.214 126.183H215.432C216.464 126.183 217.495 126.558 218.245 127.214C218.62 127.402 218.995 127.402 219.276 127.12L220.307 125.995C220.589 125.714 220.589 125.152 220.214 124.87C218.901 123.839 217.214 123.183 215.432 123.183H214.964V119.433C214.964 119.058 214.589 118.683 214.214 118.683H212.714C212.245 118.683 211.964 119.058 211.964 119.433V123.183H211.214C208.026 123.183 205.495 125.714 205.495 128.808C205.495 131.339 207.182 133.495 209.62 134.245L216.37 136.12C217.495 136.402 218.339 137.433 218.339 138.652C218.339 140.058 217.12 141.183 215.62 141.183H211.401C210.37 141.183 209.339 140.902 208.589 140.245C208.214 140.058 207.839 140.058 207.557 140.339L206.526 141.464C206.245 141.745 206.245 142.308 206.62 142.589C207.932 143.62 209.62 144.183 211.401 144.183H211.964V147.933C211.964 148.402 212.245 148.683 212.714 148.683H214.214C214.589 148.683 214.964 148.402 214.964 147.933V144.183H215.62C218.807 144.183 221.339 141.745 221.339 138.652C221.339 136.12 219.651 133.87 217.214 133.214Z" fill="black"/>
</svg>
