<svg width="300" height="242" viewBox="0 0 300 242" fill="none" xmlns="http://www.w3.org/2000/svg">
<circle cx="154" cy="121" r="120.5" fill="#3C78FB"/>
<g clip-path="url(#clip0)">
<path d="M121.54 117.32C121.54 117.32 89.7803 113.12 101.23 173.24H29.7103C29.7103 173.24 25.9103 117.67 49.1803 117.32H121.54Z" stroke="black" stroke-width="3" stroke-linecap="round" stroke-linejoin="round"/>
<path d="M121.541 117.32L158.351 202.57" stroke="black" stroke-width="3" stroke-linecap="round" stroke-linejoin="round"/>
<path d="M62.27 173.24L75.51 214" stroke="black" stroke-width="3" stroke-linecap="round" stroke-linejoin="round"/>
<path d="M116.78 127.94L148.22 199.22" stroke="black" stroke-width="3" stroke-linecap="round" stroke-linejoin="round"/>
<path d="M60.8799 117.32L72.1599 131.32C73.0707 132.438 74.3754 133.165 75.8058 133.351C77.2361 133.537 78.6833 133.168 79.8499 132.32L100.71 117.27" stroke="black" stroke-width="3" stroke-linecap="round" stroke-linejoin="round"/>
<path d="M148.22 162.18C148.22 162.18 153.38 151.94 160.08 155.88C166.78 159.82 175.83 175.18 175.83 175.18C175.83 175.18 174.06 183.84 164.21 190.73" stroke="black" stroke-width="3" stroke-linecap="round" stroke-linejoin="round"/>
<path d="M156.31 159.94C156.31 159.94 152.07 167.39 151.73 175.54" stroke="black" stroke-width="3" stroke-linecap="round" stroke-linejoin="round"/>
<path d="M157.87 155L170.74 127C170.839 126.788 170.979 126.597 171.152 126.439C171.325 126.281 171.527 126.159 171.748 126.08C171.968 126.001 172.202 125.966 172.436 125.978C172.67 125.99 172.899 126.049 173.11 126.15C173.519 126.344 173.838 126.688 174 127.111C174.162 127.533 174.155 128.002 173.98 128.42L162 157.28" fill="black"/>
<path d="M157.87 155L170.74 127C170.839 126.788 170.979 126.597 171.152 126.439C171.325 126.281 171.527 126.159 171.748 126.08C171.968 126.001 172.202 125.966 172.436 125.978C172.67 125.99 172.899 126.049 173.11 126.15V126.15C173.519 126.344 173.838 126.688 174 127.111C174.162 127.533 174.155 128.002 173.98 128.42L162 157.28" stroke="black" stroke-width="3" stroke-linecap="round" stroke-linejoin="round"/>
<path d="M175.83 175.18L195.08 195.6" stroke="black" stroke-width="3" stroke-linecap="round" stroke-linejoin="round"/>
<path d="M198.83 140.21L190.49 190.73" stroke="black" stroke-width="3" stroke-linecap="round" stroke-linejoin="round"/>
<path d="M131.089 139.43L168.789 113.21" stroke="black" stroke-width="3" stroke-linecap="round" stroke-linejoin="round"/>
<path d="M250 203.58C250 203.58 239.2 148.89 229.81 117.25C221.99 90.8901 201.81 87.0801 195.26 86.5401C194.626 86.4858 194.02 86.2584 193.506 85.8828C192.993 85.5072 192.593 84.9977 192.35 84.4101L184.46 65.6701C184.164 64.9552 184.122 64.1607 184.34 63.4185C184.559 62.6763 185.024 62.0312 185.66 61.5901L188.28 59.7601C189.234 59.0973 189.928 58.1229 190.242 57.0042C190.555 55.8856 190.47 54.6926 190 53.6301V53.6301C188.77 50.8401 185.85 49.5501 183.26 51.1701L179.07 53.7201" stroke="black" stroke-width="3" stroke-linecap="round" stroke-linejoin="round"/>
<path d="M238.49 150.59L219.25 203.58" stroke="black" stroke-width="3" stroke-linecap="round" stroke-linejoin="round"/>
<path d="M198.83 86.9995C198.83 86.9995 191.19 115.19 170.67 117.29" stroke="black" stroke-width="3" stroke-linecap="round" stroke-linejoin="round"/>
<path d="M125.47 70.8905C125.47 70.8905 136.29 53.2905 154.11 48.7205C154.11 48.7205 155.11 56.5505 162.59 48.7205C162.59 48.7205 162.25 49.9605 163.98 54.6105C164.602 56.2973 165.701 57.7671 167.143 58.8411C168.585 59.9152 170.307 60.5473 172.102 60.6607C173.896 60.774 175.685 60.3637 177.25 59.4795C178.816 58.5954 180.091 57.2756 180.92 55.6805L183.26 51.1705C183.26 51.1705 174 27.8205 170.67 25.2505C168.573 23.6998 165.993 22.9449 163.39 23.1205C160.521 21.4361 157.142 20.8398 153.87 21.4405C150.104 22.2836 146.532 23.8307 143.34 26.0005C143.34 26.0005 122.25 27.2905 111.72 35.7205C111.411 35.9667 111.177 36.2953 111.047 36.6684C110.916 37.0415 110.893 37.4439 110.981 37.8294C111.068 38.2149 111.263 38.5678 111.543 38.8475C111.822 39.1272 112.175 39.3224 112.56 39.4105L121.28 41.4105C121.28 41.4105 101.45 53.6105 99.8901 71.5305C99.8901 71.5305 100.22 76.3505 104.25 73.7705C108.28 71.1905 114.11 68.9605 114.11 69.6305C114.11 70.3005 108.17 85.8705 112.11 85.3105C116.05 84.7505 122 80.6805 122 80.6805C122 80.6805 124.94 85.5105 130 82.6005L125.47 70.8905Z" fill="black" stroke="black" stroke-width="3" stroke-linecap="round" stroke-linejoin="round"/>
<path d="M186.44 60.9998C188.257 66.5737 189.379 72.3508 189.78 78.1997L183.68 63.5598C184.466 62.5724 185.397 61.7094 186.44 60.9998Z" fill="black" stroke="black" stroke-width="3" stroke-linecap="round" stroke-linejoin="round"/>
<path d="M123.81 67.2297L139.32 101.47C140.975 105.182 143.893 108.186 147.556 109.948C151.218 111.71 155.387 112.114 159.32 111.09C164.369 109.674 168.999 107.052 172.81 103.45C173.624 102.687 174.358 101.843 175 100.93L180.89 92.8797" stroke="black" stroke-width="3" stroke-linecap="round" stroke-linejoin="round"/>
<path d="M166.21 108.67L172.46 116.8" stroke="black" stroke-width="3" stroke-linecap="round" stroke-linejoin="round"/>
<path d="M168 110.94C168 110.94 180.91 103.85 183.23 95.2803C183.345 94.8891 183.334 94.4712 183.198 94.0867C183.061 93.7022 182.806 93.3709 182.47 93.1403C181.7 92.6503 180.53 92.7203 179.11 95.4003C174.85 103.4 166.25 108.67 166.25 108.67L168 110.94Z" fill="black" stroke="black" stroke-width="3" stroke-linecap="round" stroke-linejoin="round"/>
<path d="M128.19 78.2395C128.19 78.2395 130.69 73.5995 135.09 72.2395C136.235 71.8963 137.464 71.9679 138.562 72.4416C139.659 72.9153 140.554 73.7609 141.09 74.8295C142.85 78.3595 145.84 84.5795 146.96 88.3595C147.17 89.01 147.314 89.68 147.39 90.3595C147.78 94.6095 152.33 91.5195 152.33 91.5195" stroke="black" stroke-width="3" stroke-linecap="round" stroke-linejoin="round"/>
<path d="M144.67 70.8898C144.67 70.8898 147.95 63.2098 156.55 62.5798" stroke="black" stroke-width="3" stroke-linecap="round" stroke-linejoin="round"/>
<path d="M165 78.8401C165 78.8401 169.06 86.2701 162.19 93.8401" stroke="black" stroke-width="3" stroke-linecap="round" stroke-linejoin="round"/>
<path d="M154.175 80.7335C154.935 80.1548 154.504 78.3105 153.213 76.6143C151.922 74.918 150.259 74.0121 149.499 74.5908C148.738 75.1695 149.169 77.0138 150.46 78.71C151.751 80.4063 153.414 81.3122 154.175 80.7335Z" fill="black"/>
<path d="M141.644 89.4161C142.405 88.8374 141.974 86.9931 140.683 85.2969C139.392 83.6006 137.729 82.6947 136.968 83.2734C136.208 83.8521 136.639 85.6964 137.93 87.3926C139.221 89.0889 140.884 89.9948 141.644 89.4161Z" fill="black"/>
</g>
<defs>
<clipPath id="clip0">
<rect width="300" height="200" fill="white" transform="translate(0 14)"/>
</clipPath>
</defs>
</svg>
